<svg width="40" height="40" viewBox="0 0 40 40" fill="none" xmlns="http://www.w3.org/2000/svg">
<path d="M0 0H40V40H0V0Z" fill="#F0DB4F"/>
<path d="M36.7264 30.4601C36.4336 28.635 35.2435 27.1027 31.7187 25.673C30.4944 25.1103 29.1294 24.7073 28.7226 23.7795C28.5781 23.2395 28.5591 22.9353 28.6503 22.6083C28.9127 21.5475 30.1788 21.2167 31.1826 21.5209C31.829 21.7376 32.4412 22.2358 32.81 23.0304C34.5362 21.9126 34.5324 21.9201 35.7378 21.1521C35.2967 20.4677 35.061 20.1521 34.772 19.8593C33.734 18.6996 32.3195 18.1027 30.0572 18.1483C29.6655 18.1977 29.2701 18.2509 28.8784 18.3004C27.7492 18.5856 26.6731 19.1787 26.0419 19.9734C24.1484 22.1217 24.6883 25.8821 26.9925 27.4297C29.2625 29.1331 32.5971 29.5209 33.0229 31.1141C33.4374 33.0647 31.5895 33.6958 29.753 33.4715C28.3994 33.1902 27.6465 32.5019 26.8328 31.251C25.3348 32.1179 25.3348 32.1179 23.7948 33.0038C24.1599 33.8023 24.5438 34.1635 25.156 34.8556C28.0534 37.7947 35.3043 37.6502 36.6047 33.2016C36.6579 33.0494 37.0078 32.0304 36.7264 30.4601ZM21.7454 18.384H18.0039C18.0039 21.616 17.9888 24.8251 17.9888 28.057C17.9888 30.1141 18.0952 32 17.7606 32.5779C17.2131 33.7148 15.7948 33.5741 15.1484 33.3536C14.4907 33.0304 14.1561 32.5703 13.7682 31.9201C13.6618 31.7338 13.5819 31.5893 13.5553 31.5779C12.5401 32.1977 11.5286 32.8213 10.5134 33.4411C11.0192 34.4791 11.7644 35.3802 12.7188 35.9657C14.1446 36.8213 16.061 37.0836 18.0648 36.6235C19.369 36.2433 20.4944 35.4563 21.0838 34.2586C21.9355 32.6882 21.753 30.7871 21.7454 28.6844C21.7644 25.2547 21.7454 21.8251 21.7454 18.384Z" fill="#323330"/>
</svg>
