<svg width="40" height="40" viewBox="0 0 40 40" fill="none" xmlns="http://www.w3.org/2000/svg">
<path d="M39.2455 18.2184L21.7809 0.754671C21.5417 0.515416 21.2578 0.325624 20.9452 0.196136C20.6327 0.0666475 20.2977 0 19.9594 0C19.6211 0 19.2861 0.0666475 18.9736 0.196136C18.661 0.325624 18.3771 0.515416 18.1379 0.754671L14.5114 4.38161L19.1118 8.98174C19.6526 8.79783 20.234 8.76905 20.7903 8.89864C21.3466 9.02824 21.8554 9.31104 22.2592 9.71501C22.6652 10.1215 22.9487 10.634 23.0772 11.194C23.2057 11.7539 23.1742 12.3388 22.9861 12.8816L27.4191 17.3154C28.4918 16.946 29.7296 17.1852 30.5861 18.0431C30.8708 18.3276 31.0967 18.6655 31.2508 19.0374C31.4049 19.4093 31.4842 19.8079 31.4842 20.2104C31.4842 20.613 31.4049 21.0116 31.2508 21.3834C31.0967 21.7553 30.8708 22.0932 30.5861 22.3778C30.0851 22.8792 29.4259 23.1915 28.7206 23.2615C28.0153 23.3316 27.3075 23.1551 26.7177 22.762C26.1279 22.3689 25.6926 21.7836 25.4858 21.1056C25.279 20.4277 25.3135 19.699 25.5835 19.0437L21.449 14.9091L21.4486 25.7899C21.7484 25.9381 22.0221 26.1339 22.2592 26.3696C22.5439 26.6543 22.7698 26.9922 22.9239 27.3642C23.078 27.7361 23.1573 28.1348 23.1573 28.5374C23.1573 28.9399 23.078 29.3386 22.9239 29.7105C22.7698 30.0825 22.5439 30.4204 22.2592 30.7051C21.0615 31.9028 19.1204 31.9028 17.9246 30.7051C17.5674 30.3481 17.3039 29.9083 17.1575 29.4249C17.0112 28.9415 16.9866 28.4295 17.0859 27.9343C17.1851 27.4391 17.4052 26.9761 17.7266 26.5865C18.0479 26.1968 18.4606 25.8926 18.9278 25.7009V14.7188C18.552 14.5653 18.2108 14.3377 17.9246 14.0497C17.0175 13.1437 16.7994 11.8127 17.2642 10.6987L12.7295 6.16316L0.754757 18.1373C0.51547 18.3766 0.325657 18.6607 0.196155 18.9733C0.0666537 19.2859 0 19.621 0 19.9594C0 20.2978 0.0666537 20.6329 0.196155 20.9455C0.325657 21.2582 0.51547 21.5422 0.754757 21.7815L18.2194 39.2456C18.7025 39.7287 19.3577 40 20.0409 40C20.724 40 21.3792 39.7287 21.8624 39.2456L39.2455 21.863C39.7286 21.3796 40 20.7241 40 20.0407C40 19.3573 39.7286 18.7018 39.2455 18.2184Z" fill="#DE4C36"/>
</svg>
