<svg width="40" height="40" viewBox="0 0 40 40" fill="none" xmlns="http://www.w3.org/2000/svg">
<path d="M18.6915 0.0312009C18.6056 0.0390127 18.3322 0.0663538 18.0861 0.0858831C12.4109 0.597552 7.09501 3.65975 3.72815 8.36632C1.85334 10.9833 0.654235 13.9517 0.201154 17.0959C0.0410137 18.1935 0.0214844 18.5177 0.0214844 20.0058C0.0214844 21.4939 0.0410137 21.8181 0.201154 22.9157C1.28699 30.4189 6.62631 36.7229 13.8678 39.0586C15.1645 39.4766 16.5316 39.7617 18.0861 39.9336C18.6915 40 21.3085 40 21.9139 39.9336C24.5972 39.6367 26.8704 38.9727 29.1124 37.8283C29.4561 37.6525 29.5225 37.6057 29.4756 37.5666C29.4444 37.5432 27.9797 35.5785 26.222 33.2037L23.0271 28.8878L19.0235 22.9626C16.8206 19.7051 15.0083 17.0413 14.9927 17.0413C14.9771 17.0374 14.9614 19.6699 14.9536 22.8844C14.9419 28.5128 14.938 28.7393 14.8677 28.8721C14.7661 29.0635 14.688 29.1416 14.524 29.2276C14.399 29.2901 14.2896 29.3018 13.6998 29.3018H13.0241L12.8444 29.1885C12.7273 29.1143 12.6413 29.0167 12.5828 28.9034L12.5007 28.7276L12.5085 20.8964L12.5203 13.0612L12.6413 12.9088C12.7038 12.8268 12.8366 12.7214 12.9304 12.6706C13.0905 12.5925 13.153 12.5847 13.8287 12.5847C14.6255 12.5847 14.7583 12.6159 14.9653 12.8424C15.0239 12.9049 17.1917 16.1702 19.7852 20.1035C22.3787 24.0367 25.9252 29.4072 27.6672 32.0437L30.831 36.8362L30.9911 36.7307C32.4089 35.809 33.9088 34.4966 35.0962 33.1295C37.6233 30.2275 39.252 26.6888 39.7989 22.9157C39.959 21.8181 39.9785 21.4939 39.9785 20.0058C39.9785 18.5177 39.959 18.1935 39.7989 17.0959C38.713 9.59277 33.3737 3.2887 26.1322 0.952986C24.855 0.538964 23.4958 0.253835 21.9725 0.0819772C21.5975 0.0429185 19.0157 -4.60092e-05 18.6915 0.0312009ZM26.8704 12.116C27.0579 12.2097 27.2102 12.3894 27.2649 12.5768C27.2962 12.6784 27.304 14.8501 27.2962 19.7441L27.2844 26.7669L26.0463 24.8686L24.8042 22.9704V17.8654C24.8042 14.5649 24.8198 12.7096 24.8433 12.6198C24.9058 12.4011 25.0425 12.2292 25.23 12.1277C25.3901 12.0457 25.4487 12.0378 26.0619 12.0378C26.64 12.0378 26.7415 12.0457 26.8704 12.116Z" fill="black"/>
<path d="M30.6357 36.9221C30.499 37.008 30.456 37.0666 30.5771 37.0002C30.6631 36.9495 30.8037 36.844 30.7802 36.8401C30.7685 36.8401 30.7021 36.8791 30.6357 36.9221ZM30.3662 37.0979C30.2959 37.1526 30.2959 37.1565 30.3818 37.1135C30.4287 37.0901 30.4678 37.0627 30.4678 37.0549C30.4678 37.0237 30.4482 37.0315 30.3662 37.0979ZM30.1709 37.2151C30.1006 37.2697 30.1006 37.2736 30.1865 37.2307C30.2334 37.2072 30.2725 37.1799 30.2725 37.1721C30.2725 37.1408 30.2529 37.1487 30.1709 37.2151ZM29.9756 37.3322C29.9053 37.3869 29.9053 37.3908 29.9912 37.3479C30.0381 37.3244 30.0772 37.2971 30.0772 37.2893C30.0772 37.258 30.0576 37.2658 29.9756 37.3322ZM29.6788 37.4885C29.5304 37.5666 29.5382 37.5978 29.6866 37.5236C29.753 37.4885 29.8038 37.4533 29.8038 37.4455C29.8038 37.4182 29.7999 37.4221 29.6788 37.4885Z" fill="black"/>
</svg>
