<svg width="60" height="40" viewBox="0 0 60 40" fill="none" xmlns="http://www.w3.org/2000/svg">
<g clip-path="url(#clip0_304_41)">
<path d="M23.9209 14.1127L14.1108 16.1627C14.0697 16.0832 14.024 16.0063 13.9739 15.9322L22.9047 2.90437L23.4434 3.4425L24.9628 12.8909C24.706 12.9994 24.4781 13.1664 24.2972 13.3785C24.1163 13.5906 23.9875 13.8421 23.9209 14.1128V14.1127ZM20.3422 26.9367C19.9747 26.373 19.3403 25.9998 18.6178 25.9998C18.5066 25.9998 18.3984 26.0111 18.2922 26.028L13.8183 19.0278L25.7711 24.1716C25.7673 24.2197 25.7567 24.2647 25.7567 24.3141C25.7567 24.4147 25.7705 24.5122 25.7867 24.6084L20.3422 26.9366V26.9367ZM20.6672 28.2123L26.4586 25.7361C26.6431 25.8803 26.8542 25.9869 27.0798 26.0498L28.0317 31.9686L24.4053 35.595L20.3234 29.2078C20.5235 28.9119 20.642 28.5685 20.6672 28.2122V28.2123ZM32.8023 27.198L29.168 30.833L28.378 25.9255C28.5782 25.8248 28.7581 25.6879 28.9086 25.5217L32.8023 27.198V27.198ZM24.0947 15.4053C24.2369 15.6635 24.4412 15.8822 24.6892 16.0416C24.9371 16.2011 25.2209 16.2962 25.5148 16.3184L26.5586 22.8103C26.4767 22.8647 26.4036 22.9297 26.3317 22.9966L14.3102 17.8228C14.3408 17.6972 14.362 17.5691 14.372 17.4359L24.0947 15.4053V15.4053ZM33.7923 26.2073L29.5873 24.398L39.9625 19.9622L40 19.9997L33.7923 26.2073ZM26.278 12.8714L25.0142 5.01453L32.3523 12.3527L27.0667 13.4564C26.864 13.1911 26.5906 12.9884 26.278 12.8714V12.8714ZM12.0145 14.8914C11.7489 14.8914 11.4945 14.937 11.2564 15.0178L8.81891 11.2033L7.87703 12.1445L10.1858 15.757C10.1287 15.8279 10.0755 15.9018 10.0264 15.9784L5.84391 14.1777L4.8525 15.1691L9.43062 17.1397L1.15391 18.8672L0.021875 19.9997L0.38 20.3578L9.92453 18.3653C10.0343 18.5735 10.1748 18.764 10.3414 18.9303L5.70891 25.6873L6.64453 26.623L11.4844 19.5628C11.6582 19.6032 11.836 19.6239 12.0144 19.6247C12.2187 19.6247 12.4169 19.5959 12.6063 19.5472L17.1352 26.6336C16.7664 27.0161 16.5605 27.5267 16.5608 28.058C16.5608 28.2205 16.5814 28.378 16.617 28.5292L10.967 30.9448L11.9581 31.9361L17.3112 29.6467C17.5827 29.8704 17.9071 30.0206 18.2534 30.0826C18.5996 30.1447 18.956 30.1166 19.2883 30.0011L23.4639 36.5363L20.0003 40L0 19.9997L20.0003 -0.000624657L21.9684 1.9675L12.9708 15.0941C12.6696 14.9606 12.3439 14.8915 12.0145 14.8914V14.8914ZM27.8317 22.5305L26.7698 15.9309C26.9554 15.7818 27.1091 15.5969 27.2217 15.3872C27.3344 15.1775 27.4036 14.9472 27.4255 14.7102L33.4523 13.452L38.9711 18.9708L29.0098 23.2297C28.7248 22.8502 28.3013 22.5988 27.8317 22.5303V22.5305Z" fill="#25C7B7"/>
</g>
<defs>
<clipPath id="clip0_304_41">
<rect width="60" height="40" fill="white" transform="matrix(1 0 0 -1 0 40)"/>
</clipPath>
</defs>
</svg>
