<svg width="60" height="40" viewBox="0 0 60 40" fill="none" xmlns="http://www.w3.org/2000/svg">
<path d="M33.8312 40H7.27996C3.25436 40 0 36.7524 0 32.7352V7.26482C0 3.24759 3.25436 0 7.27996 0H33.8312C37.8568 0 41.1111 3.24759 41.1111 7.26482V32.7352C41.1111 36.7524 37.8568 40 33.8312 40Z" fill="#FF26BE"/>
<path d="M33.1801 38.29H7.93127C4.50589 38.29 1.71362 35.5035 1.71362 32.0853V7.9146C1.71362 4.49635 4.50589 1.70988 7.93127 1.70988H33.1636C36.6071 1.70988 39.3813 4.49635 39.3813 7.9146V32.0689C39.3977 35.5035 36.6055 38.29 33.1801 38.29Z" fill="#2E001F"/>
<path d="M16.2552 18.7175L21.052 27.9138C21.1376 28.05 21.0866 28.1879 20.9484 28.1879H17.9671C17.778 28.1879 17.6924 28.137 17.6069 27.9663C16.5101 25.7099 15.3968 23.4535 14.249 21.0264H14.2144C13.1867 23.3173 12.0553 25.728 10.9601 27.9844C10.8746 28.1206 10.7891 28.1731 10.6509 28.1731H7.82742C7.6564 28.1731 7.63831 28.0369 7.72547 27.9335L12.4187 19.0096L7.88004 9.98397C7.77644 9.84777 7.88004 9.74438 7.982 9.74438H10.9288C11.0999 9.74438 11.1689 9.77885 11.2364 9.9331C12.3151 12.1895 13.412 14.5148 14.4397 16.7877H14.4743C15.4675 14.5313 16.5644 12.1895 17.6267 9.94951C17.7122 9.81331 17.7632 9.72797 17.9358 9.72797H20.6936C20.83 9.72797 20.8827 9.83136 20.7972 9.96756L16.2552 18.7175ZM21.8924 21.504C21.8924 17.5212 24.5481 14.4098 28.7612 14.4098C29.1213 14.4098 29.3088 14.4098 29.6525 14.4443V9.91505C29.6525 9.81167 29.738 9.74438 29.8235 9.74438H32.5303C32.6668 9.74438 32.7013 9.79526 32.7013 9.88059V25.5737C32.7013 26.0348 32.7013 26.6158 32.7868 27.2492C32.7868 27.3526 32.7523 27.3854 32.6503 27.4379C31.2114 28.1222 29.7035 28.4291 28.2646 28.4291C24.5465 28.4439 21.8907 26.1546 21.8924 21.504ZM29.6508 17.129C29.4108 17.0256 29.0687 16.9583 28.6576 16.9583C26.4984 16.9583 24.9921 18.6158 24.9921 21.3694C24.9921 24.5152 26.5346 25.7805 28.4701 25.7805C28.8812 25.7805 29.3269 25.7296 29.6525 25.5918V17.129H29.6508Z" fill="#EBEBEB"/>
</svg>
