<svg width="67" height="40" viewBox="0 0 67 40" fill="none" xmlns="http://www.w3.org/2000/svg">
<g clip-path="url(#clip0_304_54)">
<path d="M33.3554 0C24.4639 0 18.9069 4.44454 16.6838 13.3328C20.0185 8.88824 23.9085 7.22216 28.3539 8.33288C30.8905 8.96662 32.7033 10.807 34.7105 12.8433C37.9792 16.1604 41.7625 19.9996 50.027 19.9996C58.9178 19.9996 64.4755 15.555 66.6978 6.66597C63.364 11.1105 59.474 12.7774 55.0278 11.6667C52.492 11.033 50.6791 9.1926 48.672 7.15629C45.4032 3.83915 41.6191 0 33.3554 0ZM16.6838 19.9996C7.79309 19.9996 2.23533 24.4441 0.0130615 33.3332C3.34688 28.8887 7.23689 27.2217 11.6831 28.3333C14.2189 28.9679 16.0317 30.8074 18.0389 32.8429C21.3076 36.16 25.0918 40 33.3554 40C42.247 40 47.8039 35.5555 50.027 26.6664C46.6924 31.1109 42.8024 32.7778 38.357 31.6663C35.8204 31.0334 34.0075 29.1922 32.0004 27.1567C28.7316 23.8396 24.9483 19.9996 16.6838 19.9996Z" fill="#06B6D4"/>
</g>
<defs>
<clipPath id="clip0_304_54">
<rect width="66.7111" height="40" fill="white"/>
</clipPath>
</defs>
</svg>
