<svg width="60" height="40" viewBox="0 0 60 40" fill="none" xmlns="http://www.w3.org/2000/svg">
<path d="M16.2452 38.3515C16.2055 38.2814 16.17 38.2089 16.1391 38.1344C15.9258 37.6404 15.8603 37.0952 15.9504 36.5646H3.31688L22.0918 3.5237L28.2558 14.3595L30.0427 11.1973L24.6695 1.73179C24.412 1.24701 24.0371 0.834496 23.5791 0.531967C23.1211 0.229439 22.5945 0.0465428 22.0476 0C21.5018 0.0248108 20.9739 0.202307 20.524 0.512297C20.074 0.822287 19.7201 1.25233 19.5025 1.7535L0.482055 35.1952C0.197745 35.6674 0.0338188 36.2022 0.0046985 36.7526C-0.0244218 37.3029 0.0821556 37.852 0.315055 38.3515C0.607563 38.8128 1.02332 39.1831 1.5153 39.4203C2.00728 39.6576 2.55585 39.7525 3.09894 39.6942H19.0299C18.4867 39.7534 17.9378 39.6589 17.4457 39.4215C16.9535 39.1842 16.5379 38.8135 16.246 38.3515H16.2452Z" fill="#00C492"/>
<path d="M52.8716 35.1945L37.2413 7.66207C36.9848 7.17215 36.6092 6.75469 36.1489 6.44823C35.6886 6.14177 35.1586 5.95618 34.6077 5.90857C34.0625 5.93221 33.535 6.10859 33.0853 6.4176C32.6356 6.72662 32.2818 7.15581 32.0643 7.65622L30.0427 11.1966L31.8413 14.3596L34.6244 9.43227L50.0877 36.5639H44.2077C44.2828 37.0124 44.2405 37.4727 44.0849 37.8999C44.0521 37.9944 44.0111 38.0857 43.9622 38.173L43.9121 38.2732C43.5926 38.7244 43.167 39.0899 42.6727 39.3375C42.1784 39.5851 41.6307 39.707 41.0781 39.6927H50.2764C50.8291 39.7075 51.377 39.5857 51.8713 39.3381C52.3657 39.0905 52.7913 38.7247 53.1104 38.2732C53.3623 37.789 53.4735 37.2439 53.4313 36.6997C53.3891 36.1555 53.1952 35.6341 52.8716 35.1945V35.1945Z" fill="#008776"/>
<path d="M43.9129 38.2739L43.963 38.1737C44.0116 38.0864 44.0524 37.9951 44.0849 37.9006C44.2405 37.4734 44.2828 37.0131 44.2077 36.5646C44.1209 36.0809 43.9472 35.617 43.695 35.1952L31.853 14.3595L30.0436 11.1973L28.245 14.3595L16.4072 35.1952C16.1774 35.6221 16.0229 36.0853 15.9504 36.5646C15.8551 37.0939 15.9152 37.6394 16.1233 38.1353C16.1541 38.2097 16.1896 38.2822 16.2293 38.3524C16.5219 38.8135 16.9377 39.1836 17.4297 39.4207C17.9217 39.6578 18.4702 39.7526 19.0132 39.6942H41.0614C41.6167 39.7106 42.1675 39.5896 42.6648 39.342C43.1621 39.0944 43.5905 38.7277 43.9121 38.2747L43.9129 38.2739ZM30.0427 17.5224L40.8668 36.5638H19.2236L30.0427 17.5224Z" fill="#2D4A5D"/>
</svg>
