<svg width="40" height="40" viewBox="0 0 40 40" fill="none" xmlns="http://www.w3.org/2000/svg">
<path d="M1.6665 1.70773H38.3314V38.2796H1.6665V1.70773Z" fill="url(#paint0_radial_226_211)"/>
<path d="M1.66656 1.70894H38.3314V38.2808H1.66656V1.70894ZM0 39.9898H39.998V0H0V39.9898ZM26.9653 16.4061C25.6487 16.4061 25.1988 17.0896 25.1988 17.6536C25.1988 18.2688 25.4987 18.696 27.2653 19.636C29.8818 20.9348 30.6985 22.1823 30.6985 24.011C30.6985 26.7453 28.6653 28.215 25.9154 28.215C24.4654 28.215 23.2155 27.9074 22.4989 27.4802C22.3822 27.4289 22.3655 27.3435 22.3655 27.2067V24.6945C22.3655 24.5236 22.4489 24.4723 22.5656 24.5578C23.6155 25.2585 24.8154 25.5661 25.9154 25.5661C27.232 25.5661 27.782 25.0022 27.782 24.2331C27.782 23.6179 27.3986 23.071 25.7153 22.1823C23.3488 21.0203 22.3655 19.8411 22.3655 17.8758C22.3655 15.6712 24.0488 13.8426 26.9653 13.8426C28.3986 13.8426 29.3985 14.0648 29.9485 14.3211C30.0818 14.4066 30.1151 14.5433 30.1151 14.6629V17.0041C30.1151 17.1408 30.0318 17.2263 29.8651 17.175C29.1318 16.6966 28.0486 16.4061 26.9653 16.4061ZM12.6327 18.4397C13.016 18.4739 13.316 18.4739 13.9826 18.4739C15.9326 18.4739 17.7658 17.7733 17.7658 15.056C17.7658 12.8857 16.4492 11.7919 14.2326 11.7919C13.566 11.7919 12.9327 11.826 12.6327 11.8431V18.4397ZM9.66622 9.36511C9.66622 9.24549 9.89958 9.15999 10.0328 9.15999C11.0995 9.10873 12.6827 9.07455 14.3326 9.07455C18.949 9.07455 20.7489 11.6722 20.7489 14.9876C20.7489 19.3283 17.6824 21.1911 13.916 21.1911C13.2827 21.1911 13.0661 21.157 12.616 21.157V27.7194C12.616 27.8561 12.566 27.9244 12.416 27.9244H9.86618C9.73288 27.9244 9.66615 27.8732 9.66615 27.7194V9.36511H9.66622Z" fill="#31C5F0"/>
<defs>
<radialGradient id="paint0_radial_226_211" cx="0" cy="0" r="1" gradientUnits="userSpaceOnUse" gradientTransform="translate(13.7421 9.90352) scale(27.8653 27.6647)">
<stop stop-color="#34364E" stop-opacity="0.98"/>
<stop offset="1" stop-color="#0C0824"/>
</radialGradient>
</defs>
</svg>
