<svg width="40" height="40" viewBox="0 0 40 40" fill="none" xmlns="http://www.w3.org/2000/svg">
<path d="M1.6665 1.7087H38.3314V38.2806H1.6665V1.7087Z" fill="url(#paint0_radial_226_207)"/>
<path d="M1.66656 1.70894H38.3314V38.2808H1.66656V1.70894ZM0 39.9898H39.998V0H0V39.9898ZM26.1987 14.2528C26.1987 14.1161 26.2486 14.0477 26.3987 14.0477H29.0152C29.1484 14.0477 29.2152 14.0989 29.2152 14.2528V27.7366C29.2152 27.8732 29.1818 27.9416 29.0152 27.9416H26.432C26.2654 27.9416 26.2153 27.8562 26.2153 27.7195V14.2528H26.1987ZM26.0154 10.3734C26.0154 9.27967 26.7653 8.63028 27.7153 8.63028C28.7319 8.63028 29.4152 9.33093 29.4152 10.3734C29.4152 11.5013 28.6986 12.1165 27.682 12.1165C26.7153 12.1166 26.0154 11.5013 26.0154 10.3734ZM18.5157 19.8753C18.0491 17.9783 16.9492 13.8426 16.5325 11.8431H16.4992C16.1492 13.8426 15.2659 17.2263 14.566 19.8753H18.5157ZM13.8826 22.6438L12.566 27.7707C12.5327 27.9074 12.4827 27.9415 12.3161 27.9415H9.86619C9.69955 27.9415 9.66616 27.8903 9.69955 27.6852L14.4326 10.6981C14.5159 10.3905 14.5659 10.117 14.5992 9.27967C14.5992 9.16006 14.6492 9.1088 14.7326 9.1088H18.2324C18.349 9.1088 18.399 9.14297 18.4324 9.27967L23.7321 27.7194C23.7654 27.856 23.7321 27.9415 23.5988 27.9415H20.8322C20.6989 27.9415 20.6155 27.9074 20.5823 27.7878L19.2157 22.6438H13.8826Z" fill="#FF7F18"/>
<defs>
<radialGradient id="paint0_radial_226_207" cx="0" cy="0" r="1" gradientUnits="userSpaceOnUse" gradientTransform="translate(13.7421 9.90449) scale(27.8653 27.6647)">
<stop stop-color="#423325" stop-opacity="0.98"/>
<stop offset="1" stop-color="#1C0A00"/>
</radialGradient>
</defs>
</svg>
