<svg width="60" height="40" viewBox="0 0 60 40" fill="none" xmlns="http://www.w3.org/2000/svg">
<g clip-path="url(#clip0_303_6)">
<path d="M45.609 22.9792C43.7561 22.9897 42.1516 23.4375 40.8059 24.1043C40.309 23.1147 39.8121 22.25 39.7294 21.6043C39.6362 20.8543 39.5224 20.3959 39.6362 19.5001C39.75 18.6042 40.2676 17.3334 40.2676 17.2292C40.2571 17.1354 40.1536 16.6771 39.0875 16.6667C38.0214 16.6563 37.1 16.875 36.9965 17.1563C36.893 17.4375 36.686 18.0834 36.5514 18.75C36.3651 19.7292 34.419 23.1979 33.3113 25.0209C32.949 24.3125 32.6385 23.6875 32.5763 23.1874C32.4832 22.4375 32.3692 21.9791 32.4832 21.0834C32.5971 20.1874 33.1147 18.9167 33.1147 18.8125C33.1043 18.7188 33.0008 18.2604 31.9347 18.25C30.8684 18.2396 29.9472 18.4584 29.8437 18.7396C29.7402 19.0209 29.6263 19.6875 29.3986 20.3334C29.1811 20.9792 26.5932 26.7709 25.9203 28.2813C25.5787 29.0521 25.2786 29.6667 25.0611 30.0834C24.8438 30.5 25.0508 30.1146 25.0301 30.1563C24.8438 30.5104 24.7402 30.7084 24.7402 30.7084V30.7189C24.5953 30.9793 24.4401 31.2292 24.3675 31.2292C24.3157 31.2292 24.2122 30.5313 24.3882 29.573C24.7712 27.5625 25.7028 24.4272 25.6926 24.3126C25.6926 24.2605 25.8685 23.7084 25.0921 23.4272C24.3364 23.146 24.0674 23.6147 24.0052 23.6147C23.9431 23.6147 23.8913 23.7814 23.8913 23.7814C23.8913 23.7814 24.7298 20.2502 22.2868 20.2502C20.7548 20.2502 18.6431 21.9273 17.5976 23.4586C16.9351 23.8231 15.5273 24.5939 14.0366 25.4169C13.4673 25.7294 12.8773 26.0627 12.3183 26.3648L12.2045 26.2396C9.24396 23.0625 3.76798 20.8125 3.99571 16.5417C4.07853 14.9896 4.61681 10.8959 14.513 5.93752C22.6183 1.87502 29.1087 2.98961 30.2369 5.46877C31.8414 9.01044 26.7692 15.5938 18.3431 16.5417C15.1341 16.9063 13.4467 15.6563 13.0224 15.1875C12.5773 14.6979 12.5152 14.6771 12.3495 14.7709C12.0804 14.9167 12.246 15.3542 12.3495 15.6146C12.598 16.2709 13.6331 17.4375 15.3929 18.0209C16.9352 18.5313 20.7032 18.8125 25.2579 17.0417C30.3612 15.0521 34.3466 9.53127 33.1769 4.91669C31.9864 0.218772 24.2435 -1.32289 16.9249 1.29169C12.5668 2.85419 7.8465 5.29169 4.45118 8.48961C0.414073 12.2813 -0.227724 15.5938 0.0414165 16.9688C0.983512 21.875 7.70157 25.0729 10.393 27.4375C10.2584 27.5103 10.1342 27.5833 10.0203 27.6459C8.67462 28.3124 3.5506 31.0104 2.267 33.8645C0.817784 37.0937 2.49474 39.4167 3.61271 39.7292C7.07013 40.6979 10.6104 38.9584 12.5254 36.0938C14.43 33.2292 14.2024 29.5104 13.3225 27.8125L13.2913 27.75L14.3472 27.125C15.0305 26.7188 15.7033 26.3438 16.2933 26.0207C15.9621 26.927 15.7239 27.9999 15.5998 29.5624C15.4549 31.3959 16.2002 33.7708 17.1836 34.7083C17.6184 35.1144 18.1359 35.1249 18.4568 35.1249C19.5955 35.1249 20.1131 34.1769 20.6824 33.0416C21.3863 31.6562 22.0074 30.052 22.0074 30.052C22.0074 30.052 21.2311 34.3958 23.3531 34.3958C24.1295 34.3958 24.9059 33.3853 25.2578 32.8645V32.8749C25.2578 32.8749 25.2785 32.8437 25.3199 32.7708C25.3634 32.7061 25.4048 32.6402 25.4442 32.5729V32.5521C25.7547 32.0104 26.4483 30.7709 27.4834 28.7188C28.8187 26.0729 30.1024 22.7604 30.1024 22.7604C30.1024 22.7604 30.2266 23.5729 30.6096 24.9063C30.8372 25.698 31.3341 26.5625 31.7171 27.4063C31.4065 27.8438 31.2202 28.0939 31.2202 28.0939L31.2306 28.1043C30.9822 28.4376 30.7026 28.7919 30.4129 29.146C29.357 30.4168 28.0942 31.8648 27.9285 32.2815C27.7318 32.771 27.7733 33.1355 28.1563 33.4273C28.4358 33.6356 28.9326 33.6772 29.4606 33.6356C30.4129 33.573 31.0754 33.3336 31.4067 33.1876C31.9242 33.0001 32.5143 32.7189 33.0836 32.3022C34.1188 31.5315 34.7502 30.4377 34.6881 28.9794C34.657 28.1773 34.3983 27.3856 34.0774 26.6356C34.1705 26.5002 34.2638 26.3647 34.3568 26.219C35.9924 23.8126 37.2553 21.1669 37.2553 21.1669C37.2553 21.1669 37.3795 21.9794 37.7625 23.3127C37.9591 23.9898 38.3526 24.7295 38.7045 25.4587C37.1725 26.7191 36.2098 28.1774 35.8785 29.1358C35.2678 30.9066 35.744 31.7087 36.6445 31.8962C37.0482 31.9795 37.6279 31.792 38.0626 31.6045C38.6009 31.4274 39.253 31.1252 39.8535 30.6774C40.8887 29.9066 41.8824 28.8337 41.8307 27.3858C41.7996 26.7191 41.6236 26.0628 41.3856 25.4378C42.6899 24.8962 44.3771 24.5837 46.5199 24.8441C51.1264 25.3858 52.0373 28.2816 51.8614 29.4899C51.6855 30.6984 50.7228 31.3649 50.4018 31.5733C50.0809 31.7712 49.9774 31.8442 50.0084 31.9899C50.0498 32.2088 50.1947 32.1983 50.4742 32.1567C50.8572 32.0941 52.8965 31.1671 52.9793 28.938C53.1035 26.073 50.4018 22.948 45.609 22.9792V22.9792ZM10.0824 35.0313C8.56075 36.7084 6.41798 37.3438 5.50704 36.8021C4.52364 36.2292 4.90655 33.7604 6.78028 31.9792C7.91896 30.8959 9.39923 29.8959 10.3723 29.2813C10.5897 29.1459 10.9209 28.948 11.3143 28.7084C11.3764 28.6668 11.4178 28.6459 11.4178 28.6459C11.4902 28.6042 11.5731 28.5521 11.6559 28.5C12.3494 31.0417 11.6869 33.2709 10.0824 35.0313V35.0313ZM21.2104 27.4167C20.6824 28.7188 19.5645 32.0625 18.8916 31.875C18.3118 31.7188 17.96 29.1875 18.7776 26.6875C19.1917 25.427 20.0716 23.9271 20.5892 23.3437C21.4277 22.4062 22.3386 22.0937 22.5664 22.4791C22.8356 22.9792 21.5416 26.6042 21.2104 27.4167ZM30.3922 31.8334C30.1645 31.948 29.9574 32.0313 29.8643 31.9689C29.7918 31.9272 29.9573 31.771 29.9573 31.771C29.9573 31.771 31.1064 30.5314 31.5618 29.9585C31.8206 29.6252 32.1312 29.2398 32.4624 28.8022V28.9272C32.4625 30.4271 31.034 31.4271 30.3922 31.8334ZM37.4726 30.2084C37.3069 30.0834 37.3277 29.6979 37.8866 28.4896C38.1041 28.0104 38.6009 27.2084 39.4601 26.4479C39.5636 26.7604 39.6258 27.0624 39.6153 27.3438C39.6051 29.2188 38.2801 29.9167 37.4726 30.2084Z" fill="#CF649A"/>
</g>
<defs>
<clipPath id="clip0_303_6">
<rect width="60" height="40" fill="white"/>
</clipPath>
</defs>
</svg>
