<svg width="35" height="36" viewBox="0 0 35 36" fill="none" xmlns="http://www.w3.org/2000/svg">
<g clip-path="url(#clip0_1620_774)">
<path d="M34.773 17.8865C34.773 15.2099 32.8352 12.9911 30.2873 12.5426C31.772 10.4239 31.573 7.48473 29.6805 5.59216C27.788 3.69959 24.8489 3.50075 22.73 4.98548C22.2819 2.43773 20.0632 0.5 17.3865 0.5C14.7098 0.5 12.4911 2.43774 12.0426 4.98578C9.92391 3.50103 6.98473 3.69996 5.09216 5.59248C3.19961 7.48505 3.00075 10.4242 4.48547 12.543C1.93774 12.9911 -4.68e-07 15.2098 0 17.8865C4.67932e-07 20.5628 1.93774 22.7819 4.48547 23.2305C3.00072 25.3491 3.19966 28.2882 5.09218 30.1809C6.98472 32.0734 9.92391 32.2723 12.0426 30.7875C12.4911 33.3352 14.7098 35.273 17.3865 35.273C20.0632 35.273 22.2819 33.3352 22.7305 30.7873C24.8491 32.2721 27.7882 32.073 29.6809 30.1805C31.5734 28.288 31.7723 25.3489 30.2875 23.23C32.8352 22.7819 34.773 20.5628 34.773 17.8865Z" fill="#2F2E33"/>
<path d="M16.7418 25.155C15.7506 25.155 14.8565 25.0059 14.0597 24.7079C13.2693 24.4097 12.6441 23.9725 12.1841 23.3959C11.7241 22.8129 11.4941 22.1002 11.4941 21.258C11.4941 20.5713 11.6723 19.9623 12.0286 19.431C12.3914 18.8998 12.913 18.3944 13.5932 17.915C14.2799 17.4356 15.1092 16.9335 16.081 16.4088C16.9232 15.9423 17.5354 15.4953 17.9177 15.0677C18.2999 14.6336 18.491 14.1866 18.491 13.7266C18.491 13.4416 18.4295 13.2051 18.3064 13.0172C18.1833 12.8229 18.0181 12.6739 17.8108 12.5702C17.6035 12.4665 17.3702 12.4147 17.1111 12.4147C16.8649 12.4147 16.6317 12.4665 16.4114 12.5702C16.1976 12.6674 16.0227 12.8132 15.8866 13.0075C15.7571 13.1954 15.6923 13.4319 15.6923 13.7169C15.6923 14.1121 15.8218 14.5332 16.081 14.9802C16.3466 15.4273 16.6867 15.9067 17.1014 16.4185L21.9992 22.3367C22.2389 22.6217 22.4624 22.8031 22.6697 22.8809C22.877 22.9586 23.0486 22.9975 23.1848 22.9975C23.3273 22.9975 23.4763 22.9781 23.6318 22.9392C23.7938 22.9003 23.9104 22.8679 23.9816 22.842V24.9313C23.9427 24.9443 23.8163 24.9768 23.6027 25.0286C23.3888 25.0868 23.1134 25.1161 22.7766 25.1161C22.4138 25.1161 22.0283 25.0382 21.6202 24.8827C21.212 24.7209 20.8622 24.4616 20.5706 24.1054L15.2453 17.7401C14.9472 17.3708 14.6395 16.9692 14.3221 16.5351C14.0046 16.0946 13.739 15.6281 13.5252 15.1357C13.3114 14.6369 13.2045 14.1186 13.2045 13.5809C13.2045 13.0043 13.3697 12.4827 13.7001 12.0163C14.037 11.5433 14.497 11.1676 15.0801 10.889C15.6631 10.6039 16.3336 10.4614 17.0916 10.4614C17.8626 10.4614 18.5299 10.6007 19.0935 10.8793C19.6572 11.1579 20.0945 11.5304 20.4054 11.9968C20.7164 12.4633 20.8719 12.9848 20.8719 13.5614C20.8719 14.2158 20.7294 14.8021 20.4443 15.3204C20.1657 15.8387 19.7576 16.3213 19.2199 16.7683C18.6886 17.2089 18.044 17.6462 17.286 18.0802C16.3013 18.6439 15.5497 19.146 15.0315 19.5865C14.5196 20.0206 14.2637 20.5324 14.2637 21.1219C14.2637 21.4847 14.3771 21.8119 14.6039 22.1034C14.8306 22.3885 15.1319 22.612 15.5076 22.774C15.8899 22.9359 16.311 23.0169 16.771 23.0169C17.5613 23.0169 18.2286 22.8938 18.7728 22.6477C19.3235 22.4015 19.79 22.0775 20.1722 21.6759C20.5739 21.2548 20.8913 20.7818 21.1246 20.2571C21.3578 19.7258 21.4744 19.0617 21.4744 18.2649H23.9234C23.9234 19.0617 23.8261 19.7679 23.6318 20.3834C23.4438 20.9989 23.1945 21.5431 22.8836 22.016C22.5725 22.4824 22.2292 22.8971 21.8534 23.26C21.2833 23.8236 20.5642 24.2802 19.6961 24.6302C18.8344 24.98 17.8496 25.155 16.7418 25.155Z" fill="#0061EA"/>
</g>
<defs>
<clipPath id="clip0_1620_774">
<rect width="35" height="35" fill="white" transform="translate(0 0.5)"/>
</clipPath>
</defs>
</svg>
