<svg width="35" height="36" viewBox="0 0 35 36" fill="none" xmlns="http://www.w3.org/2000/svg">
<g clip-path="url(#clip0_1695_876)">
<path d="M17.4995 35.335C27.1645 35.335 34.9995 27.5559 34.9995 17.96C34.9995 8.36401 27.1645 0.584961 17.4995 0.584961C7.83453 0.584961 -0.000488281 8.36401 -0.000488281 17.96C-0.000488281 27.5559 7.83453 35.335 17.4995 35.335Z" fill="#2F2E33"/>
<path d="M21.0829 25.4192C23.45 24.2441 25.8166 21.1461 27.108 19.0096C28.3993 16.8731 25.6823 14.8701 24.0954 16.4458C22.5085 18.0215 22.3739 18.155 22.3739 18.155V11.1045C22.3738 10.2785 21.6994 9.60889 20.8675 9.60889C20.0356 9.60889 19.3612 10.2785 19.3612 11.1045V15.1638C19.3612 14.3379 18.6868 13.6683 17.8549 13.6683C17.0229 13.6683 16.3486 14.3379 16.3486 15.1638V15.8048C16.3486 14.9788 15.6741 14.3092 14.8422 14.3092C14.0103 14.3092 13.3359 14.9788 13.3359 15.8048V13.6683C13.3359 12.8423 12.6615 12.1727 11.8296 12.1727C10.9976 12.1727 10.3232 12.8423 10.3232 13.6683V20.768C10.3232 21.5787 10.5048 22.387 11.0005 23.0312C11.5574 23.7551 12.4676 24.7158 13.7664 25.4192C16.1336 26.701 18.7158 26.5942 21.0829 25.4192Z" fill="#0061EA"/>
</g>
<defs>
<clipPath id="clip0_1695_876">
<rect width="35" height="35" fill="white" transform="translate(0 0.5)"/>
</clipPath>
</defs>
</svg>
