<svg width="3654" height="1135" viewBox="0 0 3654 1135" fill="none" xmlns="http://www.w3.org/2000/svg">
<g clip-path="url(#clip0_1759_876)">
<rect width="3654" height="1135" fill="#19181B"/>
<g opacity="0.3" filter="url(#filter0_f_1759_876)">
<circle cx="1826.5" cy="1065.5" r="667.5" fill="#0061EA"/>
</g>
<g style="mix-blend-mode:soft-light" opacity="0.5">
<path d="M1070.34 1009.3C1070.34 1010.87 1071.22 1012.31 1072.62 1013.01L1178.69 1066.21C1181.44 1067.58 1184.67 1065.58 1184.67 1062.51L1184.67 998.042C1184.67 996.476 1183.79 995.035 1182.39 994.335L1076.32 941.134C1073.57 939.763 1070.34 941.763 1070.34 944.841M1070.34 1009.3L1070.34 944.841M1070.34 1009.3C1070.34 1012.38 1073.57 1014.38 1076.32 1013.01L1141.56 980.29C1142.95 979.59 1143.84 978.15 1143.84 976.583L1143.84 912.12C1143.84 909.042 1140.61 907.028 1137.86 908.413L1072.62 941.134C1071.22 941.833 1070.34 943.274 1070.34 944.841M1258.16 961.166C1258.16 959.6 1257.28 958.159 1255.88 957.459L1149.81 904.258C1147.07 902.887 1143.84 904.887 1143.84 907.965L1143.84 972.428C1143.84 974.009 1144.72 975.436 1146.12 976.135L1252.19 1029.34C1254.93 1030.71 1258.16 1028.71 1258.16 1025.63M1258.16 961.166L1258.16 1025.63M1258.16 961.166C1258.16 958.089 1254.93 956.088 1252.19 957.459L1186.95 990.18C1185.55 990.88 1184.67 992.321 1184.67 993.888L1184.67 1058.35C1184.67 1061.43 1187.9 1063.44 1190.65 1062.06L1255.88 1029.34C1257.28 1028.64 1258.16 1027.2 1258.16 1025.63M923.339 1230.53C923.339 1232.1 924.221 1233.54 925.62 1234.24L1031.69 1287.44C1034.44 1288.81 1037.67 1286.81 1037.67 1283.73L1037.67 1219.27C1037.67 1217.7 1036.79 1216.26 1035.39 1215.56L929.315 1162.36C926.569 1160.99 923.339 1162.99 923.339 1166.07M923.339 1230.53L923.339 1166.07M923.339 1230.53C923.339 1233.61 926.569 1235.61 929.315 1234.24L994.555 1201.52C995.953 1200.82 996.835 1199.38 996.835 1197.81L996.835 1133.35C996.835 1130.27 993.604 1128.26 990.859 1129.64L925.62 1162.36C924.221 1163.06 923.339 1164.5 923.339 1166.07M809 1107.72C809 1109.29 809.882 1110.71 811.281 1111.41L917.352 1164.61C920.097 1166 923.328 1163.98 923.328 1160.91L923.328 1096.44C923.328 1094.88 922.446 1093.45 921.048 1092.74L814.977 1039.55C812.231 1038.16 809 1040.18 809 1043.26M809 1107.72L809 1043.26M809 1107.72C809 1110.8 812.231 1112.8 814.977 1111.41L880.215 1078.69C881.614 1077.99 882.496 1076.56 882.496 1075L882.496 1010.52C882.496 1007.44 879.265 1005.44 876.519 1006.81L876.519 1006.83L811.281 1039.55C809.882 1040.25 809 1041.68 809 1043.26M1184.67 1132.09C1184.67 1133.65 1185.55 1135.1 1186.95 1135.8L1293.02 1188.98C1295.77 1190.37 1299 1188.37 1299 1185.29L1299 1120.83C1299 1119.25 1298.12 1117.82 1296.72 1117.12L1190.65 1063.92C1187.9 1062.53 1184.67 1064.55 1184.67 1067.63M1184.67 1132.09L1184.67 1067.63M1184.67 1132.09C1184.67 1135.17 1187.9 1137.17 1190.65 1135.8L1255.88 1103.07C1257.28 1102.37 1258.16 1100.93 1258.16 1099.37L1258.16 1034.89C1258.16 1031.81 1254.93 1029.81 1252.19 1031.2L1186.95 1063.92C1185.55 1064.62 1184.67 1066.06 1184.67 1067.63M1372.5 1083.95C1372.5 1082.37 1371.62 1080.94 1370.22 1080.24L1264.15 1027.04C1261.4 1025.67 1258.17 1027.67 1258.17 1030.75L1258.17 1095.21C1258.17 1096.78 1259.05 1098.22 1260.45 1098.92L1366.52 1152.12C1369.27 1153.49 1372.5 1151.49 1372.5 1148.41M1372.5 1083.95L1372.5 1148.41M1372.5 1083.95C1372.5 1080.87 1369.27 1078.86 1366.52 1080.24L1301.28 1112.96C1299.88 1113.66 1299 1115.09 1299 1116.67L1299 1181.13C1299 1184.21 1302.23 1186.21 1304.98 1184.84L1370.22 1152.12C1371.62 1151.42 1372.5 1149.98 1372.5 1148.41M1111.17 1242.66C1111.17 1244.23 1112.05 1245.65 1113.45 1246.37L1219.52 1299.55C1222.27 1300.94 1225.5 1298.93 1225.5 1295.85L1225.5 1231.38C1225.5 1229.82 1224.61 1228.39 1223.22 1227.69L1117.14 1174.49C1114.4 1173.1 1111.17 1175.12 1111.17 1178.2M1111.17 1242.66L1111.17 1178.2M1111.17 1242.66C1111.17 1245.74 1114.4 1247.74 1117.14 1246.37L1182.38 1213.65C1183.78 1212.93 1184.66 1211.51 1184.66 1209.94L1184.66 1145.46C1184.66 1142.38 1181.43 1140.38 1178.69 1141.75L1178.69 1141.77L1113.45 1174.49C1112.05 1175.19 1111.17 1176.62 1111.17 1178.2M1070.33 948.758C1070.33 947.191 1069.45 945.764 1068.05 945.065L961.979 891.863C959.234 890.478 956.003 892.493 956.003 895.57L956.003 960.033C956.003 961.6 956.885 963.041 958.283 963.74L1064.35 1016.93C1067.1 1018.31 1070.33 1016.31 1070.33 1013.22M1070.33 948.758L1070.33 1013.22M1070.33 948.758C1070.33 945.68 1067.1 943.68 1064.35 945.065L999.116 977.786C997.717 978.485 996.835 979.912 996.835 981.493L996.835 1045.96C996.835 1049.03 1000.07 1051.03 1002.81 1049.66L1002.81 1049.65L1068.05 1016.93C1069.45 1016.23 1070.33 1014.8 1070.33 1013.22M1143.83 838.354C1143.83 836.773 1142.95 835.346 1141.55 834.647L1035.48 781.445C1032.73 780.06 1029.5 782.075 1029.5 785.153L1029.5 849.616C1029.5 851.182 1030.39 852.623 1031.78 853.323L1137.86 906.524C1140.6 907.895 1143.83 905.894 1143.83 902.817L1143.83 838.354ZM1143.83 838.354L1143.83 902.803C1143.83 904.384 1142.95 905.811 1141.55 906.51L1076.31 939.231L1076.31 939.245C1073.57 940.616 1070.34 938.616 1070.34 935.538L1070.34 871.075C1070.34 869.494 1071.22 868.067 1072.62 867.368L1137.86 834.647C1140.6 833.262 1143.83 835.276 1143.83 838.354ZM1446 973.533C1446 971.966 1445.12 970.525 1443.72 969.826L1337.65 916.624C1334.9 915.253 1331.67 917.254 1331.67 920.332L1331.67 984.795C1331.67 986.361 1332.55 987.802 1333.95 988.502L1440.02 1041.7C1442.77 1043.07 1446 1041.07 1446 1038M1446 973.533L1446 1038M1446 973.533C1446 970.455 1442.77 968.441 1440.02 969.826L1374.78 1002.55C1373.39 1003.25 1372.5 1004.67 1372.5 1006.25L1372.5 1070.72C1372.5 1073.79 1375.73 1075.8 1378.48 1074.42L1443.72 1041.69C1445.12 1040.99 1446 1039.56 1446 1038M1143.84 898.886C1143.84 900.453 1144.72 901.894 1146.12 902.593L1252.19 955.78L1252.19 955.794C1254.94 957.179 1258.17 955.165 1258.17 952.087L1258.17 887.624C1258.17 886.058 1257.29 884.631 1255.89 883.917L1149.82 830.73C1147.07 829.345 1143.84 831.359 1143.84 834.437L1143.84 898.886ZM1143.84 898.886L1143.84 834.423C1143.84 832.856 1144.72 831.415 1146.12 830.716L1211.36 797.995C1214.11 796.61 1217.34 798.624 1217.34 801.702L1217.34 866.165C1217.34 867.732 1216.46 869.173 1215.06 869.872L1149.82 902.593C1147.07 903.964 1143.84 901.964 1143.84 898.886ZM996.83 1059.58C996.83 1058.01 995.948 1056.57 994.549 1055.87L888.478 1002.67C885.733 1001.3 882.501 1003.3 882.501 1006.38L882.501 1070.84C882.501 1072.41 883.383 1073.85 884.782 1074.55L990.853 1127.75C993.598 1129.12 996.83 1127.12 996.83 1124.04M996.83 1059.58L996.83 1124.04M996.83 1059.58C996.83 1056.5 993.598 1054.49 990.853 1055.87L925.614 1088.6C924.216 1089.29 923.334 1090.72 923.334 1092.3L923.334 1156.77C923.334 1159.84 926.565 1161.84 929.31 1160.47L929.31 1160.46L994.549 1127.74C995.948 1127.04 996.83 1125.61 996.83 1124.04M1299 1194.52C1299 1192.96 1298.12 1191.53 1296.72 1190.82L1190.65 1137.63C1187.9 1136.24 1184.67 1138.26 1184.67 1141.34L1184.67 1205.8C1184.67 1207.36 1185.55 1208.79 1186.95 1209.49L1293.02 1262.69C1295.77 1264.08 1299 1262.06 1299 1258.99M1299 1194.52L1299 1258.99M1299 1194.52C1299 1191.44 1295.77 1189.44 1293.02 1190.82L1227.78 1223.54C1226.38 1224.24 1225.5 1225.68 1225.5 1227.24L1225.5 1291.71C1225.5 1294.78 1228.73 1296.8 1231.48 1295.41L1296.72 1262.69C1298.12 1261.99 1299 1260.55 1299 1258.99M1223.31 793.854L1329.39 847.041C1330.79 847.741 1331.67 849.182 1331.67 850.749L1331.67 915.211C1331.67 918.289 1328.44 920.304 1325.7 918.919L1219.62 865.717C1218.23 865.018 1217.34 863.591 1217.34 862.01L1217.34 797.547C1217.34 794.469 1220.57 792.469 1223.32 793.854L1223.31 793.854ZM1264.15 951.64L1329.39 918.919C1330.78 918.219 1331.67 916.792 1331.67 915.211L1331.67 850.749C1331.67 847.671 1328.44 845.67 1325.69 847.041L1260.45 879.762C1259.05 880.462 1258.17 881.903 1258.17 883.47L1258.17 947.946C1258.17 951.024 1261.4 953.025 1264.15 951.654L1264.15 951.64ZM1105.19 1176.78L999.121 1123.58C997.721 1122.88 996.839 1121.44 996.839 1119.88L996.839 1055.41C996.839 1052.34 1000.07 1050.33 1002.82 1051.71L1108.89 1104.91C1110.29 1105.61 1111.17 1107.05 1111.17 1108.61L1111.17 1173.08C1111.17 1176.15 1107.94 1178.16 1105.19 1176.78ZM1064.35 1018.98L999.116 1051.71C997.717 1052.4 996.835 1053.85 996.835 1055.41L996.835 1119.88C996.835 1122.95 1000.07 1124.95 1002.81 1123.58L1068.05 1090.86C1069.45 1090.16 1070.33 1088.72 1070.33 1087.15L1070.33 1022.69C1070.33 1019.61 1067.1 1017.6 1064.35 1018.98ZM1076.31 1014.84L1182.38 1068.04C1183.78 1068.74 1184.66 1070.17 1184.66 1071.75L1184.66 1136.22C1184.66 1139.29 1181.43 1141.29 1178.69 1139.92L1072.62 1086.72C1071.22 1086.02 1070.34 1084.58 1070.34 1083.01L1070.34 1018.55C1070.34 1015.47 1073.57 1013.47 1076.31 1014.84ZM1117.14 1172.63L1182.38 1139.91C1183.78 1139.21 1184.66 1137.78 1184.66 1136.2L1184.66 1071.74C1184.66 1068.66 1181.43 1066.66 1178.69 1068.03L1113.45 1100.75C1112.05 1101.45 1111.17 1102.89 1111.17 1104.46L1111.17 1168.94C1111.17 1172.01 1114.4 1174.01 1117.14 1172.64L1117.14 1172.63ZM1002.81 1125.5L1108.88 1178.69C1110.28 1179.39 1111.16 1180.83 1111.16 1182.39L1111.16 1246.86C1111.16 1249.93 1107.93 1251.95 1105.19 1250.56L999.116 1197.36C997.717 1196.66 996.835 1195.24 996.835 1193.66L996.835 1129.19C996.835 1126.11 1000.07 1124.11 1002.81 1125.5ZM1043.65 1283.28L1108.89 1250.56C1110.29 1249.86 1111.17 1248.44 1111.17 1246.86L1111.17 1182.39C1111.17 1179.32 1107.94 1177.32 1105.19 1178.69L1039.95 1211.41C1038.55 1212.11 1037.67 1213.55 1037.67 1215.11L1037.67 1279.59C1037.67 1282.67 1040.9 1284.67 1043.65 1283.3L1043.65 1283.28ZM1366.53 1078.56L1260.46 1025.36C1259.06 1024.66 1258.18 1023.24 1258.18 1021.66L1258.18 957.193C1258.18 954.116 1261.41 952.115 1264.15 953.5L1370.22 1006.69C1371.62 1007.39 1372.5 1008.83 1372.5 1010.39L1372.5 1074.86C1372.5 1077.94 1369.27 1079.95 1366.53 1078.56ZM1325.69 920.779L1260.45 953.5C1259.05 954.2 1258.17 955.641 1258.17 957.207L1258.17 1021.67C1258.17 1024.75 1261.4 1026.75 1264.15 1025.38L1329.39 992.657C1330.78 991.957 1331.67 990.516 1331.67 988.949L1331.67 924.472C1331.67 921.395 1328.44 919.394 1325.69 920.779ZM990.853 1053.8L884.782 1000.6C883.383 999.903 882.501 998.462 882.501 996.895L882.501 932.432C882.501 929.355 885.733 927.354 888.478 928.725L994.549 981.927C995.948 982.626 996.83 984.067 996.83 985.634L996.83 1050.1C996.83 1053.17 993.598 1055.17 990.853 1053.8ZM950.021 896.018L884.782 928.739C883.383 929.439 882.501 930.866 882.501 932.446L882.501 996.909C882.501 999.987 885.733 1001.99 888.478 1000.6L953.717 967.881C955.115 967.182 955.997 965.755 955.997 964.188L955.997 899.711C955.997 896.634 952.766 894.633 950.021 896.004L950.021 896.018ZM1064.36 943.386L958.289 890.185C956.89 889.485 956.007 888.058 956.007 886.477L956.007 822.028C956.007 818.951 959.238 816.936 961.984 818.321L1068.05 871.509C1069.45 872.222 1070.34 873.649 1070.34 875.216L1070.34 939.679C1070.34 942.757 1067.11 944.771 1064.36 943.386ZM1023.52 785.6C998.045 798.379 983.761 805.543 958.283 818.321C956.885 819.021 956.003 820.448 956.003 822.028L956.003 886.491C956.003 889.569 959.234 891.57 961.979 890.199L1027.22 857.478C1028.62 856.764 1029.5 855.337 1029.5 853.77L1029.5 789.293C1029.5 786.216 1026.27 784.215 1023.52 785.586L1023.52 785.6Z" stroke="url(#paint0_radial_1759_876)" stroke-width="3" stroke-miterlimit="10"/>
</g>
<g style="mix-blend-mode:soft-light" opacity="0.5">
<path d="M2468.34 1009.3C2468.34 1010.87 2469.22 1012.31 2470.62 1013.01L2576.69 1066.21C2579.44 1067.58 2582.67 1065.58 2582.67 1062.51L2582.67 998.042C2582.67 996.476 2581.79 995.035 2580.39 994.335L2474.32 941.134C2471.57 939.763 2468.34 941.763 2468.34 944.841M2468.34 1009.3L2468.34 944.841M2468.34 1009.3C2468.34 1012.38 2471.57 1014.38 2474.32 1013.01L2539.56 980.29C2540.95 979.59 2541.84 978.15 2541.84 976.583L2541.84 912.12C2541.84 909.042 2538.61 907.028 2535.86 908.413L2470.62 941.134C2469.22 941.833 2468.34 943.274 2468.34 944.841M2656.16 961.166C2656.16 959.6 2655.28 958.159 2653.88 957.459L2547.81 904.258C2545.07 902.887 2541.84 904.887 2541.84 907.965L2541.84 972.428C2541.84 974.009 2542.72 975.436 2544.12 976.135L2650.19 1029.34C2652.93 1030.71 2656.16 1028.71 2656.16 1025.63M2656.16 961.166L2656.16 1025.63M2656.16 961.166C2656.16 958.089 2652.93 956.088 2650.19 957.459L2584.95 990.18C2583.55 990.88 2582.67 992.321 2582.67 993.888L2582.67 1058.35C2582.67 1061.43 2585.9 1063.44 2588.65 1062.06L2653.88 1029.34C2655.28 1028.64 2656.16 1027.2 2656.16 1025.63M2321.34 1230.53C2321.34 1232.1 2322.22 1233.54 2323.62 1234.24L2429.69 1287.44C2432.44 1288.81 2435.67 1286.81 2435.67 1283.73L2435.67 1219.27C2435.67 1217.7 2434.79 1216.26 2433.39 1215.56L2327.31 1162.36C2324.57 1160.99 2321.34 1162.99 2321.34 1166.07M2321.34 1230.53L2321.34 1166.07M2321.34 1230.53C2321.34 1233.61 2324.57 1235.61 2327.31 1234.24L2392.55 1201.52C2393.95 1200.82 2394.84 1199.38 2394.84 1197.81L2394.84 1133.35C2394.84 1130.27 2391.6 1128.26 2388.86 1129.64L2323.62 1162.36C2322.22 1163.06 2321.34 1164.5 2321.34 1166.07M2207 1107.72C2207 1109.29 2207.88 1110.71 2209.28 1111.41L2315.35 1164.61C2318.1 1166 2321.33 1163.98 2321.33 1160.91L2321.33 1096.44C2321.33 1094.88 2320.45 1093.45 2319.05 1092.74L2212.98 1039.55C2210.23 1038.16 2207 1040.18 2207 1043.26M2207 1107.72L2207 1043.26M2207 1107.72C2207 1110.8 2210.23 1112.8 2212.98 1111.41L2278.22 1078.69C2279.61 1077.99 2280.5 1076.56 2280.5 1075L2280.5 1010.52C2280.5 1007.44 2277.26 1005.44 2274.52 1006.81L2274.52 1006.83L2209.28 1039.55C2207.88 1040.25 2207 1041.68 2207 1043.26M2582.67 1132.09C2582.67 1133.65 2583.55 1135.1 2584.95 1135.8L2691.02 1188.98C2693.77 1190.37 2697 1188.37 2697 1185.29L2697 1120.83C2697 1119.25 2696.12 1117.82 2694.72 1117.12L2588.65 1063.92C2585.9 1062.53 2582.67 1064.55 2582.67 1067.63M2582.67 1132.09L2582.67 1067.63M2582.67 1132.09C2582.67 1135.17 2585.9 1137.17 2588.65 1135.8L2653.88 1103.07C2655.28 1102.37 2656.16 1100.93 2656.16 1099.37L2656.16 1034.89C2656.16 1031.81 2652.93 1029.81 2650.19 1031.2L2584.95 1063.92C2583.55 1064.62 2582.67 1066.06 2582.67 1067.63M2770.5 1083.95C2770.5 1082.37 2769.62 1080.94 2768.22 1080.24L2662.15 1027.04C2659.4 1025.67 2656.17 1027.67 2656.17 1030.75L2656.17 1095.21C2656.17 1096.78 2657.05 1098.22 2658.45 1098.92L2764.52 1152.12C2767.27 1153.49 2770.5 1151.49 2770.5 1148.41M2770.5 1083.95L2770.5 1148.41M2770.5 1083.95C2770.5 1080.87 2767.27 1078.86 2764.52 1080.24L2699.28 1112.96C2697.88 1113.66 2697 1115.09 2697 1116.67L2697 1181.13C2697 1184.21 2700.23 1186.21 2702.98 1184.84L2768.22 1152.12C2769.62 1151.42 2770.5 1149.98 2770.5 1148.41M2509.17 1242.66C2509.17 1244.23 2510.05 1245.65 2511.45 1246.37L2617.52 1299.55C2620.27 1300.94 2623.5 1298.93 2623.5 1295.85L2623.5 1231.38C2623.5 1229.82 2622.61 1228.39 2621.22 1227.69L2515.14 1174.49C2512.4 1173.1 2509.17 1175.12 2509.17 1178.2M2509.17 1242.66L2509.17 1178.2M2509.17 1242.66C2509.17 1245.74 2512.4 1247.74 2515.14 1246.37L2580.38 1213.65C2581.78 1212.93 2582.66 1211.51 2582.66 1209.94L2582.66 1145.46C2582.66 1142.38 2579.43 1140.38 2576.69 1141.75L2576.69 1141.77L2511.45 1174.49C2510.05 1175.19 2509.17 1176.62 2509.17 1178.2M2468.33 948.758C2468.33 947.191 2467.45 945.764 2466.05 945.065L2359.98 891.863C2357.23 890.478 2354 892.493 2354 895.57L2354 960.033C2354 961.6 2354.88 963.041 2356.28 963.74L2462.35 1016.93C2465.1 1018.31 2468.33 1016.31 2468.33 1013.22M2468.33 948.758L2468.33 1013.22M2468.33 948.758C2468.33 945.68 2465.1 943.68 2462.35 945.065L2397.12 977.786C2395.72 978.485 2394.84 979.912 2394.84 981.493L2394.84 1045.96C2394.84 1049.03 2398.07 1051.03 2400.81 1049.66L2400.81 1049.65L2466.05 1016.93C2467.45 1016.23 2468.33 1014.8 2468.33 1013.22M2541.83 838.354C2541.83 836.773 2540.95 835.346 2539.55 834.647L2433.48 781.445C2430.73 780.06 2427.5 782.075 2427.5 785.153L2427.5 849.616C2427.5 851.182 2428.39 852.623 2429.78 853.323L2535.86 906.524C2538.6 907.895 2541.83 905.894 2541.83 902.817L2541.83 838.354ZM2541.83 838.354L2541.83 902.803C2541.83 904.384 2540.95 905.811 2539.55 906.51L2474.31 939.231L2474.31 939.245C2471.57 940.616 2468.34 938.616 2468.34 935.538L2468.34 871.075C2468.34 869.494 2469.22 868.067 2470.62 867.368L2535.86 834.647C2538.6 833.262 2541.83 835.276 2541.83 838.354ZM2844 973.533C2844 971.966 2843.12 970.525 2841.72 969.826L2735.65 916.624C2732.9 915.253 2729.67 917.254 2729.67 920.332L2729.67 984.795C2729.67 986.361 2730.55 987.802 2731.95 988.502L2838.02 1041.7C2840.77 1043.07 2844 1041.07 2844 1038M2844 973.533L2844 1038M2844 973.533C2844 970.455 2840.77 968.441 2838.02 969.826L2772.78 1002.55C2771.39 1003.25 2770.5 1004.67 2770.5 1006.25L2770.5 1070.72C2770.5 1073.79 2773.73 1075.8 2776.48 1074.42L2841.72 1041.69C2843.12 1040.99 2844 1039.56 2844 1038M2541.84 898.886C2541.84 900.453 2542.72 901.894 2544.12 902.593L2650.19 955.78L2650.19 955.794C2652.94 957.179 2656.17 955.165 2656.17 952.087L2656.17 887.624C2656.17 886.058 2655.29 884.631 2653.89 883.917L2547.82 830.73C2545.07 829.345 2541.84 831.359 2541.84 834.437L2541.84 898.886ZM2541.84 898.886L2541.84 834.423C2541.84 832.856 2542.72 831.415 2544.12 830.716L2609.36 797.995C2612.11 796.61 2615.34 798.624 2615.34 801.702L2615.34 866.165C2615.34 867.732 2614.46 869.173 2613.06 869.872L2547.82 902.593C2545.07 903.964 2541.84 901.964 2541.84 898.886ZM2394.83 1059.58C2394.83 1058.01 2393.95 1056.57 2392.55 1055.87L2286.48 1002.67C2283.73 1001.3 2280.5 1003.3 2280.5 1006.38L2280.5 1070.84C2280.5 1072.41 2281.38 1073.85 2282.78 1074.55L2388.85 1127.75C2391.6 1129.12 2394.83 1127.12 2394.83 1124.04M2394.83 1059.58L2394.83 1124.04M2394.83 1059.58C2394.83 1056.5 2391.6 1054.49 2388.85 1055.87L2323.61 1088.6C2322.22 1089.29 2321.33 1090.72 2321.33 1092.3L2321.33 1156.77C2321.33 1159.84 2324.57 1161.84 2327.31 1160.47L2327.31 1160.46L2392.55 1127.74C2393.95 1127.04 2394.83 1125.61 2394.83 1124.04M2697 1194.52C2697 1192.96 2696.12 1191.53 2694.72 1190.82L2588.65 1137.63C2585.9 1136.24 2582.67 1138.26 2582.67 1141.34L2582.67 1205.8C2582.67 1207.36 2583.55 1208.79 2584.95 1209.49L2691.02 1262.69C2693.77 1264.08 2697 1262.06 2697 1258.99M2697 1194.52L2697 1258.99M2697 1194.52C2697 1191.44 2693.77 1189.44 2691.02 1190.82L2625.78 1223.54C2624.38 1224.24 2623.5 1225.68 2623.5 1227.24L2623.5 1291.71C2623.5 1294.78 2626.73 1296.8 2629.48 1295.41L2694.72 1262.69C2696.12 1261.99 2697 1260.55 2697 1258.99M2621.31 793.854L2727.39 847.041C2728.79 847.741 2729.67 849.182 2729.67 850.749L2729.67 915.211C2729.67 918.289 2726.44 920.304 2723.7 918.919L2617.62 865.717C2616.23 865.018 2615.34 863.591 2615.34 862.01L2615.34 797.547C2615.34 794.469 2618.57 792.469 2621.32 793.854L2621.31 793.854ZM2662.15 951.64L2727.39 918.919C2728.78 918.219 2729.67 916.792 2729.67 915.211L2729.67 850.749C2729.67 847.671 2726.44 845.67 2723.69 847.041L2658.45 879.762C2657.05 880.462 2656.17 881.903 2656.17 883.47L2656.17 947.946C2656.17 951.024 2659.4 953.025 2662.15 951.654L2662.15 951.64ZM2503.19 1176.78L2397.12 1123.58C2395.72 1122.88 2394.84 1121.44 2394.84 1119.88L2394.84 1055.41C2394.84 1052.34 2398.07 1050.33 2400.82 1051.71L2506.89 1104.91C2508.29 1105.61 2509.17 1107.05 2509.17 1108.61L2509.17 1173.08C2509.17 1176.15 2505.94 1178.16 2503.19 1176.78ZM2462.35 1018.98L2397.12 1051.71C2395.72 1052.4 2394.84 1053.85 2394.84 1055.41L2394.84 1119.88C2394.84 1122.95 2398.07 1124.95 2400.81 1123.58L2466.05 1090.86C2467.45 1090.16 2468.33 1088.72 2468.33 1087.15L2468.33 1022.69C2468.33 1019.61 2465.1 1017.6 2462.35 1018.98ZM2474.31 1014.84L2580.38 1068.04C2581.78 1068.74 2582.66 1070.17 2582.66 1071.75L2582.66 1136.22C2582.66 1139.29 2579.43 1141.29 2576.69 1139.92L2470.62 1086.72C2469.22 1086.02 2468.34 1084.58 2468.34 1083.01L2468.34 1018.55C2468.34 1015.47 2471.57 1013.47 2474.31 1014.84ZM2515.14 1172.63L2580.38 1139.91C2581.78 1139.21 2582.66 1137.78 2582.66 1136.2L2582.66 1071.74C2582.66 1068.66 2579.43 1066.66 2576.69 1068.03L2511.45 1100.75C2510.05 1101.45 2509.17 1102.89 2509.17 1104.46L2509.17 1168.94C2509.17 1172.01 2512.4 1174.01 2515.14 1172.64L2515.14 1172.63ZM2400.81 1125.5L2506.88 1178.69C2508.28 1179.39 2509.16 1180.83 2509.16 1182.39L2509.16 1246.86C2509.16 1249.93 2505.93 1251.95 2503.19 1250.56L2397.12 1197.36C2395.72 1196.66 2394.84 1195.24 2394.84 1193.66L2394.84 1129.19C2394.84 1126.11 2398.07 1124.11 2400.81 1125.5ZM2441.65 1283.28L2506.89 1250.56C2508.29 1249.86 2509.17 1248.44 2509.17 1246.86L2509.17 1182.39C2509.17 1179.32 2505.94 1177.32 2503.19 1178.69L2437.95 1211.41C2436.55 1212.11 2435.67 1213.55 2435.67 1215.11L2435.67 1279.59C2435.67 1282.67 2438.9 1284.67 2441.65 1283.3L2441.65 1283.28ZM2764.53 1078.56L2658.46 1025.36C2657.06 1024.66 2656.18 1023.24 2656.18 1021.66L2656.18 957.193C2656.18 954.116 2659.41 952.115 2662.15 953.5L2768.22 1006.69C2769.62 1007.39 2770.5 1008.83 2770.5 1010.39L2770.5 1074.86C2770.5 1077.94 2767.27 1079.95 2764.53 1078.56ZM2723.69 920.779L2658.45 953.5C2657.05 954.2 2656.17 955.641 2656.17 957.207L2656.17 1021.67C2656.17 1024.75 2659.4 1026.75 2662.15 1025.38L2727.39 992.657C2728.78 991.957 2729.67 990.516 2729.67 988.949L2729.67 924.472C2729.67 921.395 2726.44 919.394 2723.69 920.779ZM2388.85 1053.8L2282.78 1000.6C2281.38 999.903 2280.5 998.462 2280.5 996.895L2280.5 932.432C2280.5 929.355 2283.73 927.354 2286.48 928.725L2392.55 981.927C2393.95 982.626 2394.83 984.067 2394.83 985.634L2394.83 1050.1C2394.83 1053.17 2391.6 1055.17 2388.85 1053.8ZM2348.02 896.018L2282.78 928.739C2281.38 929.439 2280.5 930.866 2280.5 932.446L2280.5 996.909C2280.5 999.987 2283.73 1001.99 2286.48 1000.6L2351.72 967.881C2353.12 967.182 2354 965.755 2354 964.188L2354 899.711C2354 896.634 2350.77 894.633 2348.02 896.004L2348.02 896.018ZM2462.36 943.386L2356.29 890.185C2354.89 889.485 2354.01 888.058 2354.01 886.477L2354.01 822.028C2354.01 818.951 2357.24 816.936 2359.98 818.321L2466.05 871.509C2467.45 872.222 2468.34 873.649 2468.34 875.216L2468.34 939.679C2468.34 942.757 2465.11 944.771 2462.36 943.386ZM2421.52 785.6C2396.04 798.379 2381.76 805.543 2356.28 818.321C2354.88 819.021 2354 820.448 2354 822.028L2354 886.491C2354 889.569 2357.23 891.57 2359.98 890.199L2425.22 857.478C2426.62 856.764 2427.5 855.337 2427.5 853.77L2427.5 789.293C2427.5 786.216 2424.27 784.215 2421.52 785.586L2421.52 785.6Z" stroke="url(#paint1_radial_1759_876)" stroke-width="3" stroke-miterlimit="10"/>
</g>
</g>
<defs>
<filter id="filter0_f_1759_876" x="759" y="-2" width="2135" height="2135" filterUnits="userSpaceOnUse" color-interpolation-filters="sRGB">
<feFlood flood-opacity="0" result="BackgroundImageFix"/>
<feBlend mode="normal" in="SourceGraphic" in2="BackgroundImageFix" result="shape"/>
<feGaussianBlur stdDeviation="200" result="effect1_foregroundBlur_1759_876"/>
</filter>
<radialGradient id="paint0_radial_1759_876" cx="0" cy="0" r="1" gradientUnits="userSpaceOnUse" gradientTransform="translate(1127.5 1040.5) rotate(-180) scale(318.5 259.5)">
<stop stop-color="#9AC4FF"/>
<stop offset="1" stop-color="#9AC4FF" stop-opacity="0"/>
</radialGradient>
<radialGradient id="paint1_radial_1759_876" cx="0" cy="0" r="1" gradientUnits="userSpaceOnUse" gradientTransform="translate(2525.5 1040.5) rotate(-180) scale(318.5 259.5)">
<stop stop-color="#9AC4FF"/>
<stop offset="1" stop-color="#9AC4FF" stop-opacity="0"/>
</radialGradient>
<clipPath id="clip0_1759_876">
<rect width="3654" height="1135" fill="white"/>
</clipPath>
</defs>
</svg>
