<svg width="42" height="47" viewBox="0 0 42 47" fill="none" xmlns="http://www.w3.org/2000/svg">
<path d="M19.7522 34.6419C20.4844 35.2262 21.5214 35.2258 22.2531 34.6411L39.1736 21.1211L41.2383 19.4801C42.2525 18.674 42.2541 17.13 41.2416 16.3218L22.2532 1.16424C21.5214 0.58002 20.4846 0.58002 19.7528 1.16424L0.758309 16.3266C-0.252221 17.1333 -0.252873 18.6737 0.756974 19.4812L2.8077 21.1211L19.7522 34.6419Z" fill="#1F7FF0"/>
<path opacity="0.3" fill-rule="evenodd" clip-rule="evenodd" d="M22.2278 41.0784C21.496 41.6625 20.4595 41.6626 19.7276 41.0786L4.37488 28.8279C3.49876 28.1288 2.22222 28.2834 1.53691 29.1716L1.2546 29.5375C0.572516 30.4215 0.737538 31.6939 1.62237 32.3732L19.7785 46.3112C20.4987 46.864 21.4984 46.8641 22.2187 46.3114L40.3807 32.3742C41.2664 31.6945 41.4311 30.421 40.7476 29.5369L40.444 29.144C39.7582 28.2569 38.4824 28.1031 37.6068 28.802L22.2278 41.0784Z" fill="#1F7FF0"/>
</svg>
