<svg width="33" height="55" viewBox="0 0 33 55" fill="none" xmlns="http://www.w3.org/2000/svg">
<path opacity="0.3" fill-rule="evenodd" clip-rule="evenodd" d="M6.72203 4.40771C5.03443 4.40771 3.6665 5.78139 3.6665 7.4759V47.9759C3.6665 49.6705 5.03443 51.0441 6.72203 51.0441H26.2775C27.9651 51.0441 29.333 49.6705 29.333 47.9759V7.4759C29.333 5.78139 27.9651 4.40771 26.2775 4.40771H6.72203Z" fill="#3CB86C"/>
<path fill-rule="evenodd" clip-rule="evenodd" d="M6.72229 0.726074H26.2777C29.9903 0.726074 33 3.74815 33 7.47608V47.9761C33 51.704 29.9903 54.7261 26.2777 54.7261H6.72229C3.00969 54.7261 0 51.704 0 47.9761V7.47608C0 3.74815 3.00969 0.726074 6.72229 0.726074ZM6.72229 4.4079C5.03468 4.4079 3.66675 5.78157 3.66675 7.47608V47.9761C3.66675 49.6707 5.03468 51.0443 6.72229 51.0443H26.2777C27.9653 51.0443 29.3332 49.6707 29.3332 47.9761V7.47608C29.3332 5.78157 27.9653 4.4079 26.2777 4.4079H23.8333V3.06622C23.8333 2.7905 23.6107 2.56699 23.3361 2.56699H9.66386C9.38932 2.56699 9.16669 2.7905 9.16669 3.06622V4.4079H6.72229ZM9.16669 4.4079V6.97685C9.16669 7.25257 9.38932 7.47608 9.66386 7.47608H23.3361C23.6107 7.47608 23.8333 7.25257 23.8333 6.97685V4.4079H9.16669Z" fill="#3CB86C"/>
</svg>
