<svg width="47" height="38" viewBox="0 0 47 38" fill="none" xmlns="http://www.w3.org/2000/svg">
<path opacity="0.3" d="M44.9874 0.726074H9.43339C8.32192 0.726074 7.4209 1.62454 7.4209 2.73285V28.3193C7.4209 29.4276 8.32192 30.3261 9.43339 30.3261H44.9874C46.0988 30.3261 46.9998 29.4276 46.9998 28.3193V2.73285C46.9998 1.62454 46.0988 0.726074 44.9874 0.726074Z" fill="#F7326E"/>
<path d="M37.5665 8.12598H2.01249C0.901023 8.12598 0 9.02444 0 10.1328V35.7192C0 36.8275 0.901023 37.726 2.01249 37.726H37.5665C38.6779 37.726 39.5789 36.8275 39.5789 35.7192V10.1328C39.5789 9.02444 38.6779 8.12598 37.5665 8.12598Z" fill="#F7326E"/>
</svg>
