<svg width="54" height="40" viewBox="0 0 54 40" fill="none" xmlns="http://www.w3.org/2000/svg">
<path d="M16.2452 38.3515C16.2055 38.2814 16.17 38.2089 16.1391 38.1344C15.9258 37.6404 15.8603 37.0952 15.9504 36.5646H3.31688L22.0918 3.5237L28.2558 14.3595L30.0427 11.1973L24.6695 1.73179C24.412 1.24701 24.0371 0.834496 23.5791 0.531967C23.1211 0.229439 22.5945 0.0465428 22.0476 0C21.5018 0.0248108 20.9739 0.202307 20.524 0.512297C20.074 0.822287 19.7201 1.25233 19.5025 1.7535L0.482055 35.1952C0.197745 35.6674 0.0338188 36.2022 0.0046985 36.7526C-0.0244218 37.3029 0.0821556 37.852 0.315055 38.3515C0.607563 38.8128 1.02332 39.1831 1.5153 39.4203C2.00728 39.6576 2.55585 39.7525 3.09894 39.6942H19.0299C18.4867 39.7534 17.9378 39.6589 17.4457 39.4215C16.9535 39.1842 16.5379 38.8135 16.246 38.3515H16.2452Z" fill="#00C492"/>
<path d="M52.8716 35.1944L37.2413 7.66195C36.9848 7.17202 36.6092 6.75457 36.1489 6.44811C35.6886 6.14165 35.1586 5.95605 34.6077 5.90845C34.0625 5.93208 33.535 6.10847 33.0853 6.41748C32.6356 6.72649 32.2818 7.15569 32.0643 7.6561L30.0427 11.1965L31.8413 14.3595L34.6244 9.43215L50.0877 36.5638H44.2077C44.2828 37.0123 44.2405 37.4725 44.0849 37.8998C44.0521 37.9943 44.0111 38.0856 43.9622 38.1728L43.9121 38.273C43.5926 38.7242 43.167 39.0898 42.6727 39.3374C42.1784 39.5849 41.6307 39.7069 41.0781 39.6925H50.2764C50.8291 39.7074 51.377 39.5856 51.8713 39.338C52.3657 39.0903 52.7913 38.7246 53.1104 38.273C53.3623 37.7888 53.4735 37.2437 53.4313 36.6996C53.3891 36.1554 53.1952 35.634 52.8716 35.1944V35.1944Z" fill="#008776"/>
<path d="M43.9129 38.2738L43.963 38.1736C44.0116 38.0864 44.0524 37.995 44.0849 37.9006C44.2405 37.4733 44.2828 37.013 44.2077 36.5646C44.1209 36.0809 43.9472 35.6169 43.695 35.1952L31.853 14.3594L30.0436 11.1973L28.245 14.3594L16.4072 35.1952C16.1774 35.622 16.0229 36.0852 15.9504 36.5646C15.8551 37.0938 15.9152 37.6393 16.1233 38.1352C16.1541 38.2097 16.1896 38.2822 16.2293 38.3523C16.5219 38.8134 16.9377 39.1835 17.4297 39.4206C17.9217 39.6578 18.4702 39.7525 19.0132 39.6941H41.0614C41.6167 39.7106 42.1675 39.5896 42.6648 39.3419C43.1621 39.0943 43.5905 38.7277 43.9121 38.2746L43.9129 38.2738ZM30.0427 17.5224L40.8668 36.5637H19.2236L30.0427 17.5224Z" fill="#2D4A5D"/>
</svg>
