<svg width="34" height="40" viewBox="0 0 34 40" fill="none" xmlns="http://www.w3.org/2000/svg">
<path d="M20.2411 19.1032H12.1133V23.0019H20.0457C20.5148 23.0019 20.9444 22.8071 21.2959 22.4951C21.6086 22.1831 21.804 21.7154 21.804 21.1305C21.8153 20.6286 21.6645 20.1363 21.374 19.7268C21.0613 19.3374 20.7099 19.1032 20.2411 19.1032V19.1032ZM20.5148 14.3861C20.8662 14.1519 21.0226 13.6452 21.0226 12.9824C21.0226 12.3975 20.8662 11.9689 20.5926 11.696C20.319 11.4618 19.9672 11.3062 19.5766 11.3062H12.1133V14.8146H19.4203C19.8112 14.8146 20.2021 14.6199 20.5148 14.3861V14.3861Z" fill="#09B3AF"/>
<path d="M32.4325 0H1.75834C0.781798 0 0 0.779666 0 1.71534V32.3586C0 33.2943 0.781798 33.8792 1.71925 33.8792H6.2519V40L11.8787 33.9183H32.4325C33.3703 33.9183 33.9563 33.3334 33.9563 32.3586V1.75443C33.9563 0.818756 33.37 0.0390899 32.3935 0.0390899L32.4325 0ZM27.2745 24.8342C26.8836 25.536 26.2976 26.1206 25.5943 26.5499C24.8516 27.0175 24.0311 27.4465 23.0933 27.6412C22.1555 27.8754 21.1398 28.0701 20.0848 28.0701H6.2519V6.23768H21.9604C22.7418 6.23768 23.406 6.39404 24.0311 6.74479C24.6174 7.05644 25.1647 7.48536 25.5943 7.99211C26.4694 9.0565 26.9399 10.3961 26.9226 11.7739C26.9226 12.7874 26.649 13.7621 26.1412 14.6978C25.614 15.6394 24.7896 16.3797 23.7969 16.803C25.047 17.1541 26.0239 17.7777 26.7666 18.6743C27.4699 19.61 27.8214 20.8186 27.8214 22.3392C27.8214 23.3139 27.6259 24.1327 27.2354 24.8342H27.2745Z" fill="#09B3AF"/>
</svg>
