<svg width="150" height="150" viewBox="0 0 150 150" fill="none" xmlns="http://www.w3.org/2000/svg">
<rect width="150" height="150" rx="20" fill="#F7F7F7"/>
<path d="M16.0947 90.3921H20.7264V91.5868H17.4411V92.89H20.3494V94.0847H17.4411V95.4423H20.7803V96.6369H16.0947V90.3921Z" fill="#040413"/>
<path d="M21.7497 91.8581H23.0962V92.5641C23.15 92.4554 23.2577 92.3468 23.3655 92.2925C23.4732 92.1839 23.5809 92.1296 23.6886 92.021C23.7963 91.9667 23.904 91.9124 24.0656 91.8581C24.2272 91.8038 24.3349 91.8038 24.5503 91.8038C24.8735 91.8038 25.1428 91.8581 25.3582 92.021C25.5736 92.1296 25.7891 92.3468 25.8968 92.5641C26.1122 92.2925 26.3276 92.1296 26.5969 91.9667C26.8662 91.8581 27.1355 91.7495 27.4586 91.7495C27.9434 91.7495 28.3742 91.9124 28.6435 92.1839C28.9128 92.4554 29.0744 92.9442 29.0744 93.4872V96.6368H27.6741V93.9759C27.6741 93.6501 27.6202 93.4329 27.4586 93.27C27.2971 93.1071 27.1355 92.9985 26.8662 92.9985C26.5969 92.9985 26.4353 93.1071 26.2738 93.27C26.1122 93.4329 26.0583 93.7044 26.0583 93.9759V96.6368H24.7119V93.9759C24.7119 93.6501 24.658 93.4329 24.4965 93.27C24.3349 93.1071 24.1733 92.9985 23.904 92.9985C23.6347 92.9985 23.4732 93.1071 23.3116 93.27C23.15 93.4329 23.0962 93.7044 23.0962 93.9759V96.6368H21.7497V91.8581Z" fill="#040413"/>
<path d="M30.044 91.8583H31.3904V92.5642C31.552 92.347 31.7675 92.1298 31.9829 92.0212C32.1983 91.8583 32.5215 91.804 32.8446 91.804C33.1139 91.804 33.3832 91.8583 33.6525 91.9669C33.9218 92.0755 34.1372 92.2384 34.3526 92.4556C34.568 92.6728 34.7296 92.9443 34.8373 93.2158C34.9451 93.5416 34.9989 93.8675 34.9989 94.3019C34.9989 94.682 34.9451 95.0621 34.8373 95.3879C34.7296 95.7137 34.568 95.931 34.3526 96.1482C34.1372 96.3654 33.9218 96.5283 33.6525 96.6369C33.3832 96.7455 33.1139 96.7998 32.8446 96.7998C32.4676 96.7998 32.1983 96.7455 31.929 96.5826C31.7136 96.4197 31.4982 96.2568 31.3366 96.0939V98.1574H29.9902V91.8583H30.044ZM32.5215 95.6051C32.683 95.6051 32.8446 95.5508 32.9523 95.4965C33.1139 95.4422 33.2216 95.3336 33.3293 95.225C33.437 95.1164 33.5448 94.9535 33.5986 94.7906C33.6525 94.6277 33.7063 94.4648 33.7063 94.2476C33.7063 94.0304 33.6525 93.8675 33.5986 93.7046C33.5448 93.5416 33.437 93.3787 33.3293 93.2701C33.2216 93.1615 33.1139 93.0529 32.9523 92.9986C32.7907 92.9443 32.683 92.89 32.5215 92.89C32.3599 92.89 32.1983 92.9443 32.0906 92.9986C31.929 93.0529 31.8213 93.1615 31.7136 93.2701C31.6059 93.3787 31.552 93.5416 31.4443 93.7046C31.3904 93.8675 31.3366 94.0304 31.3366 94.2476C31.3366 94.4648 31.3904 94.6277 31.4443 94.7906C31.4982 94.9535 31.6059 95.1164 31.7136 95.225C31.8213 95.3336 31.929 95.4422 32.0906 95.4965C32.1983 95.5508 32.3599 95.6051 32.5215 95.6051Z" fill="#040413"/>
<path d="M35.9145 91.8581H37.2609V92.8356C37.4225 92.5097 37.584 92.2382 37.7995 92.021C38.0149 91.8038 38.338 91.7495 38.7689 91.7495V93.1614H38.715C38.2842 93.1614 37.9072 93.3243 37.6379 93.5958C37.3686 93.8673 37.2609 94.3017 37.2609 94.8991V96.6911H35.9145V91.8581Z" fill="#040413"/>
<path d="M41.7309 96.7454C41.3539 96.7454 41.0308 96.6911 40.7615 96.5825C40.4383 96.4738 40.169 96.3109 39.9536 96.0937C39.7382 95.8765 39.5766 95.605 39.415 95.3335C39.3073 95.0077 39.2535 94.6819 39.2535 94.3017C39.2535 93.9759 39.3073 93.6501 39.415 93.3243C39.5228 92.9985 39.6843 92.727 39.8998 92.5098C40.1152 92.2925 40.3306 92.1296 40.6538 91.9667C40.9231 91.8581 41.2462 91.7495 41.6232 91.7495C42.0002 91.7495 42.3772 91.8038 42.6465 91.9667C42.9158 92.1296 43.1851 92.2925 43.3466 92.5641C43.5621 92.7813 43.6698 93.1071 43.7775 93.3786C43.8852 93.7044 43.9391 94.0302 43.9391 94.356C43.9391 94.4103 43.9391 94.4646 43.9391 94.519C43.9391 94.5733 43.9391 94.6276 43.9391 94.6819H40.5999C40.6538 95.0077 40.8153 95.2249 41.0308 95.3878C41.2462 95.5507 41.4616 95.605 41.7848 95.605C42.0002 95.605 42.2156 95.5507 42.3772 95.4964C42.5388 95.4421 42.7542 95.2792 42.9158 95.1163L43.6698 95.8222C43.4544 96.0937 43.1851 96.3109 42.8619 96.4738C42.5388 96.6911 42.1618 96.7454 41.7309 96.7454ZM42.5926 93.8673C42.5388 93.5415 42.4311 93.3243 42.2695 93.1071C42.1079 92.9442 41.8925 92.8356 41.5693 92.8356C41.3001 92.8356 41.0308 92.9442 40.8692 93.1071C40.7076 93.27 40.5999 93.5415 40.546 93.8673H42.5926Z" fill="#040413"/>
<path d="M46.4704 96.7455C46.1473 96.7455 45.7703 96.6912 45.4471 96.5826C45.0701 96.474 44.747 96.2568 44.4238 96.0396L45.0163 95.1708C45.2856 95.388 45.5548 95.4966 45.7703 95.6052C46.0396 95.7138 46.255 95.7681 46.4704 95.7681C46.6859 95.7681 46.7936 95.7138 46.9013 95.6595C47.009 95.6052 47.0629 95.4966 47.0629 95.388C47.0629 95.3337 47.009 95.2794 47.009 95.2251C46.9552 95.1708 46.9013 95.1165 46.7936 95.0622C46.6859 95.0079 46.5781 95.0079 46.4704 94.9536C46.3627 94.8992 46.2011 94.8993 46.0934 94.8449C45.9319 94.7906 45.7703 94.7363 45.6087 94.682C45.4471 94.6277 45.2856 94.5191 45.1778 94.4105C45.0163 94.3019 44.9086 94.139 44.8547 94.0304C44.747 93.8675 44.747 93.6503 44.747 93.4331C44.747 93.2159 44.8008 92.9987 44.9086 92.7814C45.0163 92.6185 45.124 92.4556 45.2856 92.2927C45.4471 92.1841 45.6087 92.0755 45.8241 92.0212C46.0396 91.9669 46.255 91.9126 46.5243 91.9126C46.8474 91.9126 47.1167 91.9669 47.4399 92.0755C47.763 92.1841 48.0323 92.2927 48.3016 92.5099L47.763 93.4331C47.5476 93.2702 47.2783 93.1616 47.0629 93.1073C46.8474 93.053 46.632 92.9987 46.4704 92.9987C46.3089 92.9987 46.2011 93.053 46.0934 93.1073C45.9857 93.1616 45.9857 93.2702 45.9857 93.3245C45.9857 93.3788 45.9857 93.4331 46.0396 93.4874C46.0934 93.5417 46.1473 93.596 46.255 93.6503C46.3627 93.7046 46.4704 93.7589 46.5781 93.7589C46.6859 93.8132 46.7936 93.8675 46.9552 93.8675C47.1167 93.9218 47.2783 93.9761 47.4399 94.0847C47.6014 94.139 47.763 94.2476 47.9246 94.3562C48.0862 94.4648 48.1939 94.5734 48.2477 94.7363C48.3555 94.8992 48.3555 95.0622 48.3555 95.2794C48.3555 95.5509 48.3016 95.7681 48.1939 95.9853C48.0862 96.2025 47.9784 96.3654 47.8169 96.474C47.6553 96.5826 47.4399 96.6912 47.2244 96.7455C46.9552 96.6912 46.7397 96.7455 46.4704 96.7455Z" fill="#040413"/>
<path d="M50.456 96.7455C50.2406 96.7455 50.0252 96.6912 49.8097 96.6369C49.5943 96.5826 49.4327 96.474 49.2712 96.3654C49.1096 96.2568 49.0019 96.0939 48.948 95.931C48.8403 95.7681 48.8403 95.5508 48.8403 95.2793C48.8403 95.0078 48.8941 94.7906 49.0019 94.5734C49.1096 94.3562 49.2173 94.2476 49.3789 94.0847C49.5404 93.9761 49.7559 93.8675 49.9713 93.8132C50.1867 93.7589 50.456 93.7045 50.7253 93.7045C50.9946 93.7045 51.1562 93.7045 51.3716 93.7589C51.5332 93.8132 51.7486 93.8675 51.9102 93.9218V93.8675C51.9102 93.5959 51.8025 93.3787 51.6409 93.2158C51.4793 93.0529 51.21 92.9986 50.8869 92.9986C50.6176 92.9986 50.4022 92.9986 50.1867 93.0529C49.9713 93.1072 49.7559 93.1615 49.5404 93.2701L49.2173 92.1841C49.4866 92.0755 49.7559 91.9669 50.0252 91.9126C50.2945 91.8583 50.6715 91.804 51.0485 91.804C51.4255 91.804 51.7486 91.8583 52.0179 91.9669C52.2872 92.0755 52.5026 92.1841 52.6642 92.347C52.8258 92.5099 52.9873 92.7271 53.0412 92.9986C53.1489 93.2701 53.1489 93.5416 53.1489 93.8675V96.6369H51.9102V96.0939C51.7486 96.2568 51.5332 96.4197 51.3177 96.5283C51.1023 96.6912 50.7792 96.7455 50.456 96.7455ZM50.8869 95.8224C51.21 95.8224 51.4793 95.7681 51.6409 95.6051C51.8563 95.4422 51.9102 95.225 51.9102 95.0078V94.7906C51.8025 94.7363 51.6409 94.682 51.5332 94.682C51.3716 94.6277 51.21 94.6277 51.0485 94.6277C50.7792 94.6277 50.5099 94.682 50.3483 94.7906C50.1867 94.8992 50.079 95.0621 50.079 95.2793C50.079 95.4422 50.1329 95.6051 50.2945 95.7137C50.456 95.768 50.6715 95.8224 50.8869 95.8224Z" fill="#040413"/>
<path d="M59.1269 96.7455C58.6422 96.7455 58.2113 96.6369 57.7266 96.474C57.2958 96.3111 56.8649 96.0396 56.4879 95.7138L57.2958 94.7363C57.5651 94.9535 57.8882 95.1707 58.1575 95.2793C58.4806 95.4423 58.8038 95.4966 59.1269 95.4966C59.3962 95.4966 59.6116 95.4423 59.7732 95.3336C59.9348 95.225 59.9886 95.0621 59.9886 94.8992C59.9886 94.7906 59.9886 94.7363 59.9348 94.682C59.8809 94.6277 59.8271 94.5734 59.7732 94.4648C59.6655 94.4105 59.5578 94.3562 59.3962 94.3019C59.2346 94.2476 59.0192 94.1933 58.7499 94.139C58.4268 94.0847 58.1575 93.9761 57.8882 93.8675C57.6189 93.7589 57.4035 93.6503 57.2419 93.5417C57.0803 93.3787 56.9188 93.2158 56.811 92.9986C56.7033 92.7814 56.6495 92.5099 56.6495 92.2384C56.6495 91.9669 56.7033 91.6954 56.811 91.4781C56.9188 91.2609 57.0803 91.0437 57.2419 90.8808C57.4573 90.7179 57.6728 90.6093 57.9421 90.5007C58.2113 90.3921 58.4806 90.3921 58.8038 90.3921C59.2346 90.3921 59.6655 90.4464 60.0425 90.6093C60.4195 90.7722 60.7965 90.9351 61.1197 91.2066L60.4195 92.2384C60.1502 92.0212 59.8809 91.9126 59.6116 91.804C59.3424 91.6954 59.0731 91.6411 58.8038 91.6411C58.5345 91.6411 58.3191 91.6954 58.2113 91.804C58.1036 91.9126 57.9959 92.0212 57.9959 92.1841C57.9959 92.2927 57.9959 92.347 58.0498 92.4556C58.1036 92.5099 58.1575 92.6185 58.2652 92.6728C58.3729 92.7271 58.4806 92.7814 58.6961 92.8357C58.8576 92.89 59.0731 92.9443 59.3424 92.9986C59.6655 93.1072 59.9348 93.1615 60.2041 93.2701C60.4734 93.3787 60.6349 93.4873 60.8504 93.6503C61.0119 93.8132 61.1735 93.9761 61.2274 94.139C61.3351 94.3562 61.3351 94.5734 61.3351 94.8449C61.3351 95.1707 61.2812 95.4423 61.1735 95.6595C61.0658 95.8767 60.9042 96.0939 60.6888 96.2568C60.4734 96.4197 60.2579 96.5283 59.9886 96.6369C59.7732 96.6912 59.4501 96.7455 59.1269 96.7455Z" fill="#040413"/>
<path d="M63.6511 96.7454C63.4357 96.7454 63.2203 96.6911 63.0048 96.6368C62.7894 96.5825 62.6278 96.4739 62.4663 96.3653C62.3047 96.2567 62.197 96.0938 62.0893 95.9309C61.9815 95.768 61.9815 95.5507 61.9815 95.2792C61.9815 95.0077 62.0354 94.7905 62.1431 94.5733C62.2508 94.3561 62.3585 94.2475 62.5201 94.0846C62.6817 93.976 62.8971 93.8674 63.1125 93.8131C63.328 93.7587 63.5973 93.7044 63.8665 93.7044C64.1358 93.7044 64.2974 93.7044 64.5128 93.7587C64.6744 93.8131 64.8898 93.8674 65.0514 93.9217V93.8674C65.0514 93.5958 64.9437 93.3786 64.7821 93.2157C64.6206 93.0528 64.3513 92.9985 64.0281 92.9985C63.7588 92.9985 63.5434 92.9985 63.328 93.0528C63.1125 93.1071 62.8971 93.1614 62.6817 93.27L62.3585 92.2383C62.6278 92.1297 62.8971 92.0211 63.1664 91.9668C63.4357 91.9125 63.8127 91.8582 64.1897 91.8582C64.5667 91.8582 64.8898 91.9125 65.1591 92.0211C65.4284 92.1297 65.6439 92.2383 65.8054 92.4012C65.967 92.5641 66.1286 92.7813 66.1824 93.0528C66.2901 93.3243 66.2901 93.5958 66.2901 93.9217V96.6911H64.9976V96.1481C64.836 96.311 64.6206 96.4739 64.4051 96.5825C64.2974 96.6911 63.9743 96.7454 63.6511 96.7454ZM64.082 95.8223C64.4051 95.8223 64.6744 95.768 64.836 95.605C65.0514 95.4421 65.1053 95.2249 65.1053 95.0077V94.7905C64.9976 94.7362 64.836 94.6819 64.7283 94.6819C64.5667 94.6276 64.4051 94.6276 64.2436 94.6276C63.9743 94.6276 63.705 94.6819 63.5434 94.7905C63.3818 94.8991 63.2741 95.062 63.2741 95.2792C63.2741 95.4421 63.328 95.605 63.4895 95.7136C63.705 95.7679 63.8666 95.8223 64.082 95.8223Z" fill="#040413"/>
<path d="M68.8752 90.1206H67.5287V96.6369H68.8752V90.1206Z" fill="#040413"/>
<path d="M69.5754 91.8582H70.9757L72.0529 95.062L73.13 91.8582H74.5303L72.6453 96.6911H71.4605L69.5754 91.8582Z" fill="#040413"/>
<path d="M76.523 96.7454C76.3076 96.7454 76.0922 96.6911 75.8768 96.6368C75.6613 96.5825 75.4997 96.4739 75.3382 96.3653C75.1766 96.2567 75.0689 96.0938 75.015 95.9309C74.9073 95.768 74.9073 95.5507 74.9073 95.2792C74.9073 95.0077 74.9612 94.7905 75.0689 94.5733C75.1766 94.3561 75.2843 94.2475 75.4459 94.0846C75.6075 93.976 75.8229 93.8674 76.0383 93.8131C76.2538 93.7587 76.523 93.7044 76.7923 93.7044C77.0616 93.7044 77.2232 93.7044 77.4386 93.7587C77.6002 93.8131 77.8156 93.8674 77.9772 93.9217V93.8674C77.9772 93.5958 77.8695 93.3786 77.7079 93.2157C77.5463 93.0528 77.2771 92.9985 76.9539 92.9985C76.6846 92.9985 76.4692 92.9985 76.2538 93.0528C76.0383 93.1071 75.8229 93.1614 75.6075 93.27L75.2843 92.2383C75.5536 92.1297 75.8229 92.0211 76.0922 91.9668C76.3615 91.9125 76.7385 91.8582 77.1155 91.8582C77.4925 91.8582 77.8156 91.9125 78.0849 92.0211C78.3542 92.1297 78.5696 92.2383 78.7312 92.4012C78.8928 92.5641 79.0544 92.7813 79.1082 93.0528C79.2159 93.3243 79.2159 93.5958 79.2159 93.9217V96.6911H77.9233V96.1481C77.7618 96.311 77.5463 96.4739 77.3309 96.5825C77.1693 96.6911 76.8462 96.7454 76.523 96.7454ZM76.9539 95.8223C77.2771 95.8223 77.5463 95.768 77.7079 95.605C77.9233 95.4421 77.9772 95.2249 77.9772 95.0077V94.7905C77.8695 94.7362 77.7079 94.6819 77.6002 94.6819C77.4386 94.6276 77.2771 94.6276 77.1155 94.6276C76.8462 94.6276 76.5769 94.6819 76.4153 94.7905C76.2538 94.8991 76.146 95.062 76.146 95.2792C76.146 95.4421 76.1999 95.605 76.3615 95.7136C76.523 95.7679 76.7385 95.8223 76.9539 95.8223Z" fill="#040413"/>
<path d="M82.2321 96.7454C81.9628 96.7454 81.6935 96.6911 81.4242 96.5825C81.1549 96.4739 80.9395 96.311 80.724 96.0938C80.5086 95.8766 80.347 95.605 80.2393 95.3335C80.1316 95.0077 80.0778 94.6819 80.0778 94.2475C80.0778 93.8674 80.1316 93.4872 80.2393 93.1614C80.347 92.8356 80.5086 92.6184 80.724 92.4012C80.9395 92.184 81.1549 92.0211 81.4242 91.9125C81.6935 91.8039 81.9628 91.7495 82.2321 91.7495C82.6091 91.7495 82.8784 91.8038 83.1476 91.9668C83.3631 92.1297 83.5785 92.2926 83.7401 92.4555V90.0662H85.0865V96.5825H83.7401V95.9852C83.5785 96.2024 83.3631 96.4196 83.1476 96.5282C82.9322 96.6911 82.6091 96.7454 82.2321 96.7454ZM82.6091 95.605C82.7706 95.605 82.9322 95.5507 83.0399 95.4964C83.2015 95.4421 83.3092 95.3335 83.4169 95.2249C83.5246 95.1163 83.5785 94.9534 83.6862 94.7905C83.7401 94.6276 83.7939 94.4647 83.7939 94.2475C83.7939 94.0303 83.7401 93.8674 83.6862 93.7044C83.6324 93.5415 83.5246 93.3786 83.4169 93.27C83.3092 93.1614 83.2015 93.0528 83.0399 92.9985C82.8784 92.9442 82.7706 92.8899 82.6091 92.8899C82.4475 92.8899 82.2859 92.9442 82.1782 92.9985C82.0166 93.0528 81.9089 93.1614 81.8012 93.27C81.6935 93.3786 81.5858 93.5415 81.5319 93.7044C81.4781 93.8674 81.4242 94.0303 81.4242 94.2475C81.4242 94.4647 81.4781 94.6276 81.5319 94.7905C81.5858 94.9534 81.6935 95.1163 81.8012 95.2249C81.9089 95.3335 82.0166 95.4421 82.1782 95.4964C82.2859 95.5507 82.4475 95.605 82.6091 95.605Z" fill="#040413"/>
<path d="M88.4794 96.7453C88.1024 96.7453 87.7792 96.691 87.4561 96.5281C87.1329 96.4195 86.8636 96.2023 86.6482 95.9851C86.4328 95.7679 86.2173 95.4964 86.1096 95.1705C86.0019 94.8447 85.8942 94.5189 85.8942 94.1931C85.8942 93.8673 85.948 93.5415 86.1096 93.2157C86.2173 92.8898 86.4328 92.6726 86.6482 92.4011C86.8636 92.1839 87.1329 92.021 87.4561 91.8581C87.7792 91.7495 88.1024 91.6409 88.4794 91.6409C88.8564 91.6409 89.1795 91.6952 89.5027 91.8581C89.8258 91.9667 90.0951 92.1839 90.3105 92.4011C90.5259 92.6183 90.7414 92.8898 90.8491 93.2157C90.9568 93.5415 91.0645 93.8673 91.0645 94.1931C91.0645 94.5189 91.0107 94.8447 90.8491 95.1705C90.7414 95.4964 90.5259 95.7136 90.3105 95.9851C90.0951 96.2023 89.8258 96.3652 89.5027 96.5281C89.2334 96.691 88.8564 96.7453 88.4794 96.7453ZM88.5332 95.605C88.7486 95.605 88.9102 95.5507 89.0718 95.4964C89.2334 95.4421 89.3411 95.3335 89.4488 95.2249C89.5565 95.1162 89.6104 94.9533 89.7181 94.7904C89.7719 94.6275 89.8258 94.4646 89.8258 94.3017C89.8258 94.1388 89.7719 93.9759 89.7181 93.813C89.6642 93.6501 89.5565 93.5415 89.4488 93.3786C89.3411 93.27 89.1795 93.1613 89.0718 93.107C88.9102 93.0527 88.7486 92.9984 88.5871 92.9984C88.3716 92.9984 88.2101 93.0527 88.0485 93.107C87.8869 93.1613 87.7792 93.27 87.6715 93.3786C87.5638 93.4872 87.5099 93.6501 87.4022 93.813C87.3483 93.9759 87.2945 94.1388 87.2945 94.3017C87.2945 94.4646 87.3483 94.6275 87.4022 94.7904C87.4561 94.9533 87.5638 95.1162 87.6715 95.2249C87.7792 95.3335 87.9408 95.4421 88.0485 95.4964C88.1562 95.5507 88.3178 95.605 88.5332 95.605Z" fill="#040413"/>
<path d="M91.9265 91.8581H93.2729V92.8356C93.4345 92.5097 93.5961 92.2382 93.8115 92.021C94.0269 91.8038 94.3501 91.7495 94.7809 91.7495V93.1614H94.7271C94.2962 93.1614 93.9192 93.3243 93.6499 93.5958C93.3806 93.8673 93.2729 94.3017 93.2729 94.8991V96.6911H91.9265V91.8581Z" fill="#040413"/>
<path d="M99.6279 91.6411H97.7429V90.3921H102.859V91.6411H100.974V96.6369H99.6279V91.6411Z" fill="#040413"/>
<path d="M105.229 96.7454C104.691 96.7454 104.314 96.5825 104.044 96.2567C103.775 95.9309 103.613 95.4964 103.613 94.9534V91.8582H104.96V94.519C104.96 94.8448 105.014 95.062 105.175 95.2249C105.337 95.3878 105.498 95.4964 105.768 95.4964C106.037 95.4964 106.252 95.3878 106.36 95.2249C106.522 95.062 106.576 94.8448 106.576 94.519V91.8582H107.922V96.6368H106.576V95.9852C106.522 96.0938 106.414 96.2024 106.306 96.2567C106.199 96.3653 106.091 96.4196 105.983 96.5282C105.875 96.5825 105.768 96.6368 105.606 96.6911C105.552 96.7454 105.391 96.7454 105.229 96.7454Z" fill="#040413"/>
<path d="M109.053 91.8581H110.399V92.8356C110.561 92.5097 110.723 92.2382 110.938 92.021C111.154 91.8038 111.477 91.7495 111.908 91.7495V93.1614H111.854C111.423 93.1614 111.046 93.3243 110.776 93.5958C110.507 93.8673 110.399 94.3017 110.399 94.8991V96.6911H109.053V91.8581Z" fill="#040413"/>
<path d="M112.662 90.1206H114.062V91.3153H112.662V90.1206ZM112.715 91.8583H114.062V96.6369H112.715V91.8583Z" fill="#040413"/>
<path d="M116.863 96.7455C116.539 96.7455 116.162 96.6912 115.839 96.5826C115.462 96.474 115.139 96.2568 114.816 96.0396L115.408 95.1708C115.678 95.388 115.947 95.4966 116.162 95.6052C116.432 95.7138 116.647 95.7681 116.863 95.7681C117.078 95.7681 117.186 95.7138 117.293 95.6595C117.401 95.6052 117.455 95.4966 117.455 95.388C117.455 95.3337 117.401 95.2794 117.347 95.2251C117.293 95.1708 117.24 95.1165 117.132 95.0622C117.024 95.0079 116.916 95.0079 116.809 94.9536C116.701 94.8992 116.539 94.8993 116.432 94.8449C116.27 94.7906 116.109 94.7363 115.947 94.682C115.785 94.6277 115.624 94.5191 115.462 94.4105C115.301 94.3019 115.193 94.139 115.139 94.0304C115.031 93.8675 115.031 93.6503 115.031 93.4331C115.031 93.2159 115.085 92.9987 115.193 92.7814C115.301 92.6185 115.408 92.4556 115.57 92.2927C115.732 92.1841 115.893 92.0755 116.109 92.0212C116.324 91.9669 116.539 91.9126 116.809 91.9126C117.132 91.9126 117.401 91.9669 117.724 92.0755C118.047 92.1841 118.317 92.2927 118.586 92.5099L118.047 93.4331C117.832 93.2702 117.563 93.1616 117.347 93.1073C117.132 93.053 116.916 92.9987 116.755 92.9987C116.593 92.9987 116.486 93.053 116.378 93.1073C116.27 93.1616 116.27 93.2702 116.27 93.3245C116.27 93.3788 116.27 93.4331 116.378 93.4874C116.432 93.5417 116.486 93.596 116.593 93.6503C116.701 93.7046 116.809 93.7589 116.916 93.7589C117.024 93.8132 117.132 93.8675 117.293 93.8675C117.455 93.9218 117.617 93.9761 117.778 94.0847C117.94 94.139 118.101 94.2476 118.263 94.3562C118.424 94.4648 118.532 94.5734 118.586 94.7363C118.694 94.8992 118.694 95.0622 118.694 95.2794C118.694 95.5509 118.64 95.7681 118.532 95.9853C118.424 96.2025 118.317 96.3654 118.155 96.474C117.994 96.5826 117.778 96.6912 117.563 96.7455C117.347 96.6912 117.078 96.7455 116.863 96.7455Z" fill="#040413"/>
<path d="M119.501 91.8581H120.848V92.5641C120.902 92.4554 121.009 92.3468 121.117 92.2925C121.225 92.1839 121.333 92.1296 121.44 92.021C121.548 91.9667 121.656 91.9124 121.817 91.8581C121.979 91.8038 122.087 91.8038 122.302 91.8038C122.625 91.8038 122.894 91.8581 123.11 92.021C123.325 92.1296 123.541 92.3468 123.648 92.5641C123.864 92.2925 124.079 92.1296 124.349 91.9667C124.618 91.8581 124.887 91.7495 125.21 91.7495C125.695 91.7495 126.126 91.9124 126.395 92.1839C126.664 92.4554 126.826 92.9442 126.826 93.4872V96.6368H125.48V93.9759C125.48 93.6501 125.426 93.4329 125.264 93.27C125.103 93.1071 124.941 92.9985 124.672 92.9985C124.402 92.9985 124.241 93.1071 124.079 93.27C123.918 93.4329 123.864 93.7044 123.864 93.9759V96.6368H122.464V93.9759C122.464 93.6501 122.41 93.4329 122.248 93.27C122.087 93.1071 121.925 92.9985 121.656 92.9985C121.386 92.9985 121.225 93.1071 121.063 93.27C120.902 93.4329 120.848 93.7044 120.848 93.9759V96.6368H119.501V91.8581Z" fill="#040413"/>
<path d="M130.112 96.7453C129.735 96.7453 129.411 96.691 129.088 96.5281C128.765 96.4195 128.496 96.2023 128.28 95.9851C128.065 95.7679 127.85 95.4964 127.742 95.1705C127.634 94.8447 127.526 94.5189 127.526 94.1931C127.526 93.8673 127.58 93.5415 127.742 93.2157C127.85 92.8898 128.065 92.6726 128.28 92.4011C128.496 92.1839 128.765 92.021 129.088 91.8581C129.411 91.7495 129.735 91.6409 130.112 91.6409C130.489 91.6409 130.812 91.6952 131.135 91.8581C131.458 91.9667 131.727 92.1839 131.943 92.4011C132.158 92.6183 132.374 92.8898 132.481 93.2157C132.589 93.5415 132.697 93.8673 132.697 94.1931C132.697 94.5189 132.643 94.8447 132.481 95.1705C132.374 95.4964 132.158 95.7136 131.943 95.9851C131.727 96.2023 131.458 96.3652 131.135 96.5281C130.866 96.691 130.489 96.7453 130.112 96.7453ZM130.165 95.605C130.381 95.605 130.542 95.5507 130.704 95.4964C130.866 95.4421 130.973 95.3335 131.081 95.2249C131.189 95.1162 131.243 94.9533 131.35 94.7904C131.404 94.6275 131.458 94.4646 131.458 94.3017C131.458 94.1388 131.404 93.9759 131.35 93.813C131.296 93.6501 131.189 93.5415 131.081 93.3786C130.973 93.27 130.812 93.1613 130.704 93.107C130.542 93.0527 130.381 92.9984 130.219 92.9984C130.004 92.9984 129.842 93.0527 129.681 93.107C129.519 93.1613 129.411 93.27 129.304 93.3786C129.196 93.4872 129.088 93.6501 129.034 93.813C128.981 93.9759 128.927 94.1388 128.927 94.3017C128.927 94.4646 128.981 94.6275 129.034 94.7904C129.088 94.9533 129.196 95.1162 129.304 95.2249C129.411 95.3335 129.573 95.4421 129.681 95.4964C129.788 95.5507 129.95 95.605 130.165 95.605Z" fill="#040413"/>
<path d="M31.4457 81.5896C30.0466 83.0243 27.6402 84 24.5622 84C21.4842 84 19.1337 83.0817 17.7346 81.647C16.1676 80.04 15.6639 77.8017 15.6639 74.473H21.9319C21.9319 75.793 22.0438 76.7687 22.6034 77.4C22.9392 77.8017 23.5548 78.1461 24.5622 78.1461C25.5136 78.1461 26.1292 77.8591 26.5769 77.3426C27.0246 76.8261 27.1925 75.9078 27.1925 74.6452C27.1925 71.5461 26.6888 71.0296 24.4503 70.0539L20.4768 68.3896C17.2869 67.0122 15.9438 65.2904 15.9438 60.24C15.9438 57.2557 16.8951 54.7304 18.7979 53.0661C20.3089 51.7461 22.2117 51 24.6181 51C27.4163 51 29.431 51.7461 30.8301 53.0661C32.565 54.673 33.2925 57.313 33.2925 60.5843H26.9127C26.9127 59.4365 26.9127 58.4035 26.353 57.6574C26.0172 57.1409 25.4576 56.8539 24.5622 56.8539C23.6668 56.8539 23.1071 57.1983 22.7713 57.7148C22.3796 58.2313 22.2677 58.92 22.2677 60.0104C22.2677 62.0765 22.6034 62.6504 24.4503 63.3965L28.3677 65.0035C32.3412 66.6678 33.5164 68.5043 33.5164 74.3583C33.4604 77.687 33.0687 79.9252 31.4457 81.5896Z" fill="#0E61A6"/>
<path d="M50.6473 84L49.6208 78.8419H42.2071L41.1806 84H34.5082L42.7203 51H49.0505L57.3197 84H50.6473ZM45.9139 60.6714L43.4047 72.9218H48.3662L45.9139 60.6714Z" fill="#0E61A6"/>
<path d="M59.3033 84V51H65.7691V78.0799H74.1803V84H59.3033Z" fill="#0E61A6"/>
<path d="M84.4333 56.9201V84H77.8126V56.9201H72.1967V51H90.0492V56.9201H84.4333Z" fill="#0E61A6"/>
<path d="M107.527 81.2789C105.843 83.0737 103.598 84 100.959 84C98.3204 84 96.0749 83.0737 94.3907 81.2789C92.8749 79.6579 92.0328 77.4579 92.0328 74.8526V51H98.3204V75.2C98.3204 77.2842 99.4994 78.1526 100.959 78.1526C102.363 78.1526 103.598 77.3421 103.598 75.2V51H109.885V74.8526C109.885 77.4579 108.987 79.6579 107.527 81.2789Z" fill="#0E61A6"/>
<path d="M126.079 83.9415L122.209 71.1277H120.134V83.9415H113.852V51H122.882C129.78 51 131.687 54.7447 131.687 61.0638C131.687 64.5745 131.182 67.734 128.098 69.7234L132.697 84H126.079V83.9415ZM122.77 56.9096H120.134V65.2181H122.77C125.181 65.2181 125.294 62.9362 125.294 61.0638C125.35 59.133 125.181 56.9096 122.77 56.9096Z" fill="#0E61A6"/>
</svg>
