<svg width="150" height="150" viewBox="0 0 150 150" fill="none" xmlns="http://www.w3.org/2000/svg">
<rect width="150" height="150" rx="20" fill="#040413"/>
<path d="M75.171 88.259H76.0806V92.261C76.0806 92.9523 76.0078 93.5162 75.8441 93.9164C75.6804 94.3166 75.4075 94.6622 74.9891 94.9169C74.5707 95.1716 74.0432 95.2989 73.3701 95.2989C72.7153 95.2989 72.1877 95.1898 71.7875 94.9715C71.3691 94.7532 71.0781 94.4258 70.8962 94.0074C70.7142 93.589 70.6233 93.0069 70.6233 92.2792V88.2772H71.5328V92.261C71.5328 92.8613 71.5874 93.2979 71.6966 93.589C71.8057 93.88 72.0058 94.0983 72.2787 94.2439C72.5515 94.3894 72.879 94.4803 73.2792 94.4803C73.9522 94.4803 74.4252 94.3348 74.7163 94.0256C75.0073 93.7163 75.1528 93.1342 75.1528 92.261L75.171 88.259ZM90.1058 95.1716V88.259H94.7627V89.0776H91.0153V91.2242H94.2533V92.0427H91.0153V95.1898L90.1058 95.1716ZM108.37 95.1716V88.259H110.971C111.498 88.259 111.917 88.3318 112.244 88.4591C112.572 88.6047 112.808 88.823 112.99 89.114C113.172 89.4051 113.263 89.7143 113.263 90.0236C113.263 90.3146 113.19 90.6057 113.026 90.8603C112.863 91.115 112.626 91.3333 112.299 91.497C112.717 91.6244 113.045 91.8245 113.263 92.1155C113.481 92.4066 113.608 92.7522 113.608 93.1706C113.608 93.498 113.536 93.7891 113.408 94.0801C113.281 94.3712 113.099 94.5713 112.899 94.7168C112.699 94.8623 112.444 94.9897 112.135 95.0624C111.826 95.1352 111.462 95.1716 111.025 95.1716H108.37ZM109.279 91.1696H110.771C111.171 91.1696 111.462 91.1332 111.644 91.0968C111.88 91.0241 112.044 90.9149 112.171 90.7512C112.281 90.5875 112.353 90.3874 112.353 90.1509C112.353 89.9144 112.299 89.7143 112.19 89.5506C112.08 89.3687 111.917 89.2595 111.717 89.1868C111.517 89.114 111.153 89.0958 110.662 89.0958H109.279V91.1696ZM109.279 94.353H111.007C111.298 94.353 111.517 94.3348 111.626 94.3166C111.844 94.2802 112.008 94.2075 112.153 94.1347C112.299 94.0438 112.408 93.9164 112.499 93.7527C112.59 93.589 112.644 93.3889 112.644 93.1706C112.644 92.9159 112.572 92.6976 112.444 92.4975C112.317 92.3156 112.135 92.1701 111.899 92.0973C111.662 92.0246 111.335 91.9882 110.88 91.9882H109.279V94.353ZM126.524 95.1716L129.18 88.259H130.162L133 95.1716H131.963L131.163 93.0796H128.27L127.506 95.1716H126.524ZM128.525 92.3338H130.872L130.144 90.4238C129.926 89.8416 129.762 89.3687 129.653 88.9867C129.562 89.4233 129.435 89.878 129.271 90.3146L128.525 92.3338Z" fill="#FAFAFA"/>
<path d="M73.4066 82.7472H70.6597V67.2849H73.4066V82.7472ZM73.7704 62.7554C73.7704 63.3011 73.6067 63.7377 73.2974 64.0651C72.9882 64.3926 72.5516 64.5745 72.024 64.5745C71.5147 64.5745 71.1145 64.4107 70.7871 64.0651C70.4596 63.7195 70.2959 63.2829 70.2959 62.7554C70.2959 62.2278 70.4596 61.7913 70.7871 61.4456C71.1145 61.1 71.5329 60.9363 72.024 60.9363C72.5516 60.9363 72.97 61.1 73.2974 61.4456C73.6067 61.7913 73.7704 62.2278 73.7704 62.7554ZM77.4449 82.7472V71.4143C77.4449 70.3228 77.4086 68.9403 77.3176 67.2849H79.737L79.8643 69.486H79.9371C80.9012 67.8306 82.3383 66.9939 84.2847 66.9939C85.6491 66.9939 86.7587 67.5032 87.6137 68.5401C88.4686 69.5588 88.887 71.0504 88.887 72.9787V82.7472H86.1402V73.3607C86.1402 70.6502 85.1943 69.3041 83.3206 69.3041C82.4293 69.3041 81.7016 69.6679 81.1013 70.4138C80.501 71.1414 80.1918 72.1055 80.1918 73.2697V82.7472H77.4449ZM96.0361 82.7472H93.2893V69.3587H91.2519V67.2849H93.2893V66.4481C93.2893 64.9929 93.5075 63.8104 93.9441 62.8463C94.3807 61.9004 94.981 61.191 95.7632 60.7362C96.5454 60.2814 97.4004 60.0449 98.3463 60.0449C99.1831 60.0449 99.9108 60.1904 100.547 60.4633L100.165 62.5735C99.7107 62.3734 99.1831 62.2824 98.601 62.2824C96.8911 62.2824 96.0543 63.6467 96.0543 66.3754V67.2667H99.3105V69.3405H96.0543V82.7472H96.0361ZM112.863 74.9251C112.863 76.6169 112.59 78.0721 112.044 79.2909C111.498 80.5097 110.716 81.4375 109.716 82.0742C108.715 82.7108 107.624 83.0383 106.441 83.0383C104.568 83.0383 103.058 82.3288 101.894 80.9099C100.729 79.491 100.147 77.5446 100.147 75.0888C100.147 72.5057 100.766 70.5047 102.003 69.104C103.24 67.7033 104.768 67.0121 106.641 67.0121C108.515 67.0121 110.025 67.7215 111.153 69.1404C112.299 70.5593 112.863 72.4875 112.863 74.9251ZM102.894 75.0161C102.894 76.6896 103.222 78.1085 103.876 79.2364C104.531 80.3642 105.386 80.9281 106.478 80.9281C107.569 80.9281 108.424 80.346 109.079 79.2C109.734 78.054 110.061 76.6533 110.061 74.9797C110.061 73.3243 109.752 71.9418 109.134 70.7958C108.515 69.6497 107.642 69.104 106.514 69.104C105.368 69.104 104.495 69.6679 103.858 70.7776C103.222 71.9054 102.894 73.3243 102.894 75.0161Z" fill="#FAFAFA"/>
<path d="M115.828 88.9866L115.5 86.8219C116.337 86.731 117.029 86.4945 117.556 86.1307C118.084 85.7668 118.466 85.1847 118.666 84.4025C118.866 83.6203 118.975 82.256 118.975 80.3278V66.9392H121.722V81.2191C121.722 83.5657 121.431 85.2393 120.849 86.2398C120.267 87.2403 119.503 87.9498 118.557 88.35C117.647 88.7502 116.737 88.9685 115.828 88.9866ZM122.104 62.4097C122.104 62.9372 121.94 63.3738 121.613 63.7194C121.285 64.065 120.867 64.2288 120.339 64.2288C119.83 64.2288 119.43 64.0469 119.102 63.7012C118.775 63.3556 118.611 62.919 118.611 62.4097C118.611 61.8821 118.775 61.4456 119.102 61.0999C119.43 60.7543 119.848 60.5906 120.357 60.5906C120.867 60.5906 121.285 60.7543 121.594 61.0999C121.904 61.4456 122.104 61.8821 122.104 62.4097ZM125.669 82.4015V71.3778C125.669 70.1408 125.633 68.6492 125.542 66.9392H127.961L128.089 69.6497H128.18C128.507 68.7219 128.998 67.9943 129.689 67.4486C130.381 66.9028 131.127 66.6482 131.909 66.6482L132.582 66.6845V69.4132C132.473 69.3768 132.218 69.3404 131.854 69.3404C130.908 69.3404 130.09 69.7406 129.417 70.5228C128.743 71.305 128.398 72.4875 128.398 74.0337V82.4015H125.669Z" fill="#FAFAFA"/>
<rect x="33.8958" y="51.4043" width="11.2784" height="47.2965" rx="5.63919" fill="white"/>
<path d="M63.5652 63.3192C63.2741 46.8019 16.6871 46.6927 16.0141 64.2106C15.5775 75.3434 25.4552 82.6926 25.6553 92.5157C25.7462 96.8997 32.7861 98.9735 39.8988 98.9189C39.9715 98.9189 40.0443 98.9189 40.1352 98.9189C41.1357 98.9189 42.1181 98.8643 43.0822 98.7552C49.3762 98.1367 54.8881 95.8264 54.6334 91.9518C53.7239 78.9634 62.6193 73.2151 63.5652 63.3192ZM44.4829 94.7168C44.4829 96.7906 42.682 98.4823 40.4809 98.4823H38.4799C36.2788 98.4823 34.4779 96.7906 34.4779 94.7168V68.8311C34.4779 66.7573 36.2788 65.0656 38.4799 65.0656H40.4809C42.682 65.0656 44.4829 66.7573 44.4829 68.8311V94.7168ZM39.4804 63.5921C36.4061 63.5921 33.9139 60.9726 33.9139 57.7528C33.9139 54.533 36.4061 51.9135 39.4804 51.9135C42.5546 51.9135 45.0468 54.533 45.0468 57.7528C45.0468 60.9726 42.5546 63.5921 39.4804 63.5921Z" fill="#7CB124"/>
</svg>
