<svg width="150" height="150" viewBox="0 0 150 150" fill="none" xmlns="http://www.w3.org/2000/svg">
<rect width="150" height="150" rx="20" fill="#040413"/>
<path d="M16.0945 90.3921H20.7262V91.5868H17.4409V92.89H20.3492V94.0847H17.4409V95.4423H20.7801V96.6369H16.0945V90.3921Z" fill="#FAFAFA"/>
<path d="M21.7495 91.8581H23.096V92.5641C23.1498 92.4554 23.2575 92.3468 23.3652 92.2925C23.473 92.1839 23.5807 92.1296 23.6884 92.021C23.7961 91.9667 23.9038 91.9124 24.0654 91.8581C24.227 91.8038 24.3347 91.8038 24.5501 91.8038C24.8733 91.8038 25.1425 91.8581 25.358 92.021C25.5734 92.1296 25.7888 92.3468 25.8966 92.5641C26.112 92.2925 26.3274 92.1296 26.5967 91.9667C26.866 91.8581 27.1353 91.7495 27.4584 91.7495C27.9431 91.7495 28.374 91.9124 28.6433 92.1839C28.9126 92.4554 29.0742 92.9442 29.0742 93.4872V96.6368H27.6739V93.9759C27.6739 93.6501 27.62 93.4329 27.4584 93.27C27.2969 93.1071 27.1353 92.9985 26.866 92.9985C26.5967 92.9985 26.4351 93.1071 26.2736 93.27C26.112 93.4329 26.0581 93.7044 26.0581 93.9759V96.6368H24.7117V93.9759C24.7117 93.6501 24.6578 93.4329 24.4963 93.27C24.3347 93.1071 24.1731 92.9985 23.9038 92.9985C23.6345 92.9985 23.473 93.1071 23.3114 93.27C23.1498 93.4329 23.096 93.7044 23.096 93.9759V96.6368H21.7495V91.8581Z" fill="#FAFAFA"/>
<path d="M30.0438 91.8583H31.3903V92.5642C31.5519 92.347 31.7673 92.1298 31.9827 92.0212C32.1982 91.8583 32.5213 91.804 32.8444 91.804C33.1137 91.804 33.383 91.8583 33.6523 91.9669C33.9216 92.0755 34.137 92.2384 34.3525 92.4556C34.5679 92.6728 34.7295 92.9443 34.8372 93.2158C34.9449 93.5416 34.9987 93.8675 34.9987 94.3019C34.9987 94.682 34.9449 95.0621 34.8372 95.3879C34.7295 95.7137 34.5679 95.931 34.3525 96.1482C34.137 96.3654 33.9216 96.5283 33.6523 96.6369C33.383 96.7455 33.1137 96.7998 32.8444 96.7998C32.4674 96.7998 32.1982 96.7455 31.9289 96.5826C31.7134 96.4197 31.498 96.2568 31.3364 96.0939V98.1574H29.99V91.8583H30.0438ZM32.5213 95.6051C32.6829 95.6051 32.8444 95.5508 32.9522 95.4965C33.1137 95.4422 33.2214 95.3336 33.3292 95.225C33.4369 95.1164 33.5446 94.9535 33.5985 94.7906C33.6523 94.6277 33.7062 94.4648 33.7062 94.2476C33.7062 94.0304 33.6523 93.8675 33.5985 93.7046C33.5446 93.5416 33.4369 93.3787 33.3292 93.2701C33.2214 93.1615 33.1137 93.0529 32.9522 92.9986C32.7906 92.9443 32.6829 92.89 32.5213 92.89C32.3597 92.89 32.1982 92.9443 32.0904 92.9986C31.9289 93.0529 31.8211 93.1615 31.7134 93.2701C31.6057 93.3787 31.5519 93.5416 31.4441 93.7046C31.3903 93.8675 31.3364 94.0304 31.3364 94.2476C31.3364 94.4648 31.3903 94.6277 31.4441 94.7906C31.498 94.9535 31.6057 95.1164 31.7134 95.225C31.8211 95.3336 31.9289 95.4422 32.0904 95.4965C32.1982 95.5508 32.3597 95.6051 32.5213 95.6051Z" fill="#FAFAFA"/>
<path d="M35.9143 91.8581H37.2607V92.8356C37.4223 92.5097 37.5839 92.2382 37.7993 92.021C38.0148 91.8038 38.3379 91.7495 38.7688 91.7495V93.1614H38.7149C38.284 93.1614 37.907 93.3243 37.6377 93.5958C37.3685 93.8673 37.2607 94.3017 37.2607 94.8991V96.6911H35.9143V91.8581Z" fill="#FAFAFA"/>
<path d="M41.7309 96.7454C41.3539 96.7454 41.0307 96.6911 40.7614 96.5825C40.4383 96.4738 40.169 96.3109 39.9536 96.0937C39.7381 95.8765 39.5766 95.605 39.415 95.3335C39.3073 95.0077 39.2534 94.6819 39.2534 94.3017C39.2534 93.9759 39.3073 93.6501 39.415 93.3243C39.5227 92.9985 39.6843 92.727 39.8997 92.5098C40.1151 92.2925 40.3306 92.1296 40.6537 91.9667C40.923 91.8581 41.2462 91.7495 41.6232 91.7495C42.0002 91.7495 42.3772 91.8038 42.6465 91.9667C42.9157 92.1296 43.185 92.2925 43.3466 92.5641C43.562 92.7813 43.6697 93.1071 43.7775 93.3786C43.8852 93.7044 43.939 94.0302 43.939 94.356C43.939 94.4103 43.939 94.4646 43.939 94.519C43.939 94.5733 43.939 94.6276 43.939 94.6819H40.5999C40.6537 95.0077 40.8153 95.2249 41.0307 95.3878C41.2462 95.5507 41.4616 95.605 41.7847 95.605C42.0002 95.605 42.2156 95.5507 42.3772 95.4964C42.5387 95.4421 42.7542 95.2792 42.9157 95.1163L43.6697 95.8222C43.4543 96.0937 43.185 96.3109 42.8619 96.4738C42.5387 96.6911 42.1617 96.7454 41.7309 96.7454ZM42.5926 93.8673C42.5387 93.5415 42.431 93.3243 42.2694 93.1071C42.1079 92.9442 41.8924 92.8356 41.5693 92.8356C41.3 92.8356 41.0307 92.9442 40.8691 93.1071C40.7076 93.27 40.5999 93.5415 40.546 93.8673H42.5926Z" fill="#FAFAFA"/>
<path d="M46.4704 96.7455C46.1473 96.7455 45.7703 96.6912 45.4471 96.5826C45.0701 96.474 44.747 96.2568 44.4238 96.0396L45.0163 95.1708C45.2856 95.388 45.5548 95.4966 45.7703 95.6052C46.0396 95.7138 46.255 95.7681 46.4704 95.7681C46.6859 95.7681 46.7936 95.7138 46.9013 95.6595C47.009 95.6052 47.0629 95.4966 47.0629 95.388C47.0629 95.3337 47.009 95.2794 47.009 95.2251C46.9551 95.1708 46.9013 95.1165 46.7936 95.0622C46.6859 95.0079 46.5781 95.0079 46.4704 94.9536C46.3627 94.8992 46.2011 94.8993 46.0934 94.8449C45.9318 94.7906 45.7703 94.7363 45.6087 94.682C45.4471 94.6277 45.2856 94.5191 45.1778 94.4105C45.0163 94.3019 44.9085 94.139 44.8547 94.0304C44.747 93.8675 44.747 93.6503 44.747 93.4331C44.747 93.2159 44.8008 92.9987 44.9085 92.7814C45.0163 92.6185 45.124 92.4556 45.2856 92.2927C45.4471 92.1841 45.6087 92.0755 45.8241 92.0212C46.0396 91.9669 46.255 91.9126 46.5243 91.9126C46.8474 91.9126 47.1167 91.9669 47.4399 92.0755C47.763 92.1841 48.0323 92.2927 48.3016 92.5099L47.763 93.4331C47.5476 93.2702 47.2783 93.1616 47.0629 93.1073C46.8474 93.053 46.632 92.9987 46.4704 92.9987C46.3089 92.9987 46.2011 93.053 46.0934 93.1073C45.9857 93.1616 45.9857 93.2702 45.9857 93.3245C45.9857 93.3788 45.9857 93.4331 46.0396 93.4874C46.0934 93.5417 46.1473 93.596 46.255 93.6503C46.3627 93.7046 46.4704 93.7589 46.5781 93.7589C46.6859 93.8132 46.7936 93.8675 46.9551 93.8675C47.1167 93.9218 47.2783 93.9761 47.4399 94.0847C47.6014 94.139 47.763 94.2476 47.9246 94.3562C48.0862 94.4648 48.1939 94.5734 48.2477 94.7363C48.3554 94.8992 48.3554 95.0622 48.3554 95.2794C48.3554 95.5509 48.3016 95.7681 48.1939 95.9853C48.0862 96.2025 47.9784 96.3654 47.8169 96.474C47.6553 96.5826 47.4399 96.6912 47.2244 96.7455C46.9551 96.6912 46.7397 96.7455 46.4704 96.7455Z" fill="#FAFAFA"/>
<path d="M50.4558 96.7455C50.2404 96.7455 50.025 96.6912 49.8095 96.6369C49.5941 96.5826 49.4325 96.474 49.2709 96.3654C49.1094 96.2568 49.0017 96.0939 48.9478 95.931C48.8401 95.7681 48.8401 95.5508 48.8401 95.2793C48.8401 95.0078 48.8939 94.7906 49.0017 94.5734C49.1094 94.3562 49.2171 94.2476 49.3787 94.0847C49.5402 93.9761 49.7557 93.8675 49.9711 93.8132C50.1865 93.7589 50.4558 93.7045 50.7251 93.7045C50.9944 93.7045 51.156 93.7045 51.3714 93.7589C51.533 93.8132 51.7484 93.8675 51.91 93.9218V93.8675C51.91 93.5959 51.8023 93.3787 51.6407 93.2158C51.4791 93.0529 51.2098 92.9986 50.8867 92.9986C50.6174 92.9986 50.402 92.9986 50.1865 93.0529C49.9711 93.1072 49.7557 93.1615 49.5402 93.2701L49.2171 92.1841C49.4864 92.0755 49.7557 91.9669 50.025 91.9126C50.2942 91.8583 50.6712 91.804 51.0483 91.804C51.4253 91.804 51.7484 91.8583 52.0177 91.9669C52.287 92.0755 52.5024 92.1841 52.664 92.347C52.8256 92.5099 52.9871 92.7271 53.041 92.9986C53.1487 93.2701 53.1487 93.5416 53.1487 93.8675V96.6369H51.91V96.0939C51.7484 96.2568 51.533 96.4197 51.3175 96.5283C51.1021 96.6912 50.779 96.7455 50.4558 96.7455ZM50.8867 95.8224C51.2098 95.8224 51.4791 95.7681 51.6407 95.6051C51.8561 95.4422 51.91 95.225 51.91 95.0078V94.7906C51.8023 94.7363 51.6407 94.682 51.533 94.682C51.3714 94.6277 51.2098 94.6277 51.0483 94.6277C50.779 94.6277 50.5097 94.682 50.3481 94.7906C50.1865 94.8992 50.0788 95.0621 50.0788 95.2793C50.0788 95.4422 50.1327 95.6051 50.2942 95.7137C50.4558 95.768 50.6712 95.8224 50.8867 95.8224Z" fill="#FAFAFA"/>
<path d="M59.1268 96.7455C58.6421 96.7455 58.2112 96.6369 57.7265 96.474C57.2957 96.3111 56.8648 96.0396 56.4878 95.7138L57.2957 94.7363C57.5649 94.9535 57.8881 95.1707 58.1574 95.2793C58.4805 95.4423 58.8037 95.4966 59.1268 95.4966C59.3961 95.4966 59.6115 95.4423 59.7731 95.3336C59.9347 95.225 59.9885 95.0621 59.9885 94.8992C59.9885 94.7906 59.9885 94.7363 59.9347 94.682C59.8808 94.6277 59.827 94.5734 59.7731 94.4648C59.6654 94.4105 59.5577 94.3562 59.3961 94.3019C59.2345 94.2476 59.0191 94.1933 58.7498 94.139C58.4267 94.0847 58.1574 93.9761 57.8881 93.8675C57.6188 93.7589 57.4034 93.6503 57.2418 93.5417C57.0802 93.3787 56.9187 93.2158 56.8109 92.9986C56.7032 92.7814 56.6494 92.5099 56.6494 92.2384C56.6494 91.9669 56.7032 91.6954 56.8109 91.4781C56.9187 91.2609 57.0802 91.0437 57.2418 90.8808C57.4572 90.7179 57.6727 90.6093 57.9419 90.5007C58.2112 90.3921 58.4805 90.3921 58.8037 90.3921C59.2345 90.3921 59.6654 90.4464 60.0424 90.6093C60.4194 90.7722 60.7964 90.9351 61.1196 91.2066L60.4194 92.2384C60.1501 92.0212 59.8808 91.9126 59.6115 91.804C59.3423 91.6954 59.073 91.6411 58.8037 91.6411C58.5344 91.6411 58.319 91.6954 58.2112 91.804C58.1035 91.9126 57.9958 92.0212 57.9958 92.1841C57.9958 92.2927 57.9958 92.347 58.0497 92.4556C58.1035 92.5099 58.1574 92.6185 58.2651 92.6728C58.3728 92.7271 58.4805 92.7814 58.696 92.8357C58.8575 92.89 59.073 92.9443 59.3423 92.9986C59.6654 93.1072 59.9347 93.1615 60.204 93.2701C60.4733 93.3787 60.6348 93.4873 60.8503 93.6503C61.0118 93.8132 61.1734 93.9761 61.2273 94.139C61.335 94.3562 61.335 94.5734 61.335 94.8449C61.335 95.1707 61.2811 95.4423 61.1734 95.6595C61.0657 95.8767 60.9041 96.0939 60.6887 96.2568C60.4733 96.4197 60.2578 96.5283 59.9885 96.6369C59.7731 96.6912 59.45 96.7455 59.1268 96.7455Z" fill="#FAFAFA"/>
<path d="M63.651 96.7454C63.4356 96.7454 63.2202 96.6911 63.0047 96.6368C62.7893 96.5825 62.6277 96.4739 62.4662 96.3653C62.3046 96.2567 62.1969 96.0938 62.0892 95.9309C61.9814 95.768 61.9814 95.5507 61.9814 95.2792C61.9814 95.0077 62.0353 94.7905 62.143 94.5733C62.2507 94.3561 62.3584 94.2475 62.52 94.0846C62.6816 93.976 62.897 93.8674 63.1125 93.8131C63.3279 93.7587 63.5972 93.7044 63.8665 93.7044C64.1357 93.7044 64.2973 93.7044 64.5127 93.7587C64.6743 93.8131 64.8897 93.8674 65.0513 93.9217V93.8674C65.0513 93.5958 64.9436 93.3786 64.782 93.2157C64.6205 93.0528 64.3512 92.9985 64.028 92.9985C63.7587 92.9985 63.5433 92.9985 63.3279 93.0528C63.1125 93.1071 62.897 93.1614 62.6816 93.27L62.3584 92.2383C62.6277 92.1297 62.897 92.0211 63.1663 91.9668C63.4356 91.9125 63.8126 91.8582 64.1896 91.8582C64.5666 91.8582 64.8898 91.9125 65.159 92.0211C65.4283 92.1297 65.6438 92.2383 65.8053 92.4012C65.9669 92.5641 66.1285 92.7813 66.1823 93.0528C66.29 93.3243 66.29 93.5958 66.29 93.9217V96.6911H64.9975V96.1481C64.8359 96.311 64.6205 96.4739 64.405 96.5825C64.2973 96.6911 63.9742 96.7454 63.651 96.7454ZM64.0819 95.8223C64.405 95.8223 64.6743 95.768 64.8359 95.605C65.0513 95.4421 65.1052 95.2249 65.1052 95.0077V94.7905C64.9975 94.7362 64.8359 94.6819 64.7282 94.6819C64.5666 94.6276 64.405 94.6276 64.2435 94.6276C63.9742 94.6276 63.7049 94.6819 63.5433 94.7905C63.3817 94.8991 63.274 95.062 63.274 95.2792C63.274 95.4421 63.3279 95.605 63.4895 95.7136C63.7049 95.7679 63.8665 95.8223 64.0819 95.8223Z" fill="#FAFAFA"/>
<path d="M68.875 90.1206H67.5286V96.6369H68.875V90.1206Z" fill="#FAFAFA"/>
<path d="M69.5754 91.8582H70.9757L72.0529 95.062L73.13 91.8582H74.5303L72.6453 96.6911H71.4605L69.5754 91.8582Z" fill="#FAFAFA"/>
<path d="M76.523 96.7454C76.3075 96.7454 76.0921 96.6911 75.8767 96.6368C75.6612 96.5825 75.4997 96.4739 75.3381 96.3653C75.1765 96.2567 75.0688 96.0938 75.0149 95.9309C74.9072 95.768 74.9072 95.5507 74.9072 95.2792C74.9072 95.0077 74.9611 94.7905 75.0688 94.5733C75.1765 94.3561 75.2842 94.2475 75.4458 94.0846C75.6074 93.976 75.8228 93.8674 76.0382 93.8131C76.2537 93.7587 76.523 93.7044 76.7922 93.7044C77.0615 93.7044 77.2231 93.7044 77.4385 93.7587C77.6001 93.8131 77.8155 93.8674 77.9771 93.9217V93.8674C77.9771 93.5958 77.8694 93.3786 77.7078 93.2157C77.5463 93.0528 77.277 92.9985 76.9538 92.9985C76.6845 92.9985 76.4691 92.9985 76.2537 93.0528C76.0382 93.1071 75.8228 93.1614 75.6074 93.27L75.2842 92.2383C75.5535 92.1297 75.8228 92.0211 76.0921 91.9668C76.3614 91.9125 76.7384 91.8582 77.1154 91.8582C77.4924 91.8582 77.8155 91.9125 78.0848 92.0211C78.3541 92.1297 78.5696 92.2383 78.7311 92.4012C78.8927 92.5641 79.0543 92.7813 79.1081 93.0528C79.2158 93.3243 79.2158 93.5958 79.2158 93.9217V96.6911H77.9233V96.1481C77.7617 96.311 77.5463 96.4739 77.3308 96.5825C77.1693 96.6911 76.8461 96.7454 76.523 96.7454ZM76.9538 95.8223C77.277 95.8223 77.5463 95.768 77.7078 95.605C77.9233 95.4421 77.9771 95.2249 77.9771 95.0077V94.7905C77.8694 94.7362 77.7078 94.6819 77.6001 94.6819C77.4385 94.6276 77.277 94.6276 77.1154 94.6276C76.8461 94.6276 76.5768 94.6819 76.4152 94.7905C76.2537 94.8991 76.146 95.062 76.146 95.2792C76.146 95.4421 76.1998 95.605 76.3614 95.7136C76.523 95.7679 76.7384 95.8223 76.9538 95.8223Z" fill="#FAFAFA"/>
<path d="M82.2319 96.7454C81.9627 96.7454 81.6934 96.6911 81.4241 96.5825C81.1548 96.4739 80.9394 96.311 80.7239 96.0938C80.5085 95.8766 80.3469 95.605 80.2392 95.3335C80.1315 95.0077 80.0776 94.6819 80.0776 94.2475C80.0776 93.8674 80.1315 93.4872 80.2392 93.1614C80.3469 92.8356 80.5085 92.6184 80.7239 92.4012C80.9394 92.184 81.1548 92.0211 81.4241 91.9125C81.6934 91.8039 81.9627 91.7495 82.2319 91.7495C82.6089 91.7495 82.8782 91.8038 83.1475 91.9668C83.3629 92.1297 83.5784 92.2926 83.74 92.4555V90.0662H85.0864V96.5825H83.74V95.9852C83.5784 96.2024 83.3629 96.4196 83.1475 96.5282C82.9321 96.6911 82.6089 96.7454 82.2319 96.7454ZM82.6089 95.605C82.7705 95.605 82.9321 95.5507 83.0398 95.4964C83.2014 95.4421 83.3091 95.3335 83.4168 95.2249C83.5245 95.1163 83.5784 94.9534 83.6861 94.7905C83.74 94.6276 83.7938 94.4647 83.7938 94.2475C83.7938 94.0303 83.74 93.8674 83.6861 93.7044C83.6322 93.5415 83.5245 93.3786 83.4168 93.27C83.3091 93.1614 83.2014 93.0528 83.0398 92.9985C82.8782 92.9442 82.7705 92.8899 82.6089 92.8899C82.4474 92.8899 82.2858 92.9442 82.1781 92.9985C82.0165 93.0528 81.9088 93.1614 81.8011 93.27C81.6934 93.3786 81.5856 93.5415 81.5318 93.7044C81.4779 93.8674 81.4241 94.0303 81.4241 94.2475C81.4241 94.4647 81.4779 94.6276 81.5318 94.7905C81.5856 94.9534 81.6934 95.1163 81.8011 95.2249C81.9088 95.3335 82.0165 95.4421 82.1781 95.4964C82.2858 95.5507 82.4474 95.605 82.6089 95.605Z" fill="#FAFAFA"/>
<path d="M88.4792 96.7453C88.1022 96.7453 87.7791 96.691 87.4559 96.5281C87.1328 96.4195 86.8635 96.2023 86.648 95.9851C86.4326 95.7679 86.2172 95.4964 86.1095 95.1705C86.0018 94.8447 85.894 94.5189 85.894 94.1931C85.894 93.8673 85.9479 93.5415 86.1095 93.2157C86.2172 92.8898 86.4326 92.6726 86.648 92.4011C86.8635 92.1839 87.1328 92.021 87.4559 91.8581C87.7791 91.7495 88.1022 91.6409 88.4792 91.6409C88.8562 91.6409 89.1794 91.6952 89.5025 91.8581C89.8256 91.9667 90.0949 92.1839 90.3104 92.4011C90.5258 92.6183 90.7412 92.8898 90.8489 93.2157C90.9567 93.5415 91.0644 93.8673 91.0644 94.1931C91.0644 94.5189 91.0105 94.8447 90.8489 95.1705C90.7412 95.4964 90.5258 95.7136 90.3104 95.9851C90.0949 96.2023 89.8256 96.3652 89.5025 96.5281C89.2332 96.691 88.8562 96.7453 88.4792 96.7453ZM88.5331 95.605C88.7485 95.605 88.9101 95.5507 89.0716 95.4964C89.2332 95.4421 89.3409 95.3335 89.4486 95.2249C89.5564 95.1162 89.6102 94.9533 89.7179 94.7904C89.7718 94.6275 89.8256 94.4646 89.8256 94.3017C89.8256 94.1388 89.7718 93.9759 89.7179 93.813C89.6641 93.6501 89.5564 93.5415 89.4486 93.3786C89.3409 93.27 89.1794 93.1613 89.0716 93.107C88.9101 93.0527 88.7485 92.9984 88.5869 92.9984C88.3715 92.9984 88.2099 93.0527 88.0483 93.107C87.8868 93.1613 87.7791 93.27 87.6713 93.3786C87.5636 93.4872 87.5098 93.6501 87.402 93.813C87.3482 93.9759 87.2943 94.1388 87.2943 94.3017C87.2943 94.4646 87.3482 94.6275 87.402 94.7904C87.4559 94.9533 87.5636 95.1162 87.6713 95.2249C87.7791 95.3335 87.9406 95.4421 88.0483 95.4964C88.1561 95.5507 88.3176 95.605 88.5331 95.605Z" fill="#FAFAFA"/>
<path d="M91.9263 91.8581H93.2727V92.8356C93.4343 92.5097 93.5959 92.2382 93.8113 92.021C94.0267 91.8038 94.3499 91.7495 94.7807 91.7495V93.1614H94.7269C94.296 93.1614 93.919 93.3243 93.6497 93.5958C93.3804 93.8673 93.2727 94.3017 93.2727 94.8991V96.6911H91.9263V91.8581Z" fill="#FAFAFA"/>
<path d="M99.6279 91.6411H97.7429V90.3921H102.859V91.6411H100.974V96.6369H99.6279V91.6411Z" fill="#FAFAFA"/>
<path d="M105.229 96.7454C104.69 96.7454 104.313 96.5825 104.044 96.2567C103.775 95.9309 103.613 95.4964 103.613 94.9534V91.8582H104.96V94.519C104.96 94.8448 105.014 95.062 105.175 95.2249C105.337 95.3878 105.498 95.4964 105.768 95.4964C106.037 95.4964 106.252 95.3878 106.36 95.2249C106.522 95.062 106.575 94.8448 106.575 94.519V91.8582H107.922V96.6368H106.575V95.9852C106.522 96.0938 106.414 96.2024 106.306 96.2567C106.198 96.3653 106.091 96.4196 105.983 96.5282C105.875 96.5825 105.768 96.6368 105.606 96.6911C105.552 96.7454 105.391 96.7454 105.229 96.7454Z" fill="#FAFAFA"/>
<path d="M109.053 91.8581H110.399V92.8356C110.561 92.5097 110.723 92.2382 110.938 92.021C111.153 91.8038 111.477 91.7495 111.907 91.7495V93.1614H111.854C111.423 93.1614 111.046 93.3243 110.776 93.5958C110.507 93.8673 110.399 94.3017 110.399 94.8991V96.6911H109.053V91.8581Z" fill="#FAFAFA"/>
<path d="M112.662 90.1206H114.062V91.3153H112.662V90.1206ZM112.715 91.8583H114.062V96.6369H112.715V91.8583Z" fill="#FAFAFA"/>
<path d="M116.863 96.7455C116.539 96.7455 116.162 96.6912 115.839 96.5826C115.462 96.474 115.139 96.2568 114.816 96.0396L115.408 95.1708C115.678 95.388 115.947 95.4966 116.162 95.6052C116.432 95.7138 116.647 95.7681 116.863 95.7681C117.078 95.7681 117.186 95.7138 117.293 95.6595C117.401 95.6052 117.455 95.4966 117.455 95.388C117.455 95.3337 117.401 95.2794 117.347 95.2251C117.293 95.1708 117.24 95.1165 117.132 95.0622C117.024 95.0079 116.916 95.0079 116.809 94.9536C116.701 94.8992 116.539 94.8993 116.432 94.8449C116.27 94.7906 116.109 94.7363 115.947 94.682C115.785 94.6277 115.624 94.5191 115.462 94.4105C115.301 94.3019 115.193 94.139 115.139 94.0304C115.031 93.8675 115.031 93.6503 115.031 93.4331C115.031 93.2159 115.085 92.9987 115.193 92.7814C115.301 92.6185 115.408 92.4556 115.57 92.2927C115.731 92.1841 115.893 92.0755 116.109 92.0212C116.324 91.9669 116.539 91.9126 116.809 91.9126C117.132 91.9126 117.401 91.9669 117.724 92.0755C118.047 92.1841 118.317 92.2927 118.586 92.5099L118.047 93.4331C117.832 93.2702 117.563 93.1616 117.347 93.1073C117.132 93.053 116.916 92.9987 116.755 92.9987C116.593 92.9987 116.486 93.053 116.378 93.1073C116.27 93.1616 116.27 93.2702 116.27 93.3245C116.27 93.3788 116.27 93.4331 116.378 93.4874C116.432 93.5417 116.486 93.596 116.593 93.6503C116.701 93.7046 116.809 93.7589 116.916 93.7589C117.024 93.8132 117.132 93.8675 117.293 93.8675C117.455 93.9218 117.617 93.9761 117.778 94.0847C117.94 94.139 118.101 94.2476 118.263 94.3562C118.424 94.4648 118.532 94.5734 118.586 94.7363C118.694 94.8992 118.694 95.0622 118.694 95.2794C118.694 95.5509 118.64 95.7681 118.532 95.9853C118.424 96.2025 118.317 96.3654 118.155 96.474C117.994 96.5826 117.778 96.6912 117.563 96.7455C117.347 96.6912 117.078 96.7455 116.863 96.7455Z" fill="#FAFAFA"/>
<path d="M119.501 91.8581H120.848V92.5641C120.902 92.4554 121.009 92.3468 121.117 92.2925C121.225 92.1839 121.332 92.1296 121.44 92.021C121.548 91.9667 121.656 91.9124 121.817 91.8581C121.979 91.8038 122.086 91.8038 122.302 91.8038C122.625 91.8038 122.894 91.8581 123.11 92.021C123.325 92.1296 123.541 92.3468 123.648 92.5641C123.864 92.2925 124.079 92.1296 124.348 91.9667C124.618 91.8581 124.887 91.7495 125.21 91.7495C125.695 91.7495 126.126 91.9124 126.395 92.1839C126.664 92.4554 126.826 92.9442 126.826 93.4872V96.6368H125.479V93.9759C125.479 93.6501 125.426 93.4329 125.264 93.27C125.102 93.1071 124.941 92.9985 124.672 92.9985C124.402 92.9985 124.241 93.1071 124.079 93.27C123.918 93.4329 123.864 93.7044 123.864 93.9759V96.6368H122.463V93.9759C122.463 93.6501 122.41 93.4329 122.248 93.27C122.086 93.1071 121.925 92.9985 121.656 92.9985C121.386 92.9985 121.225 93.1071 121.063 93.27C120.902 93.4329 120.848 93.7044 120.848 93.9759V96.6368H119.501V91.8581Z" fill="#FAFAFA"/>
<path d="M130.112 96.7453C129.735 96.7453 129.411 96.691 129.088 96.5281C128.765 96.4195 128.496 96.2023 128.28 95.9851C128.065 95.7679 127.85 95.4964 127.742 95.1705C127.634 94.8447 127.526 94.5189 127.526 94.1931C127.526 93.8673 127.58 93.5415 127.742 93.2157C127.85 92.8898 128.065 92.6726 128.28 92.4011C128.496 92.1839 128.765 92.021 129.088 91.8581C129.411 91.7495 129.735 91.6409 130.112 91.6409C130.489 91.6409 130.812 91.6952 131.135 91.8581C131.458 91.9667 131.727 92.1839 131.943 92.4011C132.158 92.6183 132.374 92.8898 132.481 93.2157C132.589 93.5415 132.697 93.8673 132.697 94.1931C132.697 94.5189 132.643 94.8447 132.481 95.1705C132.374 95.4964 132.158 95.7136 131.943 95.9851C131.727 96.2023 131.458 96.3652 131.135 96.5281C130.866 96.691 130.489 96.7453 130.112 96.7453ZM130.165 95.605C130.381 95.605 130.542 95.5507 130.704 95.4964C130.866 95.4421 130.973 95.3335 131.081 95.2249C131.189 95.1162 131.243 94.9533 131.35 94.7904C131.404 94.6275 131.458 94.4646 131.458 94.3017C131.458 94.1388 131.404 93.9759 131.35 93.813C131.296 93.6501 131.189 93.5415 131.081 93.3786C130.973 93.27 130.812 93.1613 130.704 93.107C130.542 93.0527 130.381 92.9984 130.219 92.9984C130.004 92.9984 129.842 93.0527 129.681 93.107C129.519 93.1613 129.411 93.27 129.304 93.3786C129.196 93.4872 129.088 93.6501 129.034 93.813C128.981 93.9759 128.927 94.1388 128.927 94.3017C128.927 94.4646 128.981 94.6275 129.034 94.7904C129.088 94.9533 129.196 95.1162 129.304 95.2249C129.411 95.3335 129.573 95.4421 129.681 95.4964C129.788 95.5507 129.95 95.605 130.165 95.605Z" fill="#FAFAFA"/>
<path d="M31.4456 81.5896C30.0465 83.0243 27.6401 84 24.5621 84C21.4841 84 19.1336 83.0817 17.7345 81.647C16.1675 80.04 15.6638 77.8017 15.6638 74.473H21.9318C21.9318 75.793 22.0437 76.7687 22.6033 77.4C22.9391 77.8017 23.5547 78.1461 24.5621 78.1461C25.5135 78.1461 26.1291 77.8591 26.5768 77.3426C27.0245 76.8261 27.1924 75.9078 27.1924 74.6452C27.1924 71.5461 26.6887 71.0296 24.4501 70.0539L20.4767 68.3896C17.2868 67.0122 15.9436 65.2904 15.9436 60.24C15.9436 57.2557 16.895 54.7304 18.7978 53.0661C20.3088 51.7461 22.2116 51 24.618 51C27.4162 51 29.4309 51.7461 30.83 53.0661C32.5649 54.673 33.2924 57.313 33.2924 60.5843H26.9126C26.9126 59.4365 26.9126 58.4035 26.3529 57.6574C26.0171 57.1409 25.4575 56.8539 24.5621 56.8539C23.6666 56.8539 23.107 57.1983 22.7712 57.7148C22.3795 58.2313 22.2676 58.92 22.2676 60.0104C22.2676 62.0765 22.6033 62.6504 24.4501 63.3965L28.3676 65.0035C32.341 66.6678 33.5163 68.5043 33.5163 74.3583C33.4603 77.687 33.0686 79.9252 31.4456 81.5896Z" fill="#0E61A6"/>
<path d="M50.6472 84L49.6207 78.8419H42.2069L41.1804 84H34.5081L42.7202 51H49.0504L57.3195 84H50.6472ZM45.9138 60.6714L43.4045 72.9218H48.366L45.9138 60.6714Z" fill="#0E61A6"/>
<path d="M59.3032 84V51H65.769V78.0799H74.1803V84H59.3032Z" fill="#0E61A6"/>
<path d="M84.4332 56.9201V84H77.8124V56.9201H72.1965V51H90.049V56.9201H84.4332Z" fill="#0E61A6"/>
<path d="M107.527 81.2789C105.843 83.0737 103.598 84 100.959 84C98.3204 84 96.0748 83.0737 94.3906 81.2789C92.8748 79.6579 92.0327 77.4579 92.0327 74.8526V51H98.3204V75.2C98.3204 77.2842 99.4993 78.1526 100.959 78.1526C102.362 78.1526 103.598 77.3421 103.598 75.2V51H109.885V74.8526C109.885 77.4579 108.987 79.6579 107.527 81.2789Z" fill="#0E61A6"/>
<path d="M126.079 83.9415L122.209 71.1277H120.134V83.9415H113.852V51H122.882C129.78 51 131.687 54.7447 131.687 61.0638C131.687 64.5745 131.182 67.734 128.098 69.7234L132.697 84H126.079V83.9415ZM122.77 56.9096H120.134V65.2181H122.77C125.181 65.2181 125.293 62.9362 125.293 61.0638C125.35 59.133 125.181 56.9096 122.77 56.9096Z" fill="#0E61A6"/>
</svg>
