<svg width="150" height="150" viewBox="0 0 150 150" fill="none" xmlns="http://www.w3.org/2000/svg">
<rect width="150" height="150" rx="20" fill="#040413"/>
<path d="M27.8865 104.385L30.0894 100.351C30.2482 100.322 30.4085 100.304 30.5695 100.294C30.7164 100.287 30.8509 100.283 30.973 100.283C31.0951 100.283 31.2382 100.291 31.4022 100.306L31.8993 100.351L29.6714 104.272L32.0889 108.475L31.5838 108.52C31.4224 108.535 31.2774 108.543 31.1489 108.543C31.0203 108.543 30.8874 108.539 30.7503 108.531C30.5855 108.522 30.4215 108.503 30.2589 108.475L27.8865 104.385ZM26 100.341C26.1385 100.319 26.278 100.304 26.418 100.296C26.5535 100.288 26.6929 100.285 26.836 100.285C26.964 100.285 27.0958 100.288 27.2313 100.296C27.3713 100.304 27.5108 100.319 27.6493 100.341V108.486C27.5108 108.508 27.3713 108.523 27.2313 108.531C27.0958 108.539 26.9597 108.543 26.823 108.543C26.6864 108.543 26.5519 108.539 26.4196 108.531C26.2791 108.523 26.139 108.508 26 108.486V100.341ZM33.4897 100.217C33.7547 100.172 34.023 100.15 34.2918 100.149C34.5568 100.15 34.8213 100.173 35.0825 100.217V106.148C35.0792 106.337 35.0924 106.526 35.1221 106.713C35.1391 106.831 35.1814 106.945 35.2463 107.046C35.3005 107.122 35.3777 107.179 35.4666 107.207C35.5765 107.24 35.6909 107.255 35.8055 107.252C35.8716 107.252 35.9376 107.248 36.0032 107.241C36.0735 107.234 36.1432 107.222 36.2122 107.207C36.2931 107.502 36.3349 107.806 36.3365 108.111V108.272C36.3354 108.327 36.3278 108.381 36.3139 108.434C36.1721 108.476 36.0264 108.503 35.879 108.514C35.7095 108.529 35.5532 108.537 35.4101 108.537C34.9007 108.562 34.4012 108.39 34.015 108.057C33.8229 107.847 33.6768 107.6 33.5863 107.33C33.4958 107.061 33.4629 106.775 33.4897 106.492V100.217ZM37.6356 102.638C37.9006 102.593 38.1689 102.57 38.4377 102.57C38.7064 102.57 38.9747 102.593 39.2397 102.638V105.731C39.2343 105.988 39.259 106.243 39.3131 106.494C39.3496 106.668 39.4271 106.83 39.5391 106.968C39.6399 107.085 39.7709 107.171 39.9175 107.217C40.0896 107.269 40.2687 107.294 40.4485 107.29C40.6845 107.295 40.9201 107.268 41.1489 107.21V102.634C41.4101 102.59 41.6746 102.567 41.9396 102.567C42.2084 102.567 42.4767 102.59 42.7417 102.634V108.249C42.429 108.35 42.1102 108.431 41.7871 108.491C41.3797 108.571 40.9654 108.611 40.5501 108.61C40.1792 108.611 39.8089 108.581 39.4431 108.52C39.1065 108.467 38.7873 108.335 38.5111 108.136C38.2237 107.914 38.0029 107.617 37.8728 107.277C37.697 106.797 37.6165 106.286 37.6356 105.775V102.638ZM44.8977 103.858H44.1635L44.107 103.632L46.2211 100.929H46.4809V102.634H47.8478C47.8686 102.735 47.8837 102.837 47.893 102.939C47.9005 103.03 47.9043 103.124 47.9043 103.222C47.9043 103.32 47.9005 103.421 47.893 103.527C47.8838 103.637 47.8687 103.746 47.8478 103.854H46.4809V106.148C46.4762 106.338 46.4952 106.527 46.5374 106.713C46.5649 106.836 46.62 106.952 46.6988 107.051C46.7684 107.133 46.8608 107.192 46.9642 107.221C47.0858 107.253 47.2113 107.268 47.337 107.266C47.4487 107.266 47.5602 107.257 47.6703 107.238L47.964 107.184C48.017 107.328 48.0549 107.478 48.077 107.63C48.0981 107.766 48.1094 107.904 48.1108 108.042C48.1108 108.125 48.109 108.195 48.1052 108.251C48.1014 108.308 48.0958 108.362 48.0883 108.413C47.7366 108.496 47.3764 108.538 47.0151 108.537C46.4504 108.576 45.8912 108.405 45.4448 108.057C45.2475 107.851 45.0966 107.606 45.0022 107.337C44.9078 107.068 44.8722 106.782 44.8977 106.498V103.858ZM53.5316 107.097C53.6283 107.262 53.7042 107.438 53.7576 107.622C53.8218 107.852 53.8523 108.089 53.8479 108.328C53.5757 108.439 53.2905 108.516 52.9991 108.556C52.7256 108.59 52.4501 108.607 52.1744 108.606C51.7376 108.616 51.3034 108.537 50.8979 108.375C50.5544 108.234 50.2473 108.017 49.9998 107.741C49.7563 107.458 49.5737 107.128 49.4632 106.772C49.3401 106.381 49.2791 105.972 49.2825 105.562C49.2785 105.155 49.3376 104.749 49.4576 104.36C49.5677 104.004 49.7483 103.675 49.9885 103.391C50.2311 103.109 50.5346 102.885 50.8761 102.736C51.2652 102.571 51.6849 102.49 52.1075 102.499C52.2731 102.499 52.4256 102.503 52.565 102.51C52.7002 102.517 52.835 102.532 52.9684 102.555C53.098 102.578 53.2263 102.608 53.3525 102.646C53.4805 102.683 53.6236 102.732 53.7818 102.793C53.7792 102.988 53.7565 103.183 53.714 103.374C53.6692 103.588 53.597 103.795 53.4994 103.99C53.3062 103.923 53.1078 103.872 52.9063 103.838C52.7127 103.808 52.5171 103.794 52.3213 103.795C52.1215 103.781 51.9214 103.816 51.7376 103.895C51.5539 103.975 51.3919 104.097 51.265 104.252C51.0048 104.636 50.8796 105.095 50.9092 105.557C50.8677 106.034 51.0046 106.509 51.2933 106.89C51.4262 107.03 51.5878 107.141 51.7672 107.213C51.9466 107.285 52.1395 107.317 52.3326 107.308C52.4455 107.308 52.5491 107.306 52.6432 107.302C52.736 107.299 52.8284 107.289 52.92 107.274C53.0138 107.258 53.1063 107.236 53.1968 107.206C53.2909 107.178 53.4025 107.142 53.5316 107.097ZM55.4973 100.217C55.628 100.194 55.7601 100.179 55.8926 100.172C56.0282 100.164 56.16 100.16 56.288 100.16C56.4161 100.16 56.5479 100.164 56.6834 100.172C56.8186 100.179 56.9533 100.195 57.0869 100.217V103.324C57.1407 103.256 57.2103 103.175 57.2959 103.081C57.3926 102.979 57.5009 102.888 57.6186 102.81C57.7623 102.716 57.9181 102.642 58.0818 102.59C58.2827 102.527 58.4925 102.496 58.7031 102.5C58.9732 102.481 59.2443 102.519 59.4985 102.612C59.7526 102.706 59.984 102.852 60.1773 103.042C60.5527 103.527 60.7324 104.136 60.6808 104.747V108.486C60.5473 108.508 60.4126 108.524 60.2774 108.531C60.1418 108.539 60.01 108.543 59.882 108.543C59.754 108.543 59.6211 108.539 59.4834 108.531C59.3482 108.524 59.2135 108.508 59.0799 108.486V105.178C59.0982 104.854 59.032 104.531 58.8879 104.24C58.8198 104.13 58.7225 104.041 58.6068 103.983C58.4911 103.926 58.3615 103.901 58.2327 103.913C58.0989 103.913 57.9659 103.932 57.8373 103.969C57.6977 104.009 57.5711 104.085 57.4701 104.189C57.3477 104.32 57.2552 104.477 57.199 104.647C57.1197 104.895 57.0834 105.155 57.0917 105.415V108.486C56.9549 108.509 56.817 108.524 56.6786 108.531C56.543 108.539 56.4112 108.543 56.2832 108.543C56.1552 108.543 56.0263 108.539 55.8967 108.531C55.7615 108.524 55.6268 108.508 55.4932 108.486L55.4973 100.217Z" fill="#DE2E31"/>
<path d="M68.7676 101.051H66.5873C66.5789 100.998 66.5732 100.944 66.5703 100.89C66.5666 100.825 66.5647 100.763 66.5647 100.703C66.5647 100.642 66.5666 100.582 66.5703 100.522C66.573 100.465 66.5786 100.409 66.5873 100.353H71.7273C71.7357 100.406 71.7414 100.46 71.7442 100.514C71.748 100.574 71.7499 100.634 71.7499 100.695C71.7499 100.755 71.748 100.817 71.7442 100.881C71.7416 100.938 71.7359 100.995 71.7273 101.051H69.5486V108.475C69.4948 108.482 69.4346 108.488 69.3679 108.492C69.3012 108.496 69.2329 108.497 69.1629 108.497C69.0876 108.497 69.0142 108.496 68.9426 108.492C68.884 108.489 68.8256 108.484 68.7676 108.475V101.051ZM73.1733 105.707C73.1212 106.32 73.3118 106.928 73.7042 107.402C73.9192 107.595 74.1712 107.743 74.445 107.836C74.7188 107.929 75.0087 107.966 75.297 107.944C75.5643 107.946 75.831 107.921 76.0935 107.87C76.337 107.822 76.5767 107.756 76.8108 107.673C76.8529 107.77 76.8833 107.873 76.9012 107.978C76.9221 108.086 76.9372 108.195 76.9464 108.305C76.7004 108.412 76.4424 108.487 76.1782 108.531C75.8611 108.587 75.5398 108.614 75.218 108.612C74.7805 108.623 74.345 108.549 73.9358 108.394C73.5988 108.259 73.2983 108.047 73.0587 107.774C72.8233 107.5 72.6498 107.179 72.5503 106.831C72.4384 106.44 72.384 106.035 72.3889 105.628C72.3839 105.227 72.4331 104.828 72.535 104.44C72.6279 104.092 72.785 103.763 72.9982 103.472C73.2066 103.192 73.4799 102.967 73.7946 102.817C74.1593 102.65 74.5573 102.569 74.9581 102.58C75.3028 102.573 75.6452 102.638 75.9635 102.77C76.2474 102.891 76.5004 103.074 76.7035 103.307C76.9092 103.547 77.063 103.828 77.1553 104.131C77.2601 104.471 77.3116 104.825 77.3078 105.18C77.3078 105.248 77.306 105.335 77.3022 105.44C77.2984 105.545 77.2928 105.636 77.2853 105.711L73.1733 105.707ZM76.5623 105.086C76.5624 104.853 76.532 104.621 76.4719 104.397C76.4173 104.183 76.3214 103.981 76.1895 103.804C76.057 103.63 75.8871 103.49 75.6924 103.391C75.4642 103.279 75.2123 103.224 74.9581 103.23C74.7301 103.217 74.5019 103.253 74.2893 103.337C74.0767 103.42 73.8847 103.549 73.7268 103.714C73.4066 104.102 73.2203 104.583 73.1959 105.086H76.5623ZM83.3064 107.749C83.3521 107.846 83.3881 107.949 83.4137 108.054C83.4476 108.182 83.4721 108.287 83.4871 108.37C83.2768 108.444 83.061 108.5 82.8416 108.539C82.5769 108.587 82.3084 108.609 82.0395 108.607C81.6476 108.635 81.2543 108.58 80.8847 108.447C80.5152 108.313 80.1774 108.105 79.8932 107.833C79.3659 107.21 79.1024 106.405 79.1589 105.591C79.1551 105.187 79.2161 104.784 79.3396 104.399C79.4517 104.049 79.6322 103.725 79.8706 103.445C80.1106 103.169 80.4099 102.95 80.7461 102.806C81.129 102.646 81.5413 102.567 81.9564 102.575C82.2306 102.574 82.5045 102.595 82.7754 102.637C82.9843 102.666 83.1903 102.714 83.3911 102.778C83.3893 102.892 83.376 103.006 83.3516 103.117C83.3334 103.221 83.3064 103.323 83.2709 103.422C83.0849 103.361 82.8941 103.315 82.7004 103.286C82.4557 103.248 82.2082 103.229 81.9605 103.23C81.6554 103.223 81.3524 103.283 81.0729 103.405C80.8265 103.517 80.6098 103.685 80.4403 103.896C80.2657 104.117 80.137 104.371 80.0618 104.642C79.9759 104.951 79.9341 105.27 79.9376 105.591C79.9097 105.913 79.9468 106.238 80.0468 106.545C80.1467 106.853 80.3074 107.137 80.5193 107.381C80.7304 107.578 80.9787 107.73 81.2495 107.828C81.5203 107.927 81.8082 107.97 82.096 107.955C82.3125 107.956 82.5285 107.937 82.7416 107.899C82.9337 107.865 83.1227 107.815 83.3064 107.749ZM85.4528 102.714C85.513 102.706 85.5714 102.7 85.6279 102.697C85.6843 102.693 85.7381 102.691 85.7892 102.691C85.8495 102.691 85.906 102.693 85.9587 102.697C86.0114 102.7 86.0679 102.706 86.1281 102.714C86.1432 102.849 86.1545 103.019 86.162 103.222C86.1696 103.425 86.1733 103.602 86.1733 103.753C86.2568 103.606 86.3553 103.468 86.467 103.34C86.592 103.197 86.7343 103.07 86.8907 102.962C87.0631 102.844 87.2513 102.751 87.4499 102.685C87.6721 102.612 87.9049 102.576 88.1389 102.578C88.4098 102.554 88.6825 102.595 88.934 102.699C89.1856 102.802 89.4088 102.964 89.5849 103.171C89.914 103.662 90.0727 104.247 90.0368 104.837V108.475C89.975 108.484 89.9128 108.49 89.8504 108.492C89.7713 108.496 89.7092 108.497 89.664 108.497C89.6188 108.497 89.5594 108.496 89.4857 108.492C89.4214 108.49 89.3573 108.484 89.2936 108.475V105.063C89.3325 104.584 89.2283 104.105 88.9943 103.685C88.8916 103.546 88.7556 103.434 88.5987 103.361C88.4417 103.288 88.2689 103.256 88.0962 103.267C87.8389 103.267 87.5847 103.322 87.3506 103.428C87.1174 103.534 86.9108 103.69 86.7462 103.886C86.5655 104.104 86.4285 104.356 86.3428 104.626C86.2402 104.951 86.1906 105.29 86.1959 105.631V108.475C86.1341 108.484 86.0719 108.49 86.0095 108.492C85.9304 108.496 85.8683 108.497 85.8231 108.497C85.7779 108.497 85.719 108.496 85.6464 108.492C85.5816 108.49 85.5169 108.484 85.4528 108.475V102.714ZM94.7047 107.958C94.9653 107.975 95.2259 107.926 95.4622 107.815C95.6985 107.704 95.9026 107.534 96.0555 107.323C96.3791 106.806 96.5349 106.203 96.5017 105.594C96.5349 104.986 96.3791 104.382 96.0555 103.866C95.9026 103.654 95.6985 103.485 95.4622 103.373C95.2259 103.262 94.9653 103.213 94.7047 103.23C94.4446 103.213 94.1843 103.262 93.9482 103.372C93.7122 103.483 93.508 103.652 93.3548 103.863C93.0306 104.38 92.8747 104.985 92.9086 105.594C92.8754 106.203 93.0312 106.806 93.3548 107.323C93.508 107.534 93.7122 107.702 93.9482 107.813C94.1843 107.923 94.4446 107.972 94.7047 107.955V107.958ZM94.7047 108.614C94.3156 108.622 93.9295 108.543 93.5751 108.382C93.2604 108.235 92.9842 108.016 92.7682 107.744C92.5458 107.458 92.3823 107.13 92.2873 106.78C92.1784 106.394 92.1241 105.995 92.1259 105.594C92.1241 105.193 92.1784 104.794 92.2873 104.408C92.3825 104.059 92.5457 103.733 92.7674 103.448C92.9834 103.176 93.2596 102.957 93.5743 102.81C93.9287 102.649 94.3148 102.57 94.7039 102.578C95.0913 102.569 95.4756 102.648 95.828 102.81C96.1407 102.958 96.4151 103.176 96.63 103.448C96.8516 103.734 97.016 104.06 97.1142 104.408C97.2248 104.794 97.2792 105.193 97.2755 105.594C97.2792 105.995 97.2248 106.395 97.1142 106.78C97.016 107.129 96.8516 107.455 96.63 107.741C96.4151 108.012 96.1407 108.23 95.828 108.379C95.4759 108.54 95.0918 108.619 94.7047 108.61V108.614ZM99.4832 100.172C99.545 100.163 99.6072 100.157 99.6696 100.155C99.7487 100.151 99.8108 100.149 99.856 100.149C99.9012 100.149 99.9615 100.151 100.037 100.155C100.101 100.157 100.165 100.163 100.229 100.172V107.142C100.222 107.297 100.245 107.452 100.297 107.599C100.33 107.693 100.389 107.775 100.466 107.837C100.533 107.885 100.61 107.916 100.692 107.927C100.767 107.938 100.842 107.943 100.918 107.944C101.005 107.944 101.092 107.938 101.178 107.927C101.254 107.918 101.329 107.905 101.404 107.887C101.443 107.981 101.47 108.08 101.484 108.181C101.499 108.289 101.511 108.387 101.518 108.475C101.403 108.515 101.284 108.542 101.162 108.556C101.041 108.57 100.918 108.578 100.795 108.578C100.636 108.578 100.477 108.561 100.321 108.527C100.167 108.495 100.022 108.43 99.8972 108.335C99.7672 108.234 99.6644 108.102 99.5978 107.951C99.5149 107.749 99.4764 107.531 99.4849 107.313L99.4832 100.172ZM105.425 107.955C105.685 107.972 105.946 107.923 106.182 107.813C106.418 107.702 106.622 107.534 106.775 107.323C107.099 106.806 107.255 106.203 107.221 105.594C107.255 104.986 107.099 104.382 106.775 103.866C106.622 103.654 106.418 103.485 106.182 103.374C105.946 103.262 105.686 103.213 105.425 103.23C105.165 103.213 104.905 103.262 104.669 103.372C104.433 103.483 104.229 103.652 104.075 103.863C103.752 104.379 103.596 104.983 103.629 105.591C103.596 106.199 103.752 106.803 104.075 107.319C104.228 107.531 104.432 107.7 104.668 107.811C104.904 107.923 105.165 107.972 105.425 107.955ZM105.425 108.61C105.036 108.619 104.65 108.54 104.296 108.379C103.981 108.231 103.705 108.013 103.489 107.741C103.266 107.456 103.101 107.129 103.005 106.78C102.896 106.394 102.841 105.995 102.843 105.594C102.841 105.193 102.896 104.794 103.005 104.408C103.101 104.059 103.266 103.733 103.489 103.448C103.705 103.176 103.981 102.957 104.296 102.81C104.65 102.649 105.036 102.57 105.425 102.578C105.813 102.569 106.197 102.648 106.549 102.81C106.862 102.958 107.136 103.176 107.351 103.448C107.573 103.734 107.737 104.06 107.836 104.408C107.946 104.794 108.001 105.193 107.997 105.594C108.001 105.995 107.946 106.395 107.836 106.78C107.737 107.129 107.573 107.455 107.351 107.741C107.136 108.012 106.862 108.23 106.549 108.379C106.197 108.54 105.813 108.619 105.425 108.61ZM113.062 107.899C113.569 107.865 114.071 108.012 114.48 108.313C114.621 108.445 114.731 108.605 114.805 108.784C114.878 108.962 114.911 109.154 114.903 109.347C114.907 109.629 114.828 109.906 114.677 110.144C114.515 110.392 114.299 110.601 114.045 110.754C113.744 110.935 113.418 111.068 113.076 111.149C112.679 111.246 112.271 111.293 111.862 111.29C111.55 111.292 111.238 111.265 110.93 111.209C110.673 111.166 110.425 111.08 110.196 110.955C109.996 110.847 109.828 110.687 109.712 110.492C109.593 110.276 109.534 110.032 109.542 109.786C109.546 109.492 109.634 109.204 109.797 108.959C109.952 108.706 110.176 108.502 110.443 108.372C110.3 108.282 110.177 108.165 110.081 108.027C109.98 107.876 109.929 107.697 109.934 107.515C109.925 107.254 109.998 106.997 110.143 106.78C110.296 106.571 110.486 106.391 110.702 106.249C110.439 106.084 110.222 105.855 110.07 105.583C109.905 105.278 109.823 104.935 109.833 104.589C109.831 104.321 109.879 104.054 109.974 103.804C110.066 103.562 110.211 103.344 110.397 103.165C110.598 102.977 110.834 102.831 111.092 102.736C111.398 102.624 111.721 102.57 112.047 102.575C112.326 102.57 112.605 102.61 112.871 102.693C113.097 102.765 113.31 102.869 113.504 103.004C113.579 102.974 113.673 102.94 113.786 102.902C113.909 102.862 114.033 102.83 114.159 102.806C114.295 102.78 114.434 102.757 114.577 102.739C114.716 102.72 114.855 102.711 114.995 102.71C115.026 102.832 115.042 102.957 115.04 103.083C115.042 103.213 115.027 103.342 114.995 103.467H113.92C114.024 103.631 114.106 103.807 114.162 103.992C114.219 104.185 114.246 104.385 114.243 104.586C114.249 104.881 114.191 105.173 114.074 105.444C113.966 105.685 113.806 105.9 113.605 106.071C113.398 106.244 113.161 106.377 112.905 106.461C112.626 106.553 112.334 106.599 112.04 106.596C111.753 106.602 111.467 106.56 111.193 106.472C111.023 106.573 110.873 106.705 110.752 106.861C110.665 106.985 110.62 107.133 110.622 107.285C110.621 107.358 110.633 107.43 110.656 107.499C110.683 107.574 110.732 107.639 110.797 107.686C110.887 107.751 110.988 107.797 111.096 107.821C111.259 107.859 111.426 107.876 111.593 107.872L113.062 107.899ZM111.458 108.576C111.302 108.566 111.147 108.587 111 108.639C110.853 108.691 110.719 108.772 110.605 108.878C110.497 108.985 110.412 109.113 110.357 109.254C110.301 109.395 110.276 109.546 110.282 109.697C110.276 109.857 110.32 110.015 110.406 110.149C110.493 110.273 110.612 110.371 110.751 110.432C110.914 110.504 111.087 110.552 111.265 110.573C111.471 110.6 111.678 110.613 111.886 110.612C112.455 110.641 113.021 110.516 113.525 110.25C113.691 110.174 113.833 110.054 113.936 109.904C114.039 109.754 114.1 109.579 114.112 109.397C114.123 109.278 114.102 109.159 114.05 109.052C113.998 108.944 113.918 108.853 113.819 108.787C113.52 108.644 113.19 108.578 112.859 108.595L111.458 108.576ZM110.622 104.589C110.611 104.949 110.734 105.301 110.966 105.577C111.105 105.72 111.274 105.83 111.46 105.9C111.647 105.97 111.847 105.997 112.045 105.981C112.244 105.997 112.445 105.969 112.632 105.9C112.82 105.83 112.989 105.72 113.13 105.577C113.365 105.303 113.49 104.95 113.48 104.589C113.49 104.227 113.365 103.875 113.13 103.6C112.989 103.458 112.82 103.348 112.632 103.278C112.445 103.208 112.244 103.181 112.045 103.197C111.847 103.18 111.647 103.208 111.46 103.278C111.274 103.347 111.105 103.458 110.966 103.6C110.734 103.876 110.611 104.228 110.622 104.589ZM117.035 103.346H116.309C116.3 103.301 116.295 103.256 116.292 103.211C116.288 103.157 116.286 103.1 116.286 103.041C116.286 102.982 116.288 102.922 116.292 102.86C116.294 102.811 116.3 102.762 116.309 102.714H117.777V108.475C117.719 108.484 117.659 108.489 117.6 108.492C117.521 108.496 117.459 108.497 117.414 108.497C117.368 108.497 117.307 108.496 117.23 108.492C117.165 108.49 117.1 108.484 117.035 108.475V103.346ZM116.666 101.301C116.658 101.234 116.652 101.151 116.649 101.053C116.645 100.955 116.643 100.872 116.643 100.804C116.643 100.744 116.645 100.669 116.649 100.578C116.652 100.488 116.658 100.413 116.666 100.353C116.733 100.345 116.816 100.339 116.914 100.336C117.012 100.332 117.095 100.33 117.163 100.33C117.223 100.33 117.298 100.332 117.388 100.336C117.479 100.339 117.554 100.345 117.614 100.353C117.622 100.413 117.628 100.488 117.631 100.578C117.635 100.669 117.637 100.744 117.637 100.804C117.637 100.872 117.635 100.955 117.631 101.053C117.628 101.151 117.622 101.234 117.614 101.301C117.554 101.309 117.479 101.315 117.388 101.318C117.298 101.322 117.223 101.324 117.163 101.324C117.095 101.324 117.012 101.322 116.914 101.318C116.816 101.315 116.733 101.309 116.666 101.301ZM123.49 105.673C123.362 105.658 123.201 105.641 123.006 105.622C122.811 105.604 122.629 105.594 122.458 105.594C122 105.567 121.543 105.677 121.148 105.91C120.999 106.008 120.878 106.143 120.797 106.301C120.716 106.46 120.677 106.636 120.685 106.814C120.675 107.023 120.724 107.23 120.826 107.413C120.915 107.559 121.042 107.678 121.193 107.757C121.348 107.839 121.516 107.894 121.69 107.919C121.87 107.945 122.051 107.958 122.232 107.958C122.451 107.959 122.67 107.948 122.888 107.925C123.091 107.902 123.29 107.872 123.486 107.834L123.49 105.673ZM123.49 104.668C123.508 104.472 123.485 104.275 123.425 104.087C123.365 103.9 123.268 103.727 123.14 103.578C122.998 103.454 122.833 103.359 122.655 103.3C122.476 103.24 122.287 103.216 122.099 103.23C121.823 103.228 121.547 103.249 121.275 103.292C121.049 103.328 120.827 103.379 120.608 103.445C120.562 103.352 120.53 103.253 120.512 103.151C120.487 103.032 120.473 102.911 120.472 102.789C120.71 102.72 120.953 102.669 121.199 102.637C121.491 102.595 121.785 102.574 122.08 102.575C122.663 102.529 123.243 102.702 123.707 103.059C123.897 103.258 124.043 103.495 124.135 103.756C124.227 104.016 124.261 104.292 124.238 104.567V108.373C123.974 108.427 123.654 108.481 123.277 108.535C122.922 108.586 122.563 108.613 122.204 108.615C121.621 108.646 121.043 108.499 120.546 108.192C120.338 108.036 120.174 107.83 120.068 107.593C119.962 107.356 119.918 107.096 119.94 106.837C119.935 106.558 119.995 106.282 120.115 106.03C120.229 105.796 120.394 105.591 120.599 105.431C120.822 105.262 121.075 105.137 121.345 105.064C121.656 104.978 121.977 104.937 122.299 104.94C122.568 104.94 122.802 104.949 123 104.968C123.198 104.987 123.359 105.004 123.484 105.019L123.49 104.668Z" fill="#E85B38"/>
<path d="M45.5258 88.5997C45.5258 75.7008 45.5258 62.8021 45.5258 49.9037C45.5258 49.6348 45.5128 49.3658 45.4997 49.0969C43.9724 51.2493 42.6301 53.527 41.4871 55.9058C39.8804 59.1683 38.6163 62.5885 37.7149 66.1117C37.0154 68.8919 36.5158 71.7185 36.2199 74.57C36.076 76.11 36.0122 77.6564 36.0286 79.203C36.0286 79.8782 36.0196 80.5541 36.0024 81.2301C36.0064 83.5251 36.1994 85.8158 36.5795 88.079L36.5975 88.2074C36.6867 88.8177 36.7429 89.4325 36.7659 90.0489V90.0579C39.4387 90.0718 42.1116 90.0759 44.7836 90.1135C45.3852 90.1217 45.5855 89.8887 45.5299 89.3272C45.5054 89.0885 45.5258 88.8441 45.5258 88.5997Z" fill="#E85B38"/>
<path d="M73.5695 38.7821C73.5695 38.1773 73.3284 38.0203 72.7522 38.0874C71.137 38.2451 69.5377 38.536 67.9704 38.9571C65.1583 39.6974 62.5055 40.9462 60.1431 42.6419C59.6249 43.3505 58.8819 44.4221 58.4503 45.0548C56.7651 47.4672 55.5965 50.2018 55.0178 53.087C54.439 55.9723 54.4627 58.946 55.0872 61.8217C55.7118 64.6974 56.9237 67.4131 58.6471 69.7983C60.3705 72.1836 62.5681 74.1871 65.1022 75.6832L65.3262 75.8213C66.2865 76.498 67.3608 76.9964 68.4977 77.2926C68.3383 77.2182 68.1707 77.1553 68.0187 77.0719C65.3023 75.6323 63.109 73.3728 61.7509 70.6147C60.3927 67.8567 59.9389 64.7406 60.454 61.7098C60.9691 58.6789 62.4268 55.8877 64.6198 53.7331C66.8128 51.5786 69.6293 50.1704 72.6688 49.709C73.1878 49.6273 73.581 49.5929 73.5753 48.8916C73.5475 45.5166 73.5556 42.149 73.5695 38.7821Z" fill="#DE2E31"/>
<path d="M79.1092 49.45C80.0491 47.6775 81.256 46.06 82.6877 44.6544C85.2946 41.9204 88.4065 39.7172 91.8514 38.1668C91.3917 38.0654 90.9227 38.0123 90.452 38.0082C86.2365 38.0082 82.0212 38.0082 77.8062 38.0082C76.7624 38.0082 76.7502 38.027 76.7436 39.1133C76.7354 41.8295 76.7436 44.544 76.7436 47.2602C76.7436 49.6617 76.7502 49.759 79.0323 49.589L79.1092 49.45Z" fill="#DE2E31"/>
<path d="M36.2575 90.0588C36.2344 89.4634 36.1798 88.8697 36.094 88.2801L36.076 88.1518C35.6916 85.8607 35.4969 83.5418 35.494 81.2187C35.5112 80.546 35.5161 79.8733 35.5202 79.2006C35.5036 77.636 35.5685 76.0715 35.7147 74.5137C36.0132 71.6385 36.5172 68.7883 37.2228 65.985C38.1326 62.4277 39.4089 58.9743 41.031 55.6802C42.2285 53.1768 43.6492 50.7864 45.2757 48.5379L45.48 48.2322C45.4948 45.0991 45.5005 41.9652 45.5364 38.8322C45.5438 38.1914 45.3043 37.9952 44.6839 38.0001C41.7617 38.0222 38.8404 38.0058 35.9182 38.0099C34.2091 38.0099 34.3562 37.8579 34.3562 39.5916C34.3562 55.7437 34.3562 71.8956 34.3562 88.0472C34.3562 90.1062 34.3619 90.1912 36.2591 90.0751L36.2575 90.0588Z" fill="#DE2E31"/>
<path d="M72.3182 78.5293C71.6831 78.4059 71.0521 78.2662 70.4186 78.1337C70.2533 78.1334 70.0893 78.1057 69.933 78.052C69.3609 77.9555 68.9522 77.873 68.9048 77.864C67.5157 77.6372 66.1996 77.0864 65.063 76.2562L64.8399 76.1189C62.2473 74.5867 59.999 72.5357 58.236 70.0942C56.473 67.6528 55.2332 64.8735 54.5942 61.9306C53.9553 58.9877 53.9311 55.9445 54.5231 52.9918C55.115 50.0391 56.3104 47.2404 58.0343 44.7712C58.1038 44.6698 58.3752 44.2734 58.7103 43.7903C58.3954 43.9181 58.1088 44.1067 57.8668 44.3453C51.3546 50.1806 48.2583 57.4375 48.864 66.2007C49.1719 71.0498 50.8999 75.701 53.8329 79.5748C55.9926 82.5586 58.7686 85.0431 61.9729 86.8597C65.1771 88.6764 68.7346 89.7827 72.404 90.1036C73.5173 90.2221 73.5279 90.1853 73.5312 89.041C73.5394 86.0411 73.5437 83.041 73.5443 80.0407C73.5418 78.7623 73.5385 78.768 72.3182 78.5293Z" fill="#E85B38"/>
<path d="M81.3731 49.6054L81.9576 49.3414C86.6829 47.2771 91.9083 46.6381 96.9918 47.5031C102.472 48.3038 107.552 50.8357 111.491 54.7288C112.286 55.511 113.058 56.3382 113.805 57.1385C114.073 57.4273 114.343 57.715 114.614 58.0016C114.603 57.9042 114.587 57.8076 114.564 57.7122C113.157 52.0674 109.877 47.0665 105.261 43.5265C101.659 40.6672 97.3343 38.8639 92.7684 38.3173L92.3474 38.4913C88.8492 40.0236 85.6909 42.2364 83.0562 45.0011C81.686 46.3502 80.524 47.8956 79.6084 49.5866C80.1958 49.6274 80.785 49.6337 81.3731 49.6054Z" fill="#E85B38"/>
<path d="M114.836 58.9857L114.48 58.5983C114.131 58.2312 113.783 57.8577 113.435 57.4841C112.692 56.6872 111.923 55.8633 111.137 55.09C107.273 51.2717 102.289 48.7888 96.9143 48.0041C92.1223 47.1913 87.1985 47.737 82.7007 49.5792C85.0016 49.6029 87.3026 49.6503 89.6035 49.6176C92.2591 49.5627 94.8675 50.3245 97.0761 51.8C101.747 54.8824 103.917 59.2513 103.853 64.866C103.762 72.9369 103.823 81.0102 103.829 89.0828C103.829 89.9909 103.866 90.0154 104.816 90.0187C107.94 90.029 111.064 90.029 114.186 90.0187C115.34 90.0187 115.355 90.0072 115.355 88.898C115.355 80.4609 115.374 72.0239 115.341 63.586C115.378 62.0369 115.208 60.4898 114.836 58.9857Z" fill="#DE2E31"/>
</svg>
