<svg width="45" height="40" viewBox="0 0 45 40" fill="none" xmlns="http://www.w3.org/2000/svg">
<path d="M44.9773 20.0046C44.9773 17.0291 41.246 14.2092 35.5252 12.4605C36.8454 6.63767 36.2587 2.00504 33.6734 0.521858C33.0774 0.173953 32.3807 0.00915527 31.6198 0.00915527V2.05081C32.0415 2.05081 32.3807 2.13321 32.6649 2.28885C33.9117 3.00298 34.4526 5.72213 34.0309 9.2195C33.9301 10.0801 33.765 10.9865 33.5633 11.9112C31.7664 11.4717 29.8045 11.133 27.7418 10.9133C26.5041 9.2195 25.2206 7.68139 23.928 6.33555C26.9167 3.56146 29.722 2.04166 31.6289 2.04166V0C29.1078 0 25.8074 1.79446 22.4703 4.9073C19.1332 1.81277 15.8328 0.0366218 13.3117 0.0366218V2.07828C15.2094 2.07828 18.0239 3.58892 21.0126 6.3447C19.7291 7.69055 18.4456 9.2195 17.2263 10.9133C15.1544 11.133 13.1925 11.4717 11.3956 11.9203C11.1847 11.0048 11.0289 10.1167 10.9189 9.26528C10.488 5.76791 11.0197 3.04875 12.2574 2.32547C12.5324 2.16068 12.8899 2.08743 13.3117 2.08743V0.0457771C12.5416 0.0457771 11.8448 0.210574 11.2397 0.55848C8.66358 2.04166 8.08601 6.66514 9.41534 12.4697C3.71296 14.2275 0 17.0382 0 20.0046C0 22.9801 3.7313 25.8 9.45201 27.5486C8.13184 33.3715 8.71858 38.0041 11.3039 39.4873C11.8998 39.8352 12.5966 40 13.3667 40C15.8878 40 19.1882 38.2055 22.5253 35.0927C25.8624 38.1872 29.1628 39.9634 31.6839 39.9634C32.454 39.9634 33.1508 39.7986 33.7559 39.4507C36.332 37.9675 36.9096 33.344 35.5803 27.5395C41.2643 25.7908 44.9773 22.9709 44.9773 20.0046ZM33.0408 13.8979C32.7016 15.079 32.2798 16.2966 31.8031 17.5143C31.4272 16.7819 31.033 16.0494 30.6021 15.317C30.1804 14.5846 29.7312 13.8705 29.282 13.1746C30.5838 13.3669 31.8398 13.6049 33.0408 13.8979ZM28.8419 23.6484C28.1268 24.8844 27.3934 26.0563 26.6325 27.1458C25.2665 27.2648 23.8821 27.3289 22.4886 27.3289C21.1043 27.3289 19.72 27.2648 18.3631 27.155C17.6022 26.0655 16.8596 24.9027 16.1445 23.6759C15.4478 22.4765 14.8152 21.2589 14.2376 20.032C14.806 18.8052 15.4478 17.5784 16.1353 16.379C16.8504 15.1431 17.5839 13.9712 18.3448 12.8817C19.7108 12.7626 21.0951 12.6986 22.4886 12.6986C23.873 12.6986 25.2573 12.7626 26.6141 12.8725C27.3751 13.962 28.1177 15.1247 28.8328 16.3516C29.5295 17.5509 30.1621 18.7686 30.7397 19.9954C30.1621 21.2222 29.5295 22.4491 28.8419 23.6484ZM31.8031 22.4582C32.2982 23.6851 32.7199 24.9119 33.0683 26.1021C31.8673 26.3951 30.6021 26.6423 29.2911 26.8345C29.7404 26.1295 30.1896 25.4063 30.6113 24.6647C31.033 23.9322 31.4272 23.1907 31.8031 22.4582ZM22.507 32.2271C21.6544 31.3481 20.8018 30.3685 19.9583 29.2973C20.7834 29.3339 21.6269 29.3614 22.4795 29.3614C23.3412 29.3614 24.1938 29.3431 25.0281 29.2973C24.203 30.3685 23.3504 31.3481 22.507 32.2271ZM15.6861 26.8345C14.3843 26.6423 13.1283 26.4042 11.9273 26.1112C12.2665 24.9302 12.6882 23.7125 13.165 22.4949C13.5408 23.2273 13.9351 23.9597 14.366 24.6922C14.7968 25.4246 15.2369 26.1387 15.6861 26.8345ZM22.4611 7.7821C23.3137 8.66102 24.1663 9.64065 25.0098 10.7118C24.1847 10.6752 23.3412 10.6477 22.4886 10.6477C21.6269 10.6477 20.7743 10.6661 19.94 10.7118C20.7651 9.64065 21.6177 8.66102 22.4611 7.7821ZM15.677 13.1746C15.2277 13.8796 14.7785 14.6029 14.3568 15.3445C13.9351 16.0769 13.5408 16.8093 13.165 17.5418C12.6699 16.3149 12.2482 15.0881 11.8998 13.8979C13.1008 13.6141 14.366 13.3669 15.677 13.1746ZM7.38009 24.6372C4.13468 23.2547 2.03525 21.442 2.03525 20.0046C2.03525 18.5672 4.13468 16.7452 7.38009 15.3719C8.16852 15.0332 9.03029 14.7311 9.91957 14.4472C10.4421 16.2417 11.1297 18.1094 11.9823 20.0229C11.1389 21.9272 10.4605 23.7858 9.94707 25.5711C9.03946 25.2872 8.17768 24.976 7.38009 24.6372ZM12.3124 37.7203C11.0655 37.0062 10.5246 34.287 10.9464 30.7897C11.0472 29.929 11.2122 29.0227 11.4139 28.098C13.2108 28.5374 15.1727 28.8762 17.2355 29.0959C18.4731 30.7897 19.7566 32.3278 21.0493 33.6736C18.0606 36.4477 15.2552 37.9675 13.3483 37.9675C12.9358 37.9583 12.5874 37.8759 12.3124 37.7203ZM34.0584 30.7439C34.4893 34.2412 33.9576 36.9604 32.7199 37.6837C32.4449 37.8485 32.0873 37.9217 31.6656 37.9217C29.7679 37.9217 26.9534 36.4111 23.9646 33.6553C25.2481 32.3095 26.5316 30.7805 27.751 29.0867C29.8229 28.867 31.7848 28.5283 33.5817 28.0797C33.7925 29.0043 33.9576 29.8924 34.0584 30.7439ZM37.588 24.6372C36.7996 24.976 35.9378 25.2781 35.0485 25.5619C34.526 23.7675 33.8384 21.8997 32.9858 19.9863C33.8292 18.0819 34.5076 16.2234 35.021 14.4381C35.9286 14.7219 36.7904 15.0332 37.5972 15.3719C40.8426 16.7544 42.942 18.5672 42.942 20.0046C42.9328 21.442 40.8334 23.2639 37.588 24.6372Z" fill="#61DAFB"/>
<path d="M22.4794 24.1887C24.7933 24.1887 26.6691 22.3155 26.6691 20.0047C26.6691 17.6939 24.7933 15.8207 22.4794 15.8207C20.1655 15.8207 18.2897 17.6939 18.2897 20.0047C18.2897 22.3155 20.1655 24.1887 22.4794 24.1887Z" fill="#61DAFB"/>
</svg>
