<svg width="53" height="40" viewBox="0 0 53 40" fill="none" xmlns="http://www.w3.org/2000/svg">
<g clip-path="url(#clip0)">
<path d="M45.6089 22.9792C43.756 22.9898 42.1515 23.4376 40.8058 24.1044C40.3089 23.1148 39.8121 22.2501 39.7294 21.6044C39.6362 20.8544 39.5223 20.3959 39.6362 19.5002C39.75 18.6042 40.2675 17.3334 40.2675 17.2292C40.2571 17.1355 40.1536 16.6772 39.0875 16.6667C38.0213 16.6563 37.1 16.8751 36.9964 17.1563C36.8929 17.4376 36.6859 18.0834 36.5513 18.7501C36.365 19.7292 34.4189 23.198 33.3113 25.0209C32.949 24.3126 32.6384 23.6876 32.5762 23.1875C32.4832 22.4376 32.3692 21.9791 32.4832 21.0834C32.597 20.1875 33.1146 18.9167 33.1146 18.8126C33.1042 18.7188 33.0007 18.2605 31.9346 18.2501C30.8683 18.2397 29.9471 18.4584 29.8436 18.7397C29.7401 19.0209 29.6262 19.6876 29.3985 20.3334C29.181 20.9792 26.5931 26.7709 25.9203 28.2813C25.5787 29.0522 25.2786 29.6667 25.0611 30.0834C24.8437 30.5001 25.0507 30.1147 25.03 30.1563C24.8437 30.5105 24.7402 30.7084 24.7402 30.7084V30.7189C24.5953 30.9794 24.44 31.2292 24.3674 31.2292C24.3157 31.2292 24.2122 30.5313 24.3881 29.5731C24.7711 27.5626 25.7028 24.4273 25.6925 24.3127C25.6925 24.2606 25.8684 23.7084 25.092 23.4273C24.3364 23.146 24.0673 23.6148 24.0051 23.6148C23.943 23.6148 23.8913 23.7814 23.8913 23.7814C23.8913 23.7814 24.7297 20.2503 22.2868 20.2503C20.7547 20.2503 18.643 21.9274 17.5975 23.4586C16.935 23.8232 15.5272 24.5939 14.0366 25.417C13.4672 25.7295 12.8772 26.0628 12.3182 26.3649L12.2044 26.2397C9.24389 23.0626 3.76792 20.8126 3.99565 16.5417C4.07846 14.9897 4.61675 10.8959 14.5129 5.93758C22.6182 1.87508 29.1086 2.98967 30.2369 5.46883C31.8414 9.0105 26.7691 15.5938 18.343 16.5417C15.134 16.9063 13.4466 15.6563 13.0223 15.1876C12.5772 14.698 12.5151 14.6772 12.3495 14.7709C12.0803 14.9167 12.246 15.3542 12.3495 15.6147C12.5979 16.2709 13.6331 17.4376 15.3928 18.0209C16.9351 18.5313 20.7032 18.8126 25.2579 17.0417C30.3612 15.0522 34.3465 9.53133 33.1768 4.91675C31.9864 0.218833 24.2434 -1.32283 16.9249 1.29175C12.5667 2.85425 7.84643 5.29175 4.45112 8.48967C0.414012 12.2813 -0.227785 15.5938 0.0413554 16.9688C0.983451 21.8751 7.70151 25.073 10.3929 27.4376C10.2583 27.5104 10.1341 27.5833 10.0203 27.6459C8.67456 28.3125 3.55054 31.0105 2.26694 33.8646C0.817723 37.0937 2.49468 39.4167 3.61264 39.7292C7.07007 40.698 10.6103 38.9584 12.5253 36.0938C14.4299 33.2292 14.2023 29.5105 13.3224 27.8126L13.2913 27.7501L14.3471 27.1251C15.0304 26.7188 15.7033 26.3438 16.2932 26.0208C15.9621 26.9271 15.7239 28 15.5998 29.5625C15.4548 31.3959 16.2001 33.7708 17.1835 34.7083C17.6183 35.1145 18.1359 35.125 18.4568 35.125C19.5955 35.125 20.113 34.177 20.6824 33.0416C21.3863 31.6562 22.0074 30.0521 22.0074 30.0521C22.0074 30.0521 21.231 34.3958 23.3531 34.3958C24.1294 34.3958 24.9058 33.3854 25.2578 32.8646V32.875C25.2578 32.875 25.2785 32.8437 25.3199 32.7708C25.3633 32.7062 25.4047 32.6402 25.4441 32.573V32.5522C25.7546 32.0105 26.4482 30.7709 27.4833 28.7188C28.8186 26.073 30.1023 22.7605 30.1023 22.7605C30.1023 22.7605 30.2265 23.573 30.6095 24.9063C30.8372 25.6981 31.334 26.5626 31.717 27.4063C31.4065 27.8438 31.2202 28.0939 31.2202 28.0939L31.2305 28.1044C30.9822 28.4377 30.7026 28.792 30.4128 29.146C29.357 30.4169 28.0941 31.8649 27.9285 32.2815C27.7318 32.771 27.7732 33.1356 28.1562 33.4274C28.4357 33.6357 28.9326 33.6773 29.4605 33.6357C30.4128 33.5731 31.0753 33.3336 31.4066 33.1877C31.9242 33.0002 32.5142 32.7189 33.0835 32.3023C34.1187 31.5315 34.7501 30.4378 34.688 28.9795C34.657 28.1774 34.3982 27.3857 34.0773 26.6357C34.1705 26.5003 34.2637 26.3648 34.3568 26.219C35.9923 23.8127 37.2552 21.167 37.2552 21.167C37.2552 21.167 37.3794 21.9795 37.7625 23.3128C37.959 23.9899 38.3525 24.7296 38.7044 25.4587C37.1724 26.7191 36.2097 28.1775 35.8785 29.1358C35.2677 30.9066 35.7439 31.7087 36.6445 31.8962C37.0481 31.9796 37.6279 31.7921 38.0625 31.6046C38.6008 31.4275 39.253 31.1253 39.8535 30.6775C40.8886 29.9066 41.8824 28.8337 41.8306 27.3858C41.7996 26.7191 41.6236 26.0629 41.3855 25.4379C42.6898 24.8962 44.377 24.5837 46.5199 24.8441C51.1263 25.3858 52.0373 28.2816 51.8614 29.49C51.6854 30.6984 50.7227 31.365 50.4017 31.5733C50.0808 31.7712 49.9773 31.8442 50.0084 31.99C50.0498 32.2088 50.1947 32.1983 50.4742 32.1567C50.8572 32.0941 52.8964 31.1672 52.9792 28.9381C53.1035 26.0731 50.4017 22.9481 45.6089 22.9792ZM10.0824 35.0313C8.56069 36.7084 6.41792 37.3438 5.50698 36.8022C4.52358 36.2292 4.90649 33.7605 6.78022 31.9792C7.91889 30.8959 9.39917 29.8959 10.3722 29.2813C10.5896 29.1459 10.9208 28.9481 11.3142 28.7084C11.3763 28.6669 11.4177 28.6459 11.4177 28.6459C11.4902 28.6042 11.573 28.5522 11.6558 28.5001C12.3494 31.0417 11.6869 33.2709 10.0824 35.0313ZM21.2103 27.4168C20.6824 28.7188 19.5644 32.0626 18.8916 31.8751C18.3118 31.7188 17.9599 29.1876 18.7776 26.6876C19.1916 25.4271 20.0715 23.9272 20.5891 23.3437C21.4277 22.4062 22.3385 22.0937 22.5664 22.4791C22.8355 22.9792 21.5416 26.6043 21.2103 27.4168ZM30.3921 31.8334C30.1644 31.9481 29.9574 32.0313 29.8642 31.9689C29.7917 31.9273 29.9573 31.771 29.9573 31.771C29.9573 31.771 31.1063 30.5314 31.5618 29.9585C31.8205 29.6253 32.1311 29.2399 32.4623 28.8023V28.9273C32.4625 30.4272 31.0339 31.4272 30.3921 31.8334ZM37.4725 30.2084C37.3069 30.0834 37.3277 29.698 37.8866 28.4897C38.1041 28.0105 38.6008 27.2084 39.46 26.448C39.5635 26.7605 39.6257 27.0625 39.6153 27.3438C39.605 29.2188 38.28 29.9167 37.4725 30.2084Z" fill="#CF649A"/>
</g>
<defs>
<clipPath id="clip0">
<rect width="53" height="40" fill="white"/>
</clipPath>
</defs>
</svg>
